<svg xmlns="http://www.w3.org/2000/svg" viewBox="0 0 101.16 101.16"><defs><style>.cls-1{fill:#fff;}.cls-2{fill:#9bc9ff;}.cls-3{fill:#1e81ce;}</style></defs><g id="Layer_2" data-name="Layer 2"><g id="_1" data-name="1"><rect class="cls-1" width="101.16" height="101.16"/><g id="B62_Launch_Rocket_Startup" data-name="B62, Launch, Rocket, Startup"><path class="cls-1" d="M23.57,68.38a1.92,1.92,0,0,1,1.92,1.93,1.92,1.92,0,1,1-3.84,0A1.92,1.92,0,0,1,23.57,68.38Z"/><path class="cls-1" d="M29.84,40.56a1.93,1.93,0,1,1-1.92,1.93A2,2,0,0,1,29.84,40.56Z"/><path class="cls-1" d="M76,50.68a2.53,2.53,0,1,1-2.53,2.53A2.5,2.5,0,0,1,76,50.68Z"/><path class="cls-1" d="M64,22.86A3.14,3.14,0,1,1,60.9,26,3.09,3.09,0,0,1,64,22.86Z"/><polygon class="cls-2" points="44.41 60.29 44.31 64.64 38.04 64.64 38.04 60.8 38.04 60.29 44.41 60.29"/><path class="cls-2" d="M59.58,60.8v3.74H53.31v-.3h0V64l-.1-3.74h6.37Z"/><path class="cls-2" d="M53.21,60.29l.1,3.95h0A4.34,4.34,0,0,1,49,68.38,4.49,4.49,0,0,1,44.41,64V60.29Z"/><polygon class="cls-2" points="44.41 28.53 44.41 41.27 44.41 60.29 53.21 60.29 53.21 41.27 53.21 28.53 44.41 28.53"/><path class="cls-1" d="M48.86,36.82a4.45,4.45,0,1,1-4.45,4.45A4.45,4.45,0,0,1,48.86,36.82Z"/><path class="cls-2" d="M53.21,26.1v2.43h-8.9V26.1a4.49,4.49,0,0,1,4.45-4.45A4.36,4.36,0,0,1,53.21,26.1Z"/><polygon class="cls-1" points="38.04 60.29 38.04 60.8 27.92 60.8 38.04 46.94 38.04 60.29"/><polygon class="cls-1" points="59.58 46.94 69.7 60.8 59.58 60.8 59.58 60.29 59.58 46.94"/><path class="cls-2" d="M44.31,43.19l.1,17.1H38v-17a3.15,3.15,0,0,1,3.13-3.14A3,3,0,0,1,44.31,43.19Z"/><path class="cls-2" d="M59.58,46.94V60.39H53.21l.1-17.09a3.14,3.14,0,1,1,6.27,0v3.64Z"/><path class="cls-3" d="M53.31,65.55h0a1.14,1.14,0,0,1-1.21-1.31v-.11L52,60.39a1.24,1.24,0,0,1,1.21-1.31h0a1.16,1.16,0,0,1,1.21,1.21l.1,3.74h0v.31A1.23,1.23,0,0,1,53.31,65.55Z"/><path class="cls-3" d="M49,69.7A5.84,5.84,0,0,1,43.09,64V60.29a1.32,1.32,0,0,1,2.63,0V64a3.34,3.34,0,0,0,3.34,3.14,3.19,3.19,0,0,0,3.14-2.93,1.27,1.27,0,1,1,2.53.1A5.91,5.91,0,0,1,49,69.7Z"/><path class="cls-3" d="M59.58,65.85H53.31a1.16,1.16,0,0,1-1.21-1.21v-.3h0l-.1-4a1.24,1.24,0,0,1,1.21-1.31h0a1.16,1.16,0,0,1,1.21,1.21v3h3.75V60.8a1.32,1.32,0,1,1,2.63,0v3.74A1.2,1.2,0,0,1,59.58,65.85Z"/><path class="cls-3" d="M29.84,45.62A3.14,3.14,0,1,1,33,42.49,3.14,3.14,0,0,1,29.84,45.62Zm0-3.74a.61.61,0,1,0,0,1.21.61.61,0,1,0,0-1.21Z"/><path class="cls-3" d="M23.57,73.44a3.14,3.14,0,1,1,3.14-3.13A3.15,3.15,0,0,1,23.57,73.44Zm0-3.74a.61.61,0,1,0,.61.61A.66.66,0,0,0,23.57,69.7Z"/><path class="cls-3" d="M76,57.05a3.84,3.84,0,1,1,3.84-3.84A3.84,3.84,0,0,1,76,57.05Zm0-5a1.32,1.32,0,0,0,0,2.63A1.32,1.32,0,1,0,76,52Z"/><path class="cls-3" d="M64,30.45A4.45,4.45,0,1,1,68.48,26,4.49,4.49,0,0,1,64,30.45Zm0-6.27A1.92,1.92,0,1,0,66,26.1,1.92,1.92,0,0,0,64,24.18Z"/><path class="cls-3" d="M48.86,46.94a5.67,5.67,0,1,1,5.66-5.67A5.65,5.65,0,0,1,48.86,46.94Zm0-8.9A3.14,3.14,0,1,0,52,41.17,3.15,3.15,0,0,0,48.86,38Z"/><path class="cls-3" d="M69.7,62.11H59.58a1.33,1.33,0,0,1-1.31-1.31v-.51A1.33,1.33,0,0,1,59.58,59a1.24,1.24,0,0,1,1,.5h6.68l-8.7-11.94a1.23,1.23,0,0,1,2-1.41l10.12,14a1.25,1.25,0,0,1,.1,1.31A1.36,1.36,0,0,1,69.7,62.11Z"/><path class="cls-3" d="M53.21,61.61h-8.9A1.35,1.35,0,0,1,43,60.29V28.53a1.32,1.32,0,1,1,2.63,0V59.08H52V28.53a1.32,1.32,0,1,1,2.63,0V60.39A1.53,1.53,0,0,1,53.21,61.61Z"/><path class="cls-3" d="M59.58,61.61H53.21a1.11,1.11,0,0,1-.91-.41,1.53,1.53,0,0,1-.41-.91L52,43.19a4.39,4.39,0,0,1,4.35-4.35,4.33,4.33,0,0,1,4.35,4.35v17.1A1.13,1.13,0,0,1,59.58,61.61Zm-5.06-2.53h3.75V43.19a1.82,1.82,0,0,0-3.64,0Z"/><path class="cls-3" d="M44.41,61.61a1.23,1.23,0,0,1-1.21-1.22L43.09,43.3a1.82,1.82,0,1,0-3.64,0v3.64a1.32,1.32,0,0,1-2.63,0V43.3a4.35,4.35,0,0,1,8.7,0l.1,17.09a1.23,1.23,0,0,1-1.21,1.22Z"/><path class="cls-3" d="M44.31,65.85H38a1.34,1.34,0,0,1-1.32-1.31V60.39A1.34,1.34,0,0,1,38,59.08h6.37a1.1,1.1,0,0,1,.91.4,1.52,1.52,0,0,1,.4.91l-.1,4.25A1.24,1.24,0,0,1,44.31,65.85Zm-5-2.52h3.74V61.61H39.35Z"/><path class="cls-3" d="M38,62.11H27.92a1.22,1.22,0,0,1-1.11-.71,1.21,1.21,0,0,1,.1-1.31L37,46.13a1.49,1.49,0,0,1,1.42-.51,1.31,1.31,0,0,1,.91,1.22v14A1.34,1.34,0,0,1,38,62.11Zm-7.59-2.53h6.37v-8.8Z"/><path class="cls-3" d="M53.21,29.74h-8.9A1.34,1.34,0,0,1,43,28.43V26a5.67,5.67,0,1,1,11.33,0v2.43A1,1,0,0,1,53.21,29.74Zm-7.59-2.53H52V26a3.14,3.14,0,0,0-6.28,0v1.21Z"/><path class="cls-3" d="M70.51,79.81a1.34,1.34,0,0,1-1.32-1.31,1.6,1.6,0,0,0-1.62-1.62,1.27,1.27,0,0,0-.6.1,1.22,1.22,0,0,1-1.32-.2,1.08,1.08,0,0,1-.3-1.32,2.2,2.2,0,0,0,.1-.8,2.5,2.5,0,0,0-2.53-2.53,2.62,2.62,0,0,0-2.43,1.72,1.41,1.41,0,0,1-1,.81,1.17,1.17,0,0,1-1.21-.51,2.65,2.65,0,0,0-2-1,2.61,2.61,0,0,0-2.42,1.72,1.42,1.42,0,0,1-1,.81,1.15,1.15,0,0,1-1.21-.51,2.63,2.63,0,0,0-2-1,2.34,2.34,0,0,0-2.23,1.42,1.21,1.21,0,0,1-1,.7,1.45,1.45,0,0,1-1.11-.5,1.63,1.63,0,0,0-1.32-.61,1.6,1.6,0,0,0-1.11.51,1.66,1.66,0,0,1-1.21.2,1.19,1.19,0,0,1-.91-.91,2.5,2.5,0,0,0-2.43-1.82,2.54,2.54,0,0,0-2.53,2.43,1.18,1.18,0,0,1-.81,1.11,1.27,1.27,0,0,1-1.32-.2,1.41,1.41,0,0,0-1-.41A1.6,1.6,0,0,0,31,77.69a1.32,1.32,0,0,1-2.63,0,4.32,4.32,0,0,1,5.26-4,5.17,5.17,0,0,1,4.66-3,4.85,4.85,0,0,1,4.15,2.22,4.06,4.06,0,0,1,1.51-.3,4.22,4.22,0,0,1,2.13.61,5.2,5.2,0,0,1,3.64-1.52,5.67,5.67,0,0,1,2.83.81,5,5,0,0,1,3.85-1.82,5.67,5.67,0,0,1,2.83.81A5,5,0,0,1,63,69.6a5.08,5.08,0,0,1,5.06,4.75,4.18,4.18,0,0,1,3.84,4.15A1.7,1.7,0,0,1,70.51,79.81Z"/></g></g></g></svg>