<svg xmlns="http://www.w3.org/2000/svg" viewBox="0 0 101.16 101.16"><defs><style>.cls-1{fill:#fff;}.cls-2{fill:#9bc9ff;}.cls-3{fill:#1e81ce;}</style></defs><g id="Layer_2" data-name="Layer 2"><g id="_1" data-name="1"><rect class="cls-1" width="101.16" height="101.16"/><g id="B73_Business_Clipboard_Paper" data-name="B73, Business, Clipboard, Paper"><path class="cls-2" d="M65.55,29.23A3.41,3.41,0,0,1,69,32.67V75.06a3.41,3.41,0,0,1-3.44,3.44H34.6a3.41,3.41,0,0,1-3.44-3.44V32.67a3.41,3.41,0,0,1,3.44-3.44Z"/><path class="cls-1" d="M23.57,70.91A2.53,2.53,0,1,1,21,73.44,2.5,2.5,0,0,1,23.57,70.91Z"/><path class="cls-1" d="M25.39,34.29a1.93,1.93,0,0,1,0,3.85,1.86,1.86,0,0,1-1.92-1.93A1.92,1.92,0,0,1,25.39,34.29Z"/><path class="cls-1" d="M76,24.18a3.14,3.14,0,1,1-3.14,3.13A3.15,3.15,0,0,1,76,24.18Z"/><path class="cls-1" d="M60.39,26.5a3.73,3.73,0,0,1,1.11,2.73,3.84,3.84,0,0,1-3.84,3.85H42.49A3.93,3.93,0,0,1,39.76,32a3.75,3.75,0,0,1-1.12-2.74,3.84,3.84,0,0,1,3.85-3.84h3.84a3.85,3.85,0,0,1,7.69,0h3.64A3.94,3.94,0,0,1,60.39,26.5Z"/><path class="cls-1" d="M53.92,51.89v-10a2.5,2.5,0,0,0-2.53-2.53H38.74a2.51,2.51,0,0,0-2.53,2.53v10a2.51,2.51,0,0,0,2.53,2.53H51.29A2.53,2.53,0,0,0,53.92,51.89Z"/><path class="cls-1" d="M53.92,41.88v10a2.5,2.5,0,0,1-2.53,2.53H38.74a2.51,2.51,0,0,1-2.53-2.53v-10a2.51,2.51,0,0,1,2.53-2.53H51.29A2.59,2.59,0,0,1,53.92,41.88Z"/><path class="cls-3" d="M65.55,79.81H34.6a4.75,4.75,0,0,1-4.76-4.75V32.67a4.75,4.75,0,0,1,4.76-4.75h4.14a1.32,1.32,0,1,1,0,2.63H34.6a2.25,2.25,0,0,0-2.23,2.23V75.16a2.25,2.25,0,0,0,2.23,2.23H65.55a2.25,2.25,0,0,0,2.23-2.23V32.67a2.25,2.25,0,0,0-2.23-2.22H61.4a1.32,1.32,0,0,1,0-2.63h4.15a4.75,4.75,0,0,1,4.76,4.75V75A4.77,4.77,0,0,1,65.55,79.81Z"/><path class="cls-3" d="M57.66,34.29H42.49A4.73,4.73,0,0,1,39,32.78a5.19,5.19,0,0,1-1.52-3.55,5,5,0,0,1,5.06-5.05h2.73a5.08,5.08,0,0,1,4.85-3.85,5,5,0,0,1,4.86,3.85h2.73a4.73,4.73,0,0,1,3.54,1.51,5.16,5.16,0,0,1,1.52,3.54A5.07,5.07,0,0,1,57.66,34.29ZM42.49,26.71A2.5,2.5,0,0,0,40,29.23a2.91,2.91,0,0,0,.71,1.83,2.44,2.44,0,0,0,1.82.7H57.66a2.5,2.5,0,0,0,2.53-2.53,2.9,2.9,0,0,0-.71-1.82,2.44,2.44,0,0,0-1.82-.7H53.82a1.35,1.35,0,0,1-1.32-1.32,2.53,2.53,0,0,0-5.06,0,1.34,1.34,0,0,1-1.31,1.32Z"/><path class="cls-3" d="M23.57,77.29a3.85,3.85,0,1,1,3.84-3.85A4,4,0,0,1,23.57,77.29Zm0-5.06a1.32,1.32,0,1,0,1.32,1.31A1.41,1.41,0,0,0,23.57,72.23Z"/><path class="cls-3" d="M25.39,39.35a3.14,3.14,0,1,1,3.14-3.14A3.16,3.16,0,0,1,25.39,39.35Zm0-3.84a.61.61,0,1,0,.61.6A.58.58,0,0,0,25.39,35.51Z"/><path class="cls-3" d="M76,31.76a4.45,4.45,0,1,1,4.45-4.45A4.49,4.49,0,0,1,76,31.76Zm0-6.37a1.92,1.92,0,1,0,1.92,1.92A1.86,1.86,0,0,0,76,25.39Z"/><path class="cls-3" d="M51.29,55.74H38.74a3.84,3.84,0,0,1-3.84-3.85v-10A3.84,3.84,0,0,1,38.74,38H51.29a3.84,3.84,0,0,1,3.84,3.84v10A3.84,3.84,0,0,1,51.29,55.74ZM38.74,40.56a1.34,1.34,0,0,0-1.31,1.32v10a1.34,1.34,0,0,0,1.31,1.32H51.29a1.34,1.34,0,0,0,1.31-1.32v-10a1.34,1.34,0,0,0-1.31-1.32Z"/><path class="cls-3" d="M64,40.56H57.66a1.32,1.32,0,0,1,0-2.63H64a1.35,1.35,0,0,1,1.32,1.32A1.41,1.41,0,0,1,64,40.56Z"/><path class="cls-3" d="M64,44.41H57.66a1.32,1.32,0,0,1,0-2.63H64a1.34,1.34,0,0,1,1.32,1.31A1.42,1.42,0,0,1,64,44.41Z"/><path class="cls-3" d="M64,48.15H57.66a1.32,1.32,0,0,1,0-2.63H64a1.35,1.35,0,0,1,1.32,1.32A1.42,1.42,0,0,1,64,48.15Z"/><path class="cls-3" d="M64,52H57.66a1.32,1.32,0,0,1,0-2.63H64a1.34,1.34,0,0,1,1.32,1.31A1.5,1.5,0,0,1,64,52Z"/><path class="cls-3" d="M64,55.74H57.66a1.32,1.32,0,0,1,0-2.63H64a1.34,1.34,0,0,1,1.32,1.31A1.42,1.42,0,0,1,64,55.74Z"/><path class="cls-3" d="M64,59.58H36.21a1.32,1.32,0,0,1,0-2.63H64a1.35,1.35,0,0,1,1.32,1.32A1.41,1.41,0,0,1,64,59.58Z"/><path class="cls-3" d="M64,63.33H36.21a1.32,1.32,0,0,1,0-2.63H64A1.34,1.34,0,0,1,65.35,62,1.42,1.42,0,0,1,64,63.33Z"/><path class="cls-3" d="M64,67.17H36.21a1.32,1.32,0,0,1,0-2.63H64a1.34,1.34,0,0,1,1.32,1.31A1.5,1.5,0,0,1,64,67.17Z"/><path class="cls-3" d="M64,70.91H36.21a1.32,1.32,0,0,1,0-2.63H64a1.35,1.35,0,0,1,1.32,1.32A1.4,1.4,0,0,1,64,70.91Z"/><path class="cls-3" d="M64,74.76H36.21a1.32,1.32,0,0,1,0-2.63H64a1.34,1.34,0,0,1,1.32,1.31A1.5,1.5,0,0,1,64,74.76Z"/></g></g></g></svg>