<svg xmlns="http://www.w3.org/2000/svg" viewBox="0 0 101.16 101.16"><defs><style>.cls-1{fill:#fff;}.cls-2{fill:#9bc9ff;}.cls-3{fill:#1e81ce;}</style></defs><g id="Layer_2" data-name="Layer 2"><g id="_1" data-name="1"><rect class="cls-1" width="101.16" height="101.16"/><g id="B71_Award_Cup_Winner" data-name="B71, Award, Cup, Winner"><path class="cls-2" d="M34.29,22.25l.61,6.28,1.72,17.8a5,5,0,0,0,.2,1.21A12.89,12.89,0,0,0,49.37,57.66a12.62,12.62,0,0,0,8.49-3.24,12.88,12.88,0,0,0,4-6.88c.1-.4.1-.8.2-1.21l1.72-17.8.61-6.38H34.29Z"/><path class="cls-1" d="M27.31,60.19a1.92,1.92,0,1,1-1.92,1.92A1.92,1.92,0,0,1,27.31,60.19Z"/><path class="cls-1" d="M72.83,66.56a1.92,1.92,0,0,1,1.93,1.92,1.84,1.84,0,0,1-1.93,1.83,1.92,1.92,0,0,1-1.92-1.93A1.9,1.9,0,0,1,72.83,66.56Z"/><path class="cls-1" d="M69.09,50.07A3.14,3.14,0,1,1,66,53.21,3.15,3.15,0,0,1,69.09,50.07Z"/><path class="cls-1" d="M72.23,77.89H26.71a5,5,0,0,1,1.51-3.54,5.16,5.16,0,0,1,3.54-1.52H67.27A5.06,5.06,0,0,1,72.23,77.89Z"/><path class="cls-2" d="M58.27,67.78a5,5,0,0,1,3.54,1.51,5.16,5.16,0,0,1,1.52,3.54H35.51A5,5,0,0,1,37,69.29a5.15,5.15,0,0,1,3.54-1.51,2.51,2.51,0,0,0,2.53-2.53V62.72H55.74v2.53a2.88,2.88,0,0,0,.71,1.82A2.3,2.3,0,0,0,58.27,67.78Z"/><path class="cls-1" d="M57.56,58.37a2.41,2.41,0,0,1,.71,1.82,2.51,2.51,0,0,1-2.53,2.53H43.09A2.9,2.9,0,0,1,41.27,62a2.46,2.46,0,0,1-.71-1.82,2.51,2.51,0,0,1,2.53-2.53H55.84A2.84,2.84,0,0,1,57.56,58.37Z"/><polygon class="cls-1" points="57.05 38.74 52.3 42.18 54.12 47.65 49.47 44.31 44.71 47.65 46.53 42.18 41.88 38.74 47.65 38.74 49.47 33.18 51.19 38.74 57.05 38.74"/><path class="cls-3" d="M72.23,79.21H26.71a1.35,1.35,0,0,1-1.32-1.32,6.56,6.56,0,0,1,1.82-4.45,6.3,6.3,0,0,1,4.45-1.82h3.85a1.32,1.32,0,0,1,0,2.63H31.66a4.13,4.13,0,0,0-2.73,1.11A4.31,4.31,0,0,0,28,76.78H70.61a3.71,3.71,0,0,0-3.54-2.53H63.22a1.32,1.32,0,0,1,0-2.63h3.85A6.41,6.41,0,0,1,73.44,78,1.23,1.23,0,0,1,72.23,79.21Z"/><path class="cls-3" d="M63.33,74.15H35.51a1.35,1.35,0,0,1-1.32-1.32A6.56,6.56,0,0,1,36,68.38a6.31,6.31,0,0,1,4.45-1.82,1.34,1.34,0,0,0,1.32-1.31V62.72a1.32,1.32,0,1,1,2.63,0v2.53a3.84,3.84,0,0,1-3.85,3.84,4.13,4.13,0,0,0-2.73,1.11,4.47,4.47,0,0,0-.91,1.42H61.81a4.31,4.31,0,0,0-.91-1.42,3.94,3.94,0,0,0-2.73-1.11A4,4,0,0,1,55.44,68a3.91,3.91,0,0,1-1.12-2.73V62.72a1.32,1.32,0,1,1,2.63,0v2.53a1.23,1.23,0,0,0,.41.91,1.27,1.27,0,0,0,.91.4,6.56,6.56,0,0,1,4.45,1.82,6.31,6.31,0,0,1,1.82,4.45A1.2,1.2,0,0,1,63.33,74.15Z"/><path class="cls-3" d="M55.74,64H43.09a4.09,4.09,0,0,1-2.73-1.11,3.9,3.9,0,0,1-1.11-2.73,3.84,3.84,0,0,1,3.84-3.84H55.74a4.09,4.09,0,0,1,2.73,1.11,3.51,3.51,0,0,1,1.11,2.73A3.84,3.84,0,0,1,55.74,64ZM43.09,59a1.33,1.33,0,0,0-1.31,1.31,1.24,1.24,0,0,0,.4.91,1.32,1.32,0,0,0,.91.41H55.74a1.34,1.34,0,0,0,1.31-1.32,1.24,1.24,0,0,0-.4-.91,1.52,1.52,0,0,0-.91-.4Z"/><path class="cls-3" d="M49.47,59A14.18,14.18,0,0,1,35.61,47.85a7.07,7.07,0,0,1-.2-1.32h0L33,22.46a1.7,1.7,0,0,1,.3-1,1.09,1.09,0,0,1,.91-.41H64.54a1,1,0,0,1,.91.41,1.22,1.22,0,0,1,.3,1L63.53,46.53h0c-.1.41-.1.81-.2,1.32a14.29,14.29,0,0,1-4.46,7.59A14.67,14.67,0,0,1,49.47,59ZM37.93,46.23a3.64,3.64,0,0,0,.21,1,11.69,11.69,0,0,0,11.33,9.11,11.4,11.4,0,0,0,7.68-2.94,11.62,11.62,0,0,0,3.65-6.27c.1-.3.1-.71.2-1l2.22-22.66H35.71Z"/><path class="cls-3" d="M36.82,48.86h-.3A15.71,15.71,0,0,1,25.39,36.21l-1.11-7.38a1,1,0,0,1,.3-1,1.11,1.11,0,0,1,.91-.41h8.9a1.32,1.32,0,1,1,0,2.63H27l.91,5.87a13.22,13.22,0,0,0,9.31,10.62,1.34,1.34,0,0,1,.91,1.52A1.85,1.85,0,0,1,36.82,48.86Z"/><path class="cls-3" d="M27.31,65.25a3.14,3.14,0,1,1,3.14-3.14A3.15,3.15,0,0,1,27.31,65.25Zm0-3.75a.65.65,0,0,0-.6.61.61.61,0,1,0,1.21,0A.66.66,0,0,0,27.31,61.5Z"/><path class="cls-3" d="M72.83,71.62A3.14,3.14,0,1,1,76,68.48,3.23,3.23,0,0,1,72.83,71.62Zm0-3.84a.61.61,0,1,0,.61.6A.65.65,0,0,0,72.83,67.78Z"/><path class="cls-3" d="M69.09,57.66a4.45,4.45,0,1,1,4.45-4.45A4.49,4.49,0,0,1,69.09,57.66Zm0-6.27a1.92,1.92,0,0,0-1.92,1.92,1.86,1.86,0,0,0,1.92,1.92,1.92,1.92,0,1,0,0-3.84Z"/><path class="cls-3" d="M44.71,49a1.52,1.52,0,0,1-.71-.2,1.5,1.5,0,0,1-.5-1.42L45,42.69l-4-2.83a1.51,1.51,0,0,1-.51-1.42,1.31,1.31,0,0,1,1.22-.91h4.85l1.52-4.65A1.3,1.3,0,0,1,49.37,32a1.27,1.27,0,0,1,1.21.91l1.52,4.65H57a1.28,1.28,0,0,1,1.22.91,1.17,1.17,0,0,1-.51,1.42l-3.94,2.83,1.51,4.65a1.16,1.16,0,0,1-.5,1.42,1.39,1.39,0,0,1-1.52,0l-4-2.83-3.74,2.83A2.35,2.35,0,0,1,44.71,49Zm4.76-6a1.45,1.45,0,0,1,.7.2l1.52,1.12-.6-1.82a1.16,1.16,0,0,1,.5-1.42L53.11,40H51.19A1.28,1.28,0,0,1,50,39.05l-.6-1.82-.61,1.82a1.32,1.32,0,0,1-1.22.91H45.62l1.52,1.11a1.5,1.5,0,0,1,.51,1.42L47,44.31l1.52-1.12A3.68,3.68,0,0,1,49.47,43Z"/><path class="cls-3" d="M58.27,69.09h-8.9a1.32,1.32,0,1,1,0-2.63h8.9a1.32,1.32,0,0,1,0,2.63Z"/><path class="cls-3" d="M74.45,27.72a1.79,1.79,0,0,0-1-.41H63.83v2.53h8.09L71,35.71a13.24,13.24,0,0,1-9.3,10.62,1.32,1.32,0,0,0-.91,1.52,1.41,1.41,0,0,0,1.21.91h.3A15.71,15.71,0,0,0,73.44,36.11l1.11-7.38A.9.9,0,0,0,74.45,27.72Z"/></g></g></g></svg>