<svg xmlns="http://www.w3.org/2000/svg" viewBox="0 0 101.16 101.16"><defs><style>.cls-1{fill:#fff;}.cls-2{fill:#9bc9ff;}.cls-3{fill:#1e81ce;}</style></defs><g id="Layer_2" data-name="Layer 2"><g id="_1" data-name="1"><rect class="cls-1" width="101.16" height="101.16"/><g id="B51_Businessman_Man_Profile" data-name="B51, Businessman, Man, Profile"><rect class="cls-1" x="26.39" y="27.14" width="6.17" height="7.28" transform="translate(-13.14 29.86) rotate(-45)"/><polygon class="cls-1" points="34.29 43.7 29.13 48.86 24.78 44.51 24.78 44.51 29.94 39.35 34.29 43.7"/><rect class="cls-1" x="67.59" y="40.43" width="6.17" height="7.28" transform="translate(-10.46 62.88) rotate(-45)"/><rect class="cls-1" x="66.98" y="27.73" width="7.28" height="6.17" transform="translate(-1.1 58.96) rotate(-45)"/><polygon class="cls-1" points="31.36 23.77 22.56 32.57 21.65 22.86 31.36 23.77"/><polygon class="cls-1" points="31.36 51.09 21.65 52 22.56 42.28 24.78 44.51 31.36 51.09"/><polygon class="cls-1" points="77.59 42.28 78.5 52 68.79 51.09 77.59 42.28"/><polygon class="cls-1" points="78.5 22.86 77.59 32.57 68.79 23.77 78.5 22.86"/><polygon class="cls-2" points="43.09 52 50.17 61.61 46.94 67.17 40.87 54.83 43.09 52"/><polygon class="cls-2" points="57.05 52 59.48 54.83 53.21 67.17 50.17 61.61 57.05 52"/><path class="cls-2" d="M64.64,77.29H27.92V63.12a5,5,0,0,1,3.34-4.75L37.73,56l3-1.21,6,12.34,3.33-5.56,3,5.56,6.17-12.34,9.51,3.54a5,5,0,0,1,3.34,4.75V77.29Z"/><path class="cls-1" d="M61.61,29.64l-.11,3.14v.1L57,30.65a2.89,2.89,0,0,1-2.63,1.72H41.78a3.62,3.62,0,0,1-2.43-.91,5.14,5.14,0,0,1-2-4.05V23H53.92a3.66,3.66,0,0,1,2.93,2,.76.76,0,0,1,.2.5Z"/><path class="cls-2" d="M41.78,32.27H54.32A2.89,2.89,0,0,0,57,30.55l4.55,2.23v-.11a4.11,4.11,0,0,1,.21,1c0,6.27-4.05,17.4-11.33,17.4S39.05,40,39.05,33.69a10.1,10.1,0,0,1,.3-2.43A3.14,3.14,0,0,0,41.78,32.27Z"/><rect class="cls-3" x="77.29" y="73.44" width="2.53" height="2.53"/><rect class="cls-3" x="77.29" y="68.38" width="2.53" height="2.53"/><rect class="cls-3" x="77.29" y="63.33" width="2.53" height="2.53"/><rect class="cls-3" x="74.76" y="75.97" width="2.53" height="2.53"/><rect class="cls-3" x="74.76" y="70.91" width="2.53" height="2.53"/><rect class="cls-3" x="74.76" y="65.85" width="2.53" height="2.53"/><rect class="cls-3" x="22.86" y="73.44" width="2.53" height="2.53"/><rect class="cls-3" x="22.86" y="68.38" width="2.53" height="2.53"/><rect class="cls-3" x="22.86" y="63.33" width="2.53" height="2.53"/><rect class="cls-3" x="20.33" y="75.97" width="2.53" height="2.53"/><rect class="cls-3" x="20.33" y="70.91" width="2.53" height="2.53"/><rect class="cls-3" x="20.33" y="65.85" width="2.53" height="2.53"/><path class="cls-3" d="M35.51,78.5H27.92a1.35,1.35,0,0,1-1.32-1.32V63a6.48,6.48,0,0,1,4.15-6l6.48-2.32,3-1.22a1.23,1.23,0,0,1,1.62.71,1.32,1.32,0,0,1-.71,1.62l-3,1.21h0l-6.48,2.33a3.72,3.72,0,0,0-2.53,3.54V75.77h6.38a1.34,1.34,0,0,1,1.31,1.31A1.31,1.31,0,0,1,35.51,78.5Z"/><path class="cls-3" d="M72.23,78.5H64.64a1.32,1.32,0,0,1,0-2.63H71V63a3.76,3.76,0,0,0-2.42-3.54l-9.51-3.54a1.22,1.22,0,0,1-.71-1.62A1.24,1.24,0,0,1,60,53.61l9.51,3.54A6.36,6.36,0,0,1,73.64,63V77.18A1.49,1.49,0,0,1,72.23,78.5Z"/><path class="cls-3" d="M64.64,78.5H35.51a1.35,1.35,0,0,1-1.32-1.32V65.85a1.32,1.32,0,0,1,2.63,0V76H63.43V65.85a1.32,1.32,0,0,1,2.63,0V77.29A1.51,1.51,0,0,1,64.64,78.5Z"/><path class="cls-3" d="M53.21,68.38a1.15,1.15,0,0,1-1.11-.6l-3-5.57a1.25,1.25,0,0,1,.1-1.31L56,51.29a1.23,1.23,0,0,1,1-.51,1.15,1.15,0,0,1,1,.41L60.49,54a1.42,1.42,0,0,1,.21,1.42L54.52,67.78a1.76,1.76,0,0,1-1.31.6Zm-1.52-6.67,1.52,2.73L58,55l-.81-1Z"/><path class="cls-3" d="M46.94,68.38h0a1.23,1.23,0,0,1-1.11-.7l-6-12.35A1.21,1.21,0,0,1,40,54l2.22-2.83a1.25,1.25,0,0,1,1-.51h0a1.25,1.25,0,0,1,1,.51l7.08,9.61a1.41,1.41,0,0,1,.1,1.41L48,67.78A1.11,1.11,0,0,1,46.94,68.38ZM42.39,55,47,64.54l1.62-2.83-5.57-7.59Z"/><path class="cls-3" d="M50.38,52.5c-3.75,0-7.08-2.53-9.51-7a26.07,26.07,0,0,1-3.14-11.63A10.65,10.65,0,0,1,38,31.26a1.28,1.28,0,0,1,2.52.5,7.7,7.7,0,0,0-.2,2.13,23.89,23.89,0,0,0,2.83,10.52C44.61,47,47,50.07,50.48,50.07s5.87-3.13,7.28-5.66a23.75,23.75,0,0,0,2.83-10.52,2,2,0,0,0-.1-.71,1.25,1.25,0,0,1,2.43-.61,3.74,3.74,0,0,1,.2,1.42A25.72,25.72,0,0,1,60,45.62C57.46,50,54.12,52.5,50.38,52.5Z"/><path class="cls-3" d="M61.61,34.09a.77.77,0,0,1-.51-.1l-3.64-1.72a4.38,4.38,0,0,1-3,1.31H41.78a5.68,5.68,0,0,1-3.24-1.11A6.66,6.66,0,0,1,36,27.41V23a1.34,1.34,0,0,1,1.32-1.31H53.92a4.89,4.89,0,0,1,3.94,2.63c.1.2.2.3.31.5l4.35,3.95a1.1,1.1,0,0,1,.4.91l-.1,3.24a1.11,1.11,0,0,1-.61,1A1.42,1.42,0,0,1,61.61,34.09ZM38.54,24.18v3.13a4,4,0,0,0,1.52,3,2.69,2.69,0,0,0,1.72.6H54.32a1.76,1.76,0,0,0,1.52-1,1.3,1.3,0,0,1,1.72-.6l2.83,1.41v-.6L56.14,26.3a.55.55,0,0,1-.3-.5v-.11c0-.1-.1-.1-.1-.2a2.19,2.19,0,0,0-1.82-1.41H38.54Z"/><path class="cls-3" d="M77.59,33.89a1.22,1.22,0,0,1-.91-.41l-8.8-8.8a1.26,1.26,0,0,1-.31-1.31,1.19,1.19,0,0,1,1.12-.81l9.71-.91a1.3,1.3,0,0,1,1,.4,1.32,1.32,0,0,1,.4,1l-.91,9.72a1.34,1.34,0,0,1-.8,1.11Zm-6-9.11,5,5,.5-5.56Z"/><path class="cls-3" d="M70.2,36.82a1.26,1.26,0,0,1-.91-.4l-4.35-4.35a1.52,1.52,0,0,1-.4-.91,1.23,1.23,0,0,1,.4-.91l5.16-5.16a1.27,1.27,0,0,1,1.82,0l4.35,4.35a1.45,1.45,0,0,1,.41.91,1.23,1.23,0,0,1-.41.91l-5.16,5.16A1.09,1.09,0,0,1,70.2,36.82Zm-2.52-5.66,2.52,2.53,3.34-3.34L71,27.82Z"/><path class="cls-3" d="M78.5,53.21h-.1l-9.71-.91a1.37,1.37,0,0,1-1.12-.81,1.23,1.23,0,0,1,.31-1.32l8.8-8.8a1.28,1.28,0,0,1,1.31-.3,1.18,1.18,0,0,1,.81,1.11l.91,9.71a1.33,1.33,0,0,1-.4,1C79.21,53.11,78.9,53.21,78.5,53.21Zm-6.88-3.14,5.56.51L76.68,45Z"/><path class="cls-3" d="M71,50.07a1.26,1.26,0,0,1-.91-.4l-5.16-5.16a1.52,1.52,0,0,1-.4-.91,1.24,1.24,0,0,1,.4-.91l4.35-4.35a1.27,1.27,0,0,1,1.82,0l5.16,5.16a1.47,1.47,0,0,1,.41.91,1.22,1.22,0,0,1-.41.91l-4.35,4.35A1.23,1.23,0,0,1,71,50.07ZM67.68,43.7,71,47l2.53-2.53L70.2,41.17Z"/><path class="cls-3" d="M22.56,33.89a.63.63,0,0,1-.41-.1,1.2,1.2,0,0,1-.81-1.12L20.43,23a1.38,1.38,0,0,1,1.42-1.41l9.71.91a1.32,1.32,0,0,1,1.11.81,1,1,0,0,1-.3,1.31l-8.8,8.8A1.35,1.35,0,0,1,22.56,33.89Zm.5-9.61.51,5.56,5-4.95Z"/><path class="cls-3" d="M29.94,36.82a1.26,1.26,0,0,1-.91-.4l-5.16-5.16a1.29,1.29,0,0,1,0-1.82l4.35-4.35a1.27,1.27,0,0,1,1.82,0l5.16,5.16a1.27,1.27,0,0,1,0,1.82l-4.35,4.35A1.23,1.23,0,0,1,29.94,36.82ZM26.6,30.35l3.34,3.34,2.53-2.53-3.34-3.34Z"/><path class="cls-3" d="M21.65,53.21a1.23,1.23,0,0,1-.91-.4,1.3,1.3,0,0,1-.41-1l.91-9.71A1.35,1.35,0,0,1,22.05,41a1.25,1.25,0,0,1,1.32.3l8.8,8.8a1.29,1.29,0,0,1,.3,1.32,1.18,1.18,0,0,1-1.11.81l-9.71.91C21.75,53.21,21.65,53.21,21.65,53.21ZM23.57,45l-.51,5.56,5.57-.51Z"/><path class="cls-3" d="M29.13,50.07a1.26,1.26,0,0,1-.91-.4l-4.35-4.35a1.52,1.52,0,0,1-.4-.91,1.1,1.1,0,0,1,.4-.91L29,38.34a1.27,1.27,0,0,1,1.82,0l4.35,4.35a1.27,1.27,0,0,1,0,1.82L30,49.67A1.23,1.23,0,0,1,29.13,50.07ZM26.6,44.51,29.13,47l3.34-3.34-2.53-2.53Z"/></g></g></g></svg>