<svg xmlns="http://www.w3.org/2000/svg" viewBox="0 0 169.84 131.06"><defs><style>.cls-1{fill:#425bc0;}.cls-2{fill:#263e56;}.cls-3{fill:#a6bbe3;}.cls-4{fill:#e8f0ff;}.cls-5{fill:#fff;}.cls-6{fill:#ff6e47;}.cls-7{fill:#333;}.cls-8{fill:#ff9b80;}</style></defs><g id="Layer_2" data-name="Layer 2"><g id="Layer"><path class="cls-1" d="M46.73,3.91c-.5,1.39-2.68,1.81-3.9,2.11a27.62,27.62,0,0,0-11.75,6.31,6.86,6.86,0,0,1-4.54,1.78c-2.67,0-4.57-2.34-5.08-4.84a6.31,6.31,0,0,1,0-2.41,5.9,5.9,0,0,1,2.46-3.53,13.49,13.49,0,0,1,4-1.75A33.88,33.88,0,0,1,43.67.92l.74.16C45.7,1.36,47.31,2.32,46.73,3.91Z"/><path class="cls-2" d="M46.73,3.91c-.5,1.39-2.68,1.81-3.9,2.11a27.62,27.62,0,0,0-11.75,6.31,6.86,6.86,0,0,1-4.54,1.78c-2.67,0-4.57-2.34-5.08-4.84a3.18,3.18,0,0,0,1.43-.21c.66-.27,1.3-.79,2-.61A1.93,1.93,0,0,1,26,9.79a3.35,3.35,0,0,0,.86,1.58c.78.62,1.91.25,2.79-.2C32.81,9.54,35.55,7,39,6.06a2.82,2.82,0,0,0,1.44-.69,2.92,2.92,0,0,0,.45-.94.64.64,0,0,1,.06-.16A7.08,7.08,0,0,1,43.67.92l.74.16C45.7,1.36,47.31,2.32,46.73,3.91Z"/><path class="cls-3" d="M31.54,1.26A35.37,35.37,0,0,0,28.07,2a11.34,11.34,0,0,0-3.35,1.4c-.89.59-2.11,1.69-1.22,2.8a1.7,1.7,0,0,0,.91.52,9.46,9.46,0,0,0,4.42-.14c1.45-.3,2.89-.63,4.32-1a32.05,32.05,0,0,0,4.19-1.37,7.3,7.3,0,0,0,2.94-1.95.8.8,0,0,0,.23-.51c0-.32-.33-.54-.63-.66A7.91,7.91,0,0,0,36.46.67,39.07,39.07,0,0,0,31.54,1.26Z"/><path class="cls-4" d="M37.43.9A4.8,4.8,0,0,0,36.12.81a24.32,24.32,0,0,0-3.07.4,30.74,30.74,0,0,0-4.66,1.13c-.88.31-3.23,1-3.1,2.28.06.62,1,.64,1.45.67A17.23,17.23,0,0,0,37,2.61a2.83,2.83,0,0,0,.85-.72c.38-.53.11-.85-.43-1Z"/><path class="cls-5" d="M33.91,1.59c-.19.12-.39.31-.37.54a.53.53,0,0,0,.35.39,2,2,0,0,0,.84.07A3.78,3.78,0,0,0,37,1.87c.18-.15.33-.4.21-.6a.53.53,0,0,0-.4-.21A4.54,4.54,0,0,0,33.91,1.59Z"/><path class="cls-1" d="M59.08,17.78A5.64,5.64,0,0,1,56,17c-2.39-1.16-4.75-2.36-7.11-3.56h0l-.32-.16A24.66,24.66,0,0,1,43,9.84a5.25,5.25,0,0,1-1.58-3.27c-.19-1.83.86-3.17,2.1-4.36S46.37-.13,48.23,0a7.6,7.6,0,0,1,4.26,2.31A29,29,0,0,1,59,10.39c.23.45.6,1.15.95,1.94C60.89,14.55,61.71,17.48,59.08,17.78Z"/><path class="cls-3" d="M58.46,11.14A4.45,4.45,0,0,0,58,9.93a25.7,25.7,0,0,0-6.4-7.27A9.72,9.72,0,0,0,48.65.94a4,4,0,0,0-3.28.26c-1.42.89-.83,2.47-.09,3.61,1.63,2.53,4.27,4.22,6.87,5.74a28.66,28.66,0,0,0,3,1.57C56.19,12.56,58.88,13.09,58.46,11.14Z"/><path class="cls-4" d="M46.55,3.16a17.4,17.4,0,0,0,5.81,4.77,17.83,17.83,0,0,0,3.35,1.62c.28.09.64.13.8-.11a.43.43,0,0,0,.07-.25A3.81,3.81,0,0,0,55.71,7a11.16,11.16,0,0,0-1.66-1.91,19.21,19.21,0,0,0-5.7-4,2.13,2.13,0,0,0-2.05.12C45.78,1.75,46.21,2.66,46.55,3.16Z"/><path class="cls-5" d="M49.62,3.89c1.08,0,.18-1.25-.11-1.62a2.76,2.76,0,0,0-2.17-1.11c-.4,0-.9.14-.79.64a2.69,2.69,0,0,0,.74,1A3.56,3.56,0,0,0,49.62,3.89Z"/><path class="cls-2" d="M59.08,17.78A5.64,5.64,0,0,1,56,17c-2.39-1.16-4.75-2.36-7.11-3.56l.25.08,3,.91a4.12,4.12,0,0,0,3.37-.14c.79-.47,1.41-1,2.19-1.41a5.36,5.36,0,0,1,.88-.33,4.82,4.82,0,0,1,1.31-.18h0C60.89,14.55,61.71,17.48,59.08,17.78Z"/><path class="cls-1" d="M66.26,34.36a8.59,8.59,0,0,1-4.47-2.83c-.31-.33-.64-.65-1-1-.82-.84-1.67-1.7-2.51-2.59A24.87,24.87,0,0,1,54,22.08a6,6,0,0,1-.49-4.45A5.79,5.79,0,0,1,55,15.39a8.27,8.27,0,0,1,6.28-2.29c2.31.14,3.19,2.1,4,4.08a41.05,41.05,0,0,1,2.06,6.54c.19.81.38,1.62.53,2.43a26.49,26.49,0,0,1,.54,4.61C68.47,32.57,68.79,34.84,66.26,34.36Z"/><path class="cls-2" d="M66.26,34.36a8.59,8.59,0,0,1-4.47-2.83c-.31-.33-.64-.65-1-1a3.7,3.7,0,0,1,1.06-1A4.7,4.7,0,0,1,63.05,29a7.7,7.7,0,0,1,2.71-.2,2.33,2.33,0,0,0,1-.06c.66-.25.9-1,1-1.74,0-.3.09-.59.12-.89a26.49,26.49,0,0,1,.54,4.61C68.47,32.57,68.79,34.84,66.26,34.36Z"/><path class="cls-3" d="M59.61,24a12.25,12.25,0,0,0,1.82,2.17,7.2,7.2,0,0,0,2.69,1.49,1.78,1.78,0,0,0,2.46-1.44,14.61,14.61,0,0,0-.52-5.69c-1-3.19-3.92-8.18-8-6.18S58,21.64,59.61,24Z"/><path class="cls-4" d="M58.64,18.93a20.92,20.92,0,0,0,4.16,5.15,4.94,4.94,0,0,0,1.37.88,1.09,1.09,0,0,0,1,0,1.23,1.23,0,0,0,.4-.95,8.87,8.87,0,0,0-1-4.38,10.9,10.9,0,0,0-3-4c-.77-.6-2.48-1.52-3.35-.61C57.14,16.14,58,17.86,58.64,18.93Z"/><path class="cls-5" d="M60.83,18a.59.59,0,0,0,.32.06c.25,0,.35-.35.34-.61a2.56,2.56,0,0,0-.4-1.22c-.31-.5-2.2-2.18-2.43-.83C58.46,16.54,60,17.67,60.83,18Z"/><path class="cls-1" d="M59.16,33.35c-.72,2.43-3.1,3.12-5.33,2.42a54.58,54.58,0,0,1-13.3-6.41c-.68-.46-1.34-.93-2-1.41-2.34-1.8-4.16-4-3-6.73.86-1.9.61-5.11,2.57-6.36,2.59-1.67,7.36,1.49,9.42,3a41.35,41.35,0,0,1,8.92,8.7l.58.77a14.84,14.84,0,0,1,1.81,3.16A4.6,4.6,0,0,1,59.16,33.35Z"/><path class="cls-3" d="M42,25.29A30.41,30.41,0,0,0,48.45,28a20.94,20.94,0,0,0,5.68,1.15,1.75,1.75,0,0,0,.85-.12,1.36,1.36,0,0,0,.68-1.28,3.43,3.43,0,0,0-.49-1.44,23,23,0,0,0-6.4-7.12,15.06,15.06,0,0,0-4.47-2.59c-.69-.23-1.52-.5-2.14.05-.46.42-.25,1-.25,1.54a3.36,3.36,0,0,1-.78,2.1c-.61.74-1.84,1.2-1.61,2.3a3.17,3.17,0,0,0,1.42,2C41.29,24.87,41.64,25.09,42,25.29Z"/><path class="cls-4" d="M42.57,19.22c-.1.38-.37.69-.46,1.07a1.51,1.51,0,0,0,.31,1.22,4.11,4.11,0,0,0,.95.86,53.08,53.08,0,0,0,6.37,3.7A12.54,12.54,0,0,0,53,27.39a.94.94,0,0,0,.44,0,.67.67,0,0,0,.43-.64,2,2,0,0,0-.22-.79,19.73,19.73,0,0,0-5.77-7.06,10,10,0,0,0-3.65-2c-.68-.18-1.47-.14-1.71.64C42.33,18.1,42.71,18.64,42.57,19.22Z"/><path class="cls-5" d="M43.27,18.26a2.81,2.81,0,0,0,.82.75A11.87,11.87,0,0,0,46,20a3.3,3.3,0,0,0,1.22.36.49.49,0,0,0,.46-.71,3.59,3.59,0,0,0-1-1,8.4,8.4,0,0,0-2.5-1.47c-.37-.12-.82-.33-1.08.08A.9.9,0,0,0,43.27,18.26Z"/><path class="cls-2" d="M59.16,33.35c-.72,2.43-3.1,3.12-5.33,2.42a54.58,54.58,0,0,1-13.3-6.41,16.48,16.48,0,0,1,3.53,1l.49.21a9.91,9.91,0,0,0,4,1.25,25.34,25.34,0,0,0,5.23-1.09,14.32,14.32,0,0,1,5.18-.24A4.6,4.6,0,0,1,59.16,33.35Z"/><path class="cls-1" d="M41.06,17.38c-.19,1.42-1.52,2.6-2.49,3.53C38,21.43,37.51,22,37,22.54a29,29,0,0,0-3.67,5.13,62,62,0,0,1-3.23,5.45A5.94,5.94,0,0,1,28.27,35c-1.76,1-4.31,1.07-6.15,1.82-1.68.7-4.38,1.15-5.51-.91a3.26,3.26,0,0,1-.32-1.9,7.07,7.07,0,0,1,.27-1.37A27.4,27.4,0,0,1,23,22.13a26.54,26.54,0,0,1,7.16-5.86c2.38-1.24,7-2.74,9.61-1.12l.07,0A2.28,2.28,0,0,1,41.06,17.38Z"/><path class="cls-3" d="M18.8,29.27c-.1.64.52,1,1.06,1.15a3.61,3.61,0,0,0,1.26-.1,6.16,6.16,0,0,0,2.3-.78,36.43,36.43,0,0,0,3.39-2.06,29.19,29.19,0,0,0,7.35-6.28,6.38,6.38,0,0,0,1.51-3.55,2.31,2.31,0,0,0-.19-1.07,2.17,2.17,0,0,0-1.9-1.11,5.08,5.08,0,0,0-2.21.55,26.11,26.11,0,0,0-8.18,6.39C21.48,24.24,19.19,26.67,18.8,29.27Z"/><path class="cls-4" d="M32.87,17c-1.17-1.88-4.72,1.19-5.64,1.94a29.52,29.52,0,0,0-3.06,2.86,7.82,7.82,0,0,0-2,3.24,1.12,1.12,0,0,0,.11,1,1.07,1.07,0,0,0,.62.28A4.9,4.9,0,0,0,26,25.46a19,19,0,0,0,5.43-4.61,9.31,9.31,0,0,0,1.43-2.3A1.75,1.75,0,0,0,32.87,17Z"/><path class="cls-5" d="M26.87,21.07c.21.25.61.18.92.06a7.06,7.06,0,0,0,3.5-2.83,1.06,1.06,0,0,0,.22-.61c-.06-1-1.31-.59-1.82-.33a6.58,6.58,0,0,0-2,1.6C27.32,19.4,26.36,20.47,26.87,21.07Z"/><path class="cls-2" d="M41.06,17.38c-.19,1.42-1.52,2.6-2.49,3.53C38,21.43,37.51,22,37,22.54a29,29,0,0,0-3.67,5.13,62,62,0,0,1-3.23,5.45A5.94,5.94,0,0,1,28.27,35c-1.76,1-4.31,1.07-6.15,1.82-1.68.7-4.38,1.15-5.51-.91a3.26,3.26,0,0,1-.32-1.9,6.26,6.26,0,0,1,1.44-.72,21.49,21.49,0,0,1,2.54-.49,4.66,4.66,0,0,0,2.51-1.28,16.1,16.1,0,0,1,2.15-1.81,16.3,16.3,0,0,1,2.42-1.16A31.23,31.23,0,0,0,33,25.38c.29-.22.57-.44.83-.68A18,18,0,0,0,36,22.21c.7-.93,1.42-1.83,2.08-2.78a12.64,12.64,0,0,0,1.39-3,5.8,5.8,0,0,0,.28-1.3l.07,0A2.28,2.28,0,0,1,41.06,17.38Z"/><path class="cls-1" d="M22,37.82C20.12,42,16.39,46,13.48,49.5,12,51.29,10.31,53.13,8,53.64a7,7,0,0,1-3.13-.08A6.56,6.56,0,0,1,.4,50.18,3.68,3.68,0,0,1,.06,49.1a6.88,6.88,0,0,1,1.54-5c3.53-4.93,9.53-7.33,15.19-9.49A7.49,7.49,0,0,1,21,34.22C22.32,34.57,23,35.64,22,37.82Z"/><path class="cls-3" d="M2.26,45a1.52,1.52,0,0,0,.21,1.66,1.63,1.63,0,0,0,1.46.14,8.38,8.38,0,0,0,2.14-.9,17,17,0,0,0,2.68-2.11,39.24,39.24,0,0,0,5.83-6.19c.25-.35.73-1,.22-1.34-.92-.65-2.42.35-3.25.74A22.44,22.44,0,0,0,3,43.66,5.7,5.7,0,0,0,2.26,45Z"/><path class="cls-4" d="M4.46,43.61a.35.35,0,0,0,.24-.06A21.64,21.64,0,0,0,11.76,38c.14-.16.26-.4.12-.55a.39.39,0,0,0-.26-.07,2.08,2.08,0,0,0-.81.26,26.19,26.19,0,0,0-3.39,1.92,11.36,11.36,0,0,0-2.28,2.1C4.94,41.93,3.75,43.48,4.46,43.61Z"/><path class="cls-5" d="M9.23,38.67c-.13.16-.23.37,0,.43a.59.59,0,0,0,.26,0,3.43,3.43,0,0,0,1.32-.63c.15-.12.46-.37.43-.59s-.43-.11-.58-.06a5.07,5.07,0,0,0-1.27.7Z"/><path class="cls-2" d="M22,37.82C20.12,42,16.39,46,13.48,49.5,12,51.29,10.31,53.13,8,53.64a7,7,0,0,1-3.13-.08A6.56,6.56,0,0,1,.4,50.18a3.23,3.23,0,0,0,1.53-.33c.45-.22.71-.65,1.11-.93a2.4,2.4,0,0,1,2.17-.15,2.69,2.69,0,0,1,.59.29c.52.33,1,.78,1.51,1.13,1.42.92,2.17-1.07,2.58-2,.67-1.56,1.25-3.16,2-4.68a20.69,20.69,0,0,1,1.93-3.11,21.24,21.24,0,0,1,4.7-4.62A9.51,9.51,0,0,1,21,34.22C22.32,34.57,23,35.64,22,37.82Z"/><path class="cls-1" d="M50.82,44.89a14.59,14.59,0,0,1-5.28,1.85l-1.5.32c-5.31,1.18-12.26,2.94-16.8-.35A1.94,1.94,0,0,1,27,46.5c-3.07-2.41-3.51-6.83-3.44-10.72,0-1.93.21-4,1.49-5.45s3.65-1.85,5.72-1.9a28.41,28.41,0,0,1,16.74,4.64C51.39,35.79,56.71,41,50.82,44.89Z"/><path class="cls-2" d="M44,47.06c-5.31,1.18-12.26,2.94-16.8-.35-.09-1-.12-2.06-.14-3.09a4.08,4.08,0,0,1,.19-1.6,4.6,4.6,0,0,1,1.28-1.53c.46-.44.95-1.22,1.6-1.38,1.48-.37,1.52,1.79,1.5,2.71,0,.13,0,.26,0,.39.15,1.92,1.64,3.21,3.23,4a4.17,4.17,0,0,0,2.62.51C39.16,46.48,40.3,45,41,43.49A14.78,14.78,0,0,0,42.14,40c0,1.8.93,3.45,1.46,5.16A12,12,0,0,1,44,47.06Z"/><path class="cls-3" d="M32.4,35.4c.74,2,.5,4.15.92,6.21.27,1.35,1.07,2.83,2.44,3a2.83,2.83,0,0,0,2.6-1.49,10.36,10.36,0,0,0,1-3A12,12,0,0,1,42,35a1.91,1.91,0,0,0,.6-1.43,2.09,2.09,0,0,0-1-1.32,14.12,14.12,0,0,0-9.62-2.3,3.52,3.52,0,0,0-1.82.63,1.18,1.18,0,0,0-.47.74c-.06.5.44.75.74,1.06A9.24,9.24,0,0,1,32.4,35.4Z"/><path class="cls-4" d="M33.88,34.25c1.14,1.75.77,4.09,1.58,6a1,1,0,0,0,.57.66c.52.16.95-.44,1.09-1,.35-1.25.18-2.67.86-3.78a5.2,5.2,0,0,0,.9-1.46,2,2,0,0,0-.09-1.11,4.26,4.26,0,0,0-4.11-2.91,2,2,0,0,0-1.88,1C32.47,32.71,33.42,33.54,33.88,34.25Z"/><path class="cls-5" d="M33.57,32.25c0,.89.93,1.32,1.68,1.46.38.08.79.18,1-.2A1.34,1.34,0,0,0,36,32.07a2.64,2.64,0,0,0-1.29-.73C33.9,31.13,33.57,31.48,33.57,32.25Z"/><path class="cls-1" d="M117.3,73.75c-6.15,2.46-14.17,3.51-22,3.49-.89,0-1.78,0-2.67,0a76.91,76.91,0,0,1-8-.66,72.87,72.87,0,0,1-26.2-8.44C51.79,64.2,46.93,59.4,44,54.23a24.9,24.9,0,0,1-3.24-9.77c-.28-2.67-.06-5.57,1.54-7.82,2-2.82,5.39-3.44,8.55-4.12,12.81-2.76,28-4.32,40.65.31,7.15,2.62,14,6.59,19.26,12.2a37.84,37.84,0,0,1,9,15.9,41.44,41.44,0,0,1,1,4.3C121.32,69,120.78,72.36,117.3,73.75Z"/><path class="cls-6" d="M56,68.67A17.9,17.9,0,0,0,58.14,72a15.16,15.16,0,0,0,7,4.65,10.31,10.31,0,0,0,1,.29,12.45,12.45,0,0,0,4,.47c3.44-.22,6.38-2.23,9-4.3a3.65,3.65,0,0,1-2.38.27,18,18,0,0,1-2.34-1.13c-1.7-.87-3.31-1.94-5-2.87-1.49-.84-3-1.57-4.57-2.31s-3.2-1.51-4.85-2.1a11.8,11.8,0,0,0-3.52-.79c-.56,0-1,.28-1.56,0a1.65,1.65,0,0,1-.87-1.06c.07.49.16,1,.28,1.46A18.21,18.21,0,0,0,56,68.67Z"/><path class="cls-2" d="M64.62,68.52c-2.16-.65-4.44-.9-6.55-1.72a10.88,10.88,0,0,1-2.65-1.24,7.78,7.78,0,0,1-1-1c-.23-.24-.86-.69-1-1a10.44,10.44,0,0,0,4.13,4.9A31.64,31.64,0,0,0,69.28,74.1a44.63,44.63,0,0,0,9.39.7,8.74,8.74,0,0,1-2-.54A8.83,8.83,0,0,1,75,73.68c-1.13-.6-2.24-1.22-3.34-1.85A35.51,35.51,0,0,0,64.62,68.52Z"/><path class="cls-5" d="M62.12,54.44c.81,1.06,1.16,2.42,2,3.46,1.57,2,4.43,2.32,6.93,2s5-1.1,7.47-.83a8.94,8.94,0,0,1,3.89,1.39A13.89,13.89,0,0,1,87.21,67c1,2.54,1.74,5.21,2.92,7.69a11,11,0,0,0-1.89-2.94c-2.5-3-5.51-5.85-9.28-6.88-2.73-.75-5.61-.49-8.43-.79a21.58,21.58,0,0,1-13.47-6.78,11.68,11.68,0,0,1-2.32-3.65.53.53,0,0,1,0-.17c0-.15.17-.22.31-.27C57.48,52.41,60.33,52.14,62.12,54.44Z"/><path class="cls-2" d="M117.3,73.75c-6.15,2.46-14.17,3.51-22,3.49-.89,0-1.78,0-2.67,0,5.59-1.41,11.29-2.38,16.87-4,2.72-.78,5.55-1.72,7.5-3.77a11,11,0,0,0,2.68-6.92c0-.53,0-1,0-1.58a41.44,41.44,0,0,1,1,4.3C121.32,69,120.78,72.36,117.3,73.75Z"/><path class="cls-1" d="M127.8,87.86A9.59,9.59,0,0,1,123.88,94a26.43,26.43,0,0,1-3.5,2.35c-1.67,1-3.54,1.9-5.43,1.53s-3.47-2.17-4.58-3.91a28.44,28.44,0,0,1-4.66-16.73c.31-4.78,2-12,8.4-9a14.74,14.74,0,0,1,4.3,3.58c1.69,1.82,3.85,3.92,5.68,6.24C126.43,81,128.24,84.34,127.8,87.86Z"/><path class="cls-2" d="M127.8,87.86A9.59,9.59,0,0,1,123.88,94a3.22,3.22,0,0,1-.9-.66c-.52-.51-.93-1.13-1.45-1.65a7.17,7.17,0,0,0-3.38-1.85,13.29,13.29,0,0,0-3.88-.31,13.75,13.75,0,0,1,7.54-2.57,12.44,12.44,0,0,0,2-.12c1.34-.28,1.6-1,1.72-2.25a9.71,9.71,0,0,0-.37-3.64,18.57,18.57,0,0,0-1.1-2.88C126.43,81,128.24,84.34,127.8,87.86Z"/><path class="cls-3" d="M107.78,72.51a44.21,44.21,0,0,0,0,8.76c.23,2,0,4.9,2.18,5.84a4.3,4.3,0,0,0,2.28.22,9.38,9.38,0,0,0,3.44-1.14,28.51,28.51,0,0,1,2.71-1.62,3.84,3.84,0,0,1,3.17.25c1.4.55,2.85.1,2.87-1.62a5.32,5.32,0,0,0-.44-1.88c-1.66-4.16-4.72-7.59-7.85-10.8a6.47,6.47,0,0,0-3.55-2.28A4.43,4.43,0,0,0,107.78,72.51Z"/><path class="cls-4" d="M108.82,76.06a33.44,33.44,0,0,0,.5,5.38,4.17,4.17,0,0,0,1.26,2.4,3.45,3.45,0,0,0,3.16.5,13,13,0,0,0,2-1,10.78,10.78,0,0,1,2.86-.64c2.11-.3,1.77-2.73,1.25-4.26a15,15,0,0,0-3.2-5.33c-1.25-1.35-3.45-3.48-5.44-3.41C108.25,69.77,108.75,74.17,108.82,76.06Z"/><path class="cls-5" d="M109.73,75.56a1.68,1.68,0,0,0,.59,1.14.46.46,0,0,0,.28.08c.18,0,.28-.23.34-.41a6.73,6.73,0,0,0,0-3.9,2.64,2.64,0,0,0-.51-1.1c-.66-.78-.82,1-.83,1.4A16.27,16.27,0,0,0,109.73,75.56Z"/><path class="cls-5" d="M110.93,79.65a1.9,1.9,0,0,0,.14-1.42c-.11-.28-.43-.45-.62-.15a1.79,1.79,0,0,0-.08,1C110.38,79.23,110.67,80.18,110.93,79.65Z"/><path class="cls-1" d="M139.47,78.61c-1,1.81-1.13,5-3.21,6.07-1.3.66-3,.19-4.58-.67h0a24.69,24.69,0,0,1-4.47-3.26,41.14,41.14,0,0,1-8-9.56c-.16-.25-.33-.54-.5-.83-1.06-1.84-2.21-4.3-1.42-6.22,1-2.35,3.4-2.79,5.55-1.87a53.2,53.2,0,0,1,14.38,9.35l.16.15C139.44,73.76,140.92,76.08,139.47,78.61Z"/><path class="cls-2" d="M139.47,78.61c-1,1.81-1.13,5-3.21,6.07-1.3.66-3,.19-4.58-.67A2.59,2.59,0,0,0,134,82.68a6.34,6.34,0,0,0,.24-2.05,4.26,4.26,0,0,1,1.09-2.43,17.06,17.06,0,0,1,1.59-1.34,2.66,2.66,0,0,0,1.1-1.67,2.24,2.24,0,0,0,0-.24,5,5,0,0,0-.35-2.57,5.81,5.81,0,0,1-.31-.61C139.44,73.76,140.92,76.08,139.47,78.61Z"/><path class="cls-3" d="M121.52,71.21a37.36,37.36,0,0,0,4.81,5.39,23.4,23.4,0,0,0,2.92,2.25,9,9,0,0,0,2.63,1.42,2,2,0,0,0,.8.11c.79-.08.75-1.35,1.21-1.89a4.65,4.65,0,0,1,1.29-1,2.49,2.49,0,0,0,1.41-1.88c.07-1-.79-1.95-1.38-2.63a40.72,40.72,0,0,0-8.47-7.3A16.75,16.75,0,0,0,121,63a1.84,1.84,0,0,0-.57,0c-1.69.19-1.62,1.85-1.45,3.07A11.67,11.67,0,0,0,121.52,71.21Z"/><path class="cls-4" d="M127.6,74.87a3.82,3.82,0,0,0,.67.15,2.07,2.07,0,0,0,1.58-.4c1.45-1.22.21-3.5-.58-4.73a16,16,0,0,0-4.43-4.55c-.85-.59-4.09-2.36-4.85-1-.55,1,.47,3.06.9,4a13.28,13.28,0,0,0,2.86,4,12.39,12.39,0,0,0,3,2.13A7.25,7.25,0,0,0,127.6,74.87Z"/><path class="cls-5" d="M121.7,67.85c.27.24.54.31.76.07s0-.82,0-1.14c-.17-.66-.67-1.74-1.48-1.74-.36,0-.43.31-.42.62A5,5,0,0,0,121.7,67.85Z"/><path class="cls-6" d="M95.34,77.24a80.65,80.65,0,0,1-10.64-.71,72.42,72.42,0,0,1-9.25-1.72c-2.8-.75-5.19-3-7.64-4.55a17.66,17.66,0,0,0-5.1-2.21c-1.59-.38-3.27-.23-4.87-.74A11.59,11.59,0,0,1,55,65.83a43.44,43.44,0,0,1-4.57-3.67,33.49,33.49,0,0,1-6.22-7.32c-.46-.78.55-.71,1-.72a63.85,63.85,0,0,0,9.44-1.23c2.17-.39,4.57-.47,5.95,1.6.87,1.3,1.24,2.91,2.21,4.14A6.67,6.67,0,0,0,67.35,61a15,15,0,0,0,5.19-.53,19,19,0,0,1,4.88-.85c4.65.13,7.09,4.18,9.09,7.75a29.58,29.58,0,0,0,6.9,8.28C94.06,76.14,94.73,76.66,95.34,77.24Z"/><path class="cls-2" d="M55,57.17a2.88,2.88,0,0,1,.68-2.82,2.84,2.84,0,0,1,3.4-.24,4,4,0,0,1,1.2,1.8,14,14,0,0,1,.36,6.35A1.45,1.45,0,0,1,60,63.38c-.43.23-1-.19-1.36-.44a9.12,9.12,0,0,1-2.83-3.39A8.63,8.63,0,0,1,55,57.17Z"/><path class="cls-2" d="M74.92,69.08a12.25,12.25,0,0,0,4.24-.74,6.46,6.46,0,0,0,1.57-.8,3,3,0,0,0,1.08-1.37,3.13,3.13,0,0,0-.61-3A4.35,4.35,0,0,0,79,61.69c.15.05.34.93.31,1.08s-.45.61-.63.83a10.26,10.26,0,0,1-1.57,1.52,10.5,10.5,0,0,1-4,1.9c-.38.08-.76.13-1.14.23-.22.07-.42.16-.63.25s-.52.11-.63.48a.34.34,0,0,0,0,.14c.08.29.85.52,1.1.6A9.91,9.91,0,0,0,74.92,69.08Z"/><path class="cls-3" d="M60.13,49.32c1.93,1.35,3.13,3.62,5.17,4.82,4.09,2.42,9.43-.43,14,.72,3.54.88,5.9,3.83,8.5,6.15a13.68,13.68,0,0,0,11.31,3.58c4.95-.49,8.78-1.25,12.53-4.9a6.61,6.61,0,0,0,1.55-2c2-4.8-4.09-12.93-7.5-15.86A45.64,45.64,0,0,0,95.6,35.17c-7.61-3.6-16.12-4.81-24.47-4.79-6.41,0-12.93.37-19,2.52a15.35,15.35,0,0,0-5.76,3.31c-3.65,3.61-2.45,7.38,1.81,9.68C51.91,47.89,56.61,46.85,60.13,49.32Z"/><path class="cls-4" d="M55.45,41.06c2.14,1,4.55,1.27,6.62,2.37s3.87,3.16,6.11,4.2c3.47,1.61,7.54.68,11.31,1.3,4.11.67,7.66,3.13,11.24,5.24s7.68,4,11.78,3.25A6.78,6.78,0,0,0,107,54.63c1.21-1.89.41-3.66-.36-5.58A25.74,25.74,0,0,0,99,38.7a33.91,33.91,0,0,0-12.41-6c-5.53-1.53-11.11-1.84-16.8-2-4.52-.1-9.72.45-13.81,2.37-1.55.73-4.43,2-4.22,4.17C51.88,39,54.11,40.46,55.45,41.06Z"/><path class="cls-5" d="M66.71,33.8c-.82-1.07-2-.86-3.24-.79a11.71,11.71,0,0,0-4,1c-1.06.46-4.71,2.24-2.92,3.81a4.42,4.42,0,0,0,2.34.66A16.23,16.23,0,0,0,64,38.31a5.89,5.89,0,0,0,2.09-.71A2.56,2.56,0,0,0,66.71,33.8Z"/><path class="cls-5" d="M69.52,35.32a3.56,3.56,0,0,0,1.46.45c1.18.16,4,0,3.91-1.77A1.81,1.81,0,0,0,74,32.61a3.59,3.59,0,0,0-1.6-.51,4.81,4.81,0,0,0-2.35.26,1.93,1.93,0,0,0-1.36,1.72A1.63,1.63,0,0,0,69.52,35.32Z"/><path class="cls-7" d="M55.53,55.84A2.19,2.19,0,0,1,56.22,54a2.15,2.15,0,0,1,2-.27A3.29,3.29,0,0,1,60,55.91a10.85,10.85,0,0,1,.36,3.26c0,.52,0,2.67,0,3.25,0,.37-.14.91-.62.84a3,3,0,0,1-1.19-.71,7.54,7.54,0,0,1-1.46-1.68A9.58,9.58,0,0,1,55.53,55.84Z"/><path class="cls-7" d="M80.06,65.56a3.77,3.77,0,0,0,.55-1.26,2.24,2.24,0,0,0-1.39-2.53,3.57,3.57,0,0,0-3.07.41,9.19,9.19,0,0,0-1.87,1.65c-1,1-1.9,1.92-2.82,2.94-.17.19-1.1,1.12-.69,1.4a3.5,3.5,0,0,0,1.37.23,13.61,13.61,0,0,0,1.69,0,11.43,11.43,0,0,0,3.22-.69A6.78,6.78,0,0,0,78.46,67,5.68,5.68,0,0,0,80.06,65.56Z"/><path class="cls-5" d="M79.94,63.6a1.1,1.1,0,1,1-1.1-1.11A1.1,1.1,0,0,1,79.94,63.6Z"/><circle class="cls-5" cx="58.51" cy="55.65" r="1.1"/><path class="cls-1" d="M31.54,43.54c-.11.84-.23,1.67-.37,2.51-.27,1.51-.6,3-1,4.49-1.1,4.2-3.12,9.39-7.45,11.27-2.88,1.25-6.71,1.45-9.32-.52a7.6,7.6,0,0,1-2.72-6,16.5,16.5,0,0,1,.48-4.55,30.7,30.7,0,0,1,9.21-15.59c1.52-1.37,4.21-3.84,6.37-4,2.45-.22,4,3,4.57,5A19,19,0,0,1,31.54,43.54Z"/><path class="cls-2" d="M31.17,46.05c-.27,1.51-.6,3-1,4.49-1.1,4.2-3.12,9.39-7.45,11.27-2.88,1.25-6.71,1.45-9.32-.52a7.6,7.6,0,0,1-2.72-6,7.06,7.06,0,0,0,.89,1.88A3.72,3.72,0,0,0,14,58.85c.58.07,1.16-.36,1.72-.54A5.29,5.29,0,0,1,18.2,58c.93.14,1.82.58,2.76.64a5.31,5.31,0,0,0,3.29-1.11,16.16,16.16,0,0,0,5.41-7.19C30.24,48.91,30.72,47.49,31.17,46.05Z"/><path class="cls-3" d="M18,40.07c-.26.46-.51.92-.76,1.38-1.71,3.17-3.51,6.37-4,10-.31,2.12.18,5.25,2.62,5.84A5,5,0,0,0,20,57a14.87,14.87,0,0,0,6.27-7.24,31.1,31.1,0,0,0,2.05-11.84,9.53,9.53,0,0,0-.29-3c-.72-2.3-2.37-2.4-4.26-1.33C21.08,35.09,19.43,37.51,18,40.07Z"/><path class="cls-4" d="M17.15,44.64a6.34,6.34,0,0,0,0,3.12,1.44,1.44,0,0,0,.45.77,1.46,1.46,0,0,0,.91.27,4.57,4.57,0,0,0,2.91-1,8.5,8.5,0,0,0,2-2.68q1-1.83,1.77-3.72a21.15,21.15,0,0,0,1.47-4.5,3.9,3.9,0,0,0,0-1.89c-.7-2.25-3-.73-4,.4a31,31,0,0,0-4,5.56A14.06,14.06,0,0,0,17.15,44.64Z"/><path class="cls-5" d="M21.34,38.61a.94.94,0,0,0,0,.75.66.66,0,0,0,.71.28,1.64,1.64,0,0,0,.71-.38,7.69,7.69,0,0,0,2.06-2.48c.3-.58.65-2-.51-1.83a2.71,2.71,0,0,0-1.33.85A7.56,7.56,0,0,0,21.34,38.61Z"/><path class="cls-6" d="M20.86,66.17c-.54,7.66.6,15.34,1.73,22.93a30,30,0,0,1-6-10.53A63.53,63.53,0,0,1,14,66.68c-.18-1.36-.34-2.73-.44-4.1-.09-1.17-.14-2.62.7-3.56a4.9,4.9,0,0,1,3.49-1.14A3.53,3.53,0,0,1,21.1,60C21.78,61.94,21,64.21,20.86,66.17Z"/><path class="cls-8" d="M15.08,64.28a8,8,0,0,1,.36-3.23,2.79,2.79,0,0,1,1.08-1.38c3.38-2.05,2.38,6.13,2.3,7.48a45.82,45.82,0,0,0,.33,8.76c.38,2.77,1.25,5.39,1.55,8.15-1.8-2.41-2.83-5.77-3.7-8.6A44.63,44.63,0,0,1,15.08,64.28Z"/><path class="cls-5" d="M16.72,65.24c.06.16.17.41.35.48.34.14.4-.2.47-.45A10.56,10.56,0,0,0,18,63.11a5.81,5.81,0,0,0-.07-2.35.72.72,0,0,0-.3-.47.57.57,0,0,0-.64.1c-.61.53-.55,1.46-.57,2.19A7.47,7.47,0,0,0,16.72,65.24Z"/><path class="cls-1" d="M157.89,62.62a10.51,10.51,0,0,1-1.82,4.17,3,3,0,0,1-.88.89c-1.47.84-3.52.1-4.91-.54a33.36,33.36,0,0,1-4.79-2.9c-2.28-1.58-4.56-3.15-6.83-4.76l-.54-.4a4.75,4.75,0,0,1-1.63-1.88c-1.35-3.34,4.61-3.41,6.54-3.45a28.77,28.77,0,0,1,10.2,1.86,7.6,7.6,0,0,1,4.06,2.64A6,6,0,0,1,157.89,62.62Z"/><path class="cls-2" d="M157.89,62.62a10.51,10.51,0,0,1-1.82,4.17,3,3,0,0,1-.88.89c-1.47.84-3.52.1-4.91-.54a33.36,33.36,0,0,1-4.79-2.9c-2.28-1.58-4.56-3.15-6.83-4.76l-.54-.4c2.16,1.27,4.19,2.77,6.37,4a15.86,15.86,0,0,0,7.14,2.35,2.89,2.89,0,0,0,2.47-.81c.38-.5.6-1.07.94-1.57a2.9,2.9,0,0,1,.66-.7,1.75,1.75,0,0,1,1.48-.34A1.07,1.07,0,0,1,157.89,62.62Z"/><path class="cls-3" d="M144.51,61.09c.73.39,1.47.74,2.19,1.11a10.86,10.86,0,0,0,5.42,1.57c1.45-.06,2.35-1.41,2.76-2.67.33-1,.71-2.19.13-3.17a3.92,3.92,0,0,0-2.15-1.67,52.29,52.29,0,0,0-5.53-1.46,13,13,0,0,0-5-.51c-1.24.19-2.57.78-2.25,2.28a5.32,5.32,0,0,0,1.64,2.69A12.48,12.48,0,0,0,144.51,61.09Z"/><path class="cls-4" d="M141.23,57.14a3.61,3.61,0,0,0,1.88.69,40.88,40.88,0,0,0,7.8.66,1.18,1.18,0,0,0,1-.39,1.06,1.06,0,0,0,0-1.11,1.87,1.87,0,0,0-.9-.79,14.53,14.53,0,0,0-2.57-.91,22.11,22.11,0,0,0-3.32-.64,7.68,7.68,0,0,0-2.44,0C141.48,54.9,139.86,55.9,141.23,57.14Z"/><path class="cls-5" d="M142.71,54.88a3.17,3.17,0,0,0-1.26.48c-.19.14-.75.68-.33.87a.76.76,0,0,0,.3.05,4.3,4.3,0,0,0,1.9-.4c.28-.13,1-.64.46-.93a1,1,0,0,0-.3-.09A2.84,2.84,0,0,0,142.71,54.88Z"/><path class="cls-1" d="M139.11,60c-.85,2.15-3,2.38-5.13,2.58a40.19,40.19,0,0,1-6.85-.07c-1.25-.09-2.5-.21-3.75-.41a24.29,24.29,0,0,1-3.28-.73c-1.72-.53-4-.92-2.75-3.18a8.54,8.54,0,0,1,4.07-3.38c1.44-.71,2.93-1.49,4.47-2.21a24.7,24.7,0,0,1,6.91-2.28,6,6,0,0,1,4.38.91,5.62,5.62,0,0,1,1.68,2.09,3.18,3.18,0,0,1,.16.32A8.34,8.34,0,0,1,139.11,60Z"/><path class="cls-2" d="M139.11,60c-.85,2.15-3,2.38-5.13,2.58a40.19,40.19,0,0,1-6.85-.07c-1.25-.09-2.5-.21-3.75-.41,1.62,0,3.23-.08,4.83-.23a17.41,17.41,0,0,0,7.52-2.21,7.33,7.33,0,0,0,1.44-1.1,5,5,0,0,0,.44-.48,6.68,6.68,0,0,0,1.26-3.09,12.38,12.38,0,0,0,.15-1.35A8.34,8.34,0,0,1,139.11,60Z"/><path class="cls-3" d="M134.28,58.06a5.59,5.59,0,0,0,2.13-2,3,3,0,0,0-.15-3.24c-.74-.92-2.47-1.19-3.57-1.23a13.65,13.65,0,0,0-4,.59,19.75,19.75,0,0,0-7.28,3.35,5.34,5.34,0,0,0-1.24,1.27c-.59.93-.61,1.86.44,2.37a13.19,13.19,0,0,0,4.37.74,18.86,18.86,0,0,0,4.63-.19A13.61,13.61,0,0,0,134.28,58.06Z"/><path class="cls-4" d="M121.44,57.64a3.55,3.55,0,0,0,1.2.23,6.16,6.16,0,0,0,2-.38A27.85,27.85,0,0,0,128.28,56a8.86,8.86,0,0,0,3.09-2.15,1.47,1.47,0,0,0,.32-.57.62.62,0,0,0-.16-.6.82.82,0,0,0-.48-.17,9.59,9.59,0,0,0-4.21.5,23,23,0,0,0-3.86,1.8C122.25,55.18,119.51,56.93,121.44,57.64Z"/><path class="cls-5" d="M121.27,56.4a.25.25,0,0,0,.18.36,1.36,1.36,0,0,0,1.07-.19c.32-.18,1.5-1.37.57-1.4a1,1,0,0,0-.45.11,4.37,4.37,0,0,0-.86.52A1.71,1.71,0,0,0,121.27,56.4Z"/><path class="cls-1" d="M169.84,80.55a5.89,5.89,0,0,1-1.38,4.07,7.31,7.31,0,0,1-3.82,1.93c-1.74.4-3.83.45-5.17-.64a4.09,4.09,0,0,1-.51-.51c-1.13-1.44-.81-3.49-.63-5.32a27.58,27.58,0,0,0-1.87-13.2c-.48-1.16-1.43-3.16-.61-4.38.93-1.41,2.66-.68,3.66.18a33.77,33.77,0,0,1,9.36,13.6,17.1,17.1,0,0,1,.71,2.31A9.33,9.33,0,0,1,169.84,80.55Z"/><path class="cls-2" d="M169.84,80.55a5.89,5.89,0,0,1-1.38,4.07,7.31,7.31,0,0,1-3.82,1.93c-1.74.4-3.83.45-5.17-.64a6,6,0,0,0,1.66-.62c1.32-.74,1.74-2.38,3.48-2.35.52,0,1,.16,1.54.16a2.35,2.35,0,0,0,.6-.07,3.69,3.69,0,0,0,2.39-2.24,6.84,6.84,0,0,0,.44-2.2A9.33,9.33,0,0,1,169.84,80.55Z"/><path class="cls-3" d="M161,80.25a2.68,2.68,0,0,0,1.93.76,6.39,6.39,0,0,0,2.9-.52c3.36-1.59,1-6-.17-8.38-1.63-3.18-3.4-6.44-6.27-8.58-.43-.32-1.48-1-2-.67s-.18,1.66,0,2.19a44.94,44.94,0,0,1,2.28,10.56,13.48,13.48,0,0,0,.45,2.9A4.42,4.42,0,0,0,161,80.25Z"/><path class="cls-4" d="M157.93,65.72a22.67,22.67,0,0,0,2.79,4.82,4.42,4.42,0,0,0,1.55,1.37c.45.21,1.1.24,1.36-.19a1,1,0,0,0,.13-.48,6.23,6.23,0,0,0-1-3.36c-1-1.87-2.2-3.85-4.18-4.62C156.89,62.61,157.6,65,157.93,65.72Z"/><path class="cls-5" d="M159.58,65.7a.24.24,0,0,0,.2,0c.08,0,.08-.16.07-.25a3.4,3.4,0,0,0-.6-1.44,1.56,1.56,0,0,0-.44-.41c-.27-.16-.62-.22-.68.12a.94.94,0,0,0,.23.68A3.62,3.62,0,0,0,159.58,65.7Z"/><path class="cls-6" d="M162.77,84a3.49,3.49,0,0,0-.27,1.18,29,29,0,0,0,.18,3.37,58.81,58.81,0,0,1-.27,9.29,54.29,54.29,0,0,1-1.58,7.87c-.36,1.29-.76,2.57-1.22,3.83-.29.83-.65,2.7-1.3,3.29,4.16-3.79,5.9-9.53,6.85-15.08a60.8,60.8,0,0,0,.9-8.51,22.9,22.9,0,0,0,0-3.61c-.13-.9-.16-2.13-1.13-2.59a1.83,1.83,0,0,0-1.88.57A1.58,1.58,0,0,0,162.77,84Z"/><path class="cls-8" d="M163.69,91.57c-.18-2-.61-4-.1-5.88a1,1,0,0,1,.3-.56.39.39,0,0,1,.56.06,5.85,5.85,0,0,1,.56,2.75,42.46,42.46,0,0,1-.52,7.72c-.38,2.41-1.25,4.72-1.59,7.13.23-1.63.38-3.26.6-4.88A27.46,27.46,0,0,0,163.69,91.57Z"/><path class="cls-1" d="M125.34,95.12a2.24,2.24,0,0,1-.13.27A19.17,19.17,0,0,1,120.8,101a54,54,0,0,1-5.48,4.55c-3.52,2.55-8.38,5.28-12.92,4A11.29,11.29,0,0,1,99.08,108a8.25,8.25,0,0,1-3.55-4.76c-.91-3.69,1.9-7.26,4.94-9.56a30.8,30.8,0,0,1,17-6.21c2-.08,5.69-.28,7.48.94C127,89.78,126.16,93.25,125.34,95.12Z"/><path class="cls-2" d="M125.21,95.39A19.17,19.17,0,0,1,120.8,101a54,54,0,0,1-5.48,4.55c-3.52,2.55-8.38,5.28-12.92,4A11.29,11.29,0,0,1,99.08,108a6.57,6.57,0,0,1,.35-2.49c.33-1,1.36-2.11,2.53-1.76s1.06,2,1.79,2.78a2.66,2.66,0,0,0,1.84.63,15,15,0,0,0,6.4-1.4,31.58,31.58,0,0,0,11.4-8.08A23.62,23.62,0,0,0,125.21,95.39Z"/><path class="cls-3" d="M102,101c.75,1,1,2.42,2,3.23a4.48,4.48,0,0,0,3.61.58c5-.83,9.25-4.09,12.83-7.68,1.2-1.21,2.42-2.59,2.6-4.3a2.83,2.83,0,0,0-.21-1.52,3.26,3.26,0,0,0-.89-1.13c-2.12-1.84-5.24-1.88-8-1.42a28.58,28.58,0,0,0-14.65,7.21c-.72.67-2.39,2.51-1,3.31.54.31,1.36.18,2,.39A3.94,3.94,0,0,1,102,101Z"/><path class="cls-4" d="M114.91,89.39a11.76,11.76,0,0,0-3.71.48,22.42,22.42,0,0,0-3.9,1.25,17.21,17.21,0,0,0-6.47,4.68c-.47.56-1.46,1.48-.85,2.19s1.36.53,1.82,1.12c.32.4.37,1,.73,1.34a1.93,1.93,0,0,0,1.51.36c3.12-.26,5.88-2,8.44-3.84a17.45,17.45,0,0,0,3.89-3.37,4.31,4.31,0,0,0,.83-1.53,2.1,2.1,0,0,0-.23-1.68A2.84,2.84,0,0,0,114.91,89.39Z"/><path class="cls-5" d="M104.58,94c0-.09-.15-.1-.24-.09a2.63,2.63,0,0,0-1.35.55c-.88.62-2.31,1.58-2.49,2.73a.25.25,0,0,0,0,.17.26.26,0,0,0,.22.14,1.46,1.46,0,0,0,1-.28,9.94,9.94,0,0,0,1.84-1.38C103.89,95.44,104.81,94.53,104.58,94Z"/><path class="cls-6" d="M92.49,105.64a74.15,74.15,0,0,1-9.29,6.66c-1.61,1-3.2,2-4.87,2.83a44.12,44.12,0,0,1-5.19,2.12,14.92,14.92,0,0,0,5.41.23,33.82,33.82,0,0,0,6.23-1.22,64,64,0,0,0,14.48-6.41c1.63-1,3.41-2.06,3.38-4.22a3,3,0,0,0-1.25-2.7c-3.15-1.72-6.59.77-8.88,2.69Z"/><path class="cls-8" d="M80.11,115.4c.88-.25,1.79-.48,2.63-.78,1.5-.53,3-1.13,4.49-1.67a38.76,38.76,0,0,0,8.53-4.47,7.27,7.27,0,0,0,1.92-1.7c.46-.65,1-2.49.11-3-1.2-.69-3.5,1.55-4.29,2.23-1.47,1.24-3,2.45-4.52,3.59a60,60,0,0,1-9.8,6l-1.05.49A14,14,0,0,1,80.11,115.4Z"/><path class="cls-5" d="M93.26,107s-.07.11,0,.16a.14.14,0,0,0,.14,0,3.64,3.64,0,0,0,1.75-.75,6.58,6.58,0,0,0,1.23-.92c.17-.18.84-.81.37-1-.2-.1-.57.19-.72.29-.36.23-.69.48-1,.73A7.19,7.19,0,0,0,93.26,107Z"/><path class="cls-1" d="M151.48,102.82a4.28,4.28,0,0,1-1.32,3c-1.85,1.44-4.15,0-5.43-1.32a24.2,24.2,0,0,0-2.87-2.24,10.3,10.3,0,0,1-2.06-1.85c-.91-1.16-1.05-3.12-1.34-4.53-.35-1.64-.64-3.3-.94-5s-.66-3.58-1.08-5.34c-.26-1.08-.55-2.16-.89-3.22a7.46,7.46,0,0,1-.47-3.11c.11-1,.9-1.42,1.83-1.59,3-.56,6.76,2.7,8.47,4.78a26.48,26.48,0,0,1,4.28,8.21s0,0,0,0C151,94.59,152,98.73,151.48,102.82Z"/><path class="cls-2" d="M151.48,102.82a4.28,4.28,0,0,1-1.32,3c-1.85,1.44-4.15,0-5.43-1.32a24.2,24.2,0,0,0-2.87-2.24,4.18,4.18,0,0,0,.85-.67,8.2,8.2,0,0,1,1.85-1.78c1.4-.71,3.07,0,4.46-.85a3.33,3.33,0,0,0,1.14-2.72c0-.68,0-1.35,0-1.86a24,24,0,0,0-.46-3.68C151,94.59,152,98.73,151.48,102.82Z"/><path class="cls-3" d="M138.61,93.88a5.24,5.24,0,0,0,.58,2.39,2.57,2.57,0,0,0,2.12,1c1.19-.07,2.23-1,3.41-.93.45,0,.9.18,1.35.19a2,2,0,0,0,1.59-.71c.83-1,.48-2.55.25-3.69a21.19,21.19,0,0,0-1.27-4A27.32,27.32,0,0,0,142,80.87a6.72,6.72,0,0,0-3.6-2.45,2,2,0,0,0-1.59.32c-1.4,1.19-.23,3.85.07,5.28q.66,3.15,1.2,6.33C138.24,91.53,138.43,92.7,138.61,93.88Z"/><path class="cls-4" d="M138.93,87.22a6.76,6.76,0,0,0,1.41,2.44,1.15,1.15,0,0,0,.89.41c.52-.07.76-.68.84-1.2a11.76,11.76,0,0,0-.6-5.08,11.45,11.45,0,0,0-1.12-2.73,5,5,0,0,0-2.12-2,1.07,1.07,0,0,0-.58-.12C135.21,79.28,138.57,86.3,138.93,87.22Z"/><path class="cls-5" d="M138.22,83.38a.18.18,0,0,0,.13.05.14.14,0,0,0,.07-.1A2.91,2.91,0,0,0,138,80.7a.5.5,0,0,0-.22-.19c-.6-.18-.5,1-.44,1.3A2.89,2.89,0,0,0,138.22,83.38Z"/><path class="cls-1" d="M149,115.83a18.65,18.65,0,0,1-1.83,6.44,6.87,6.87,0,0,1-3.68,3.66,5.8,5.8,0,0,1-5.51-1.54,7.58,7.58,0,0,1-.69-.7,7.17,7.17,0,0,1-1.51-2.74c-.6-2.25.25-4.6,1.14-6.74,1.76-4.19,3.61-9.36,6.42-13s4.85.08,5.21,3.16A50.34,50.34,0,0,1,149,115.83Z"/><path class="cls-2" d="M149,115.83a18.65,18.65,0,0,1-1.83,6.44,6.87,6.87,0,0,1-3.68,3.66,5.8,5.8,0,0,1-5.51-1.54,2.88,2.88,0,0,1,.07-.59,10.85,10.85,0,0,1,.51-1.77,3.06,3.06,0,0,1,1.05-1.64,2,2,0,0,1,2.24.31c.62.42,1.15,1,1.77,1.35a2.32,2.32,0,0,0,2.12.3,2.71,2.71,0,0,0,1.08-1.07A17,17,0,0,0,149,115.83Z"/><path class="cls-3" d="M147.71,107.08c0-1.38-.1-3.23-1.08-4.31a2.66,2.66,0,0,0-3.5,0,11.75,11.75,0,0,0-2.47,4c-.66,1.61-1.14,3.29-1.73,4.93a16.93,16.93,0,0,0-1.39,5.13c0,1.25.45,1.75,1.67,1.92a7.42,7.42,0,0,1,3.72,1.26,2.76,2.76,0,0,0,1.24.7,1.52,1.52,0,0,0,1.2-.44,3.51,3.51,0,0,0,.71-1.11,17.23,17.23,0,0,0,1.25-4.81A43.11,43.11,0,0,0,147.71,107.08Z"/><path class="cls-4" d="M139.75,115c.09,1.26,1.51,1,2.31.56a6.4,6.4,0,0,0,2.46-2.49,11.59,11.59,0,0,0,1.58-6.61,3.84,3.84,0,0,0-.36-1.57,1.66,1.66,0,0,0-1.26-.92,2.16,2.16,0,0,0-1.41.54C140,106.82,139.52,111.52,139.75,115Z"/><path class="cls-5" d="M141.3,108.53a.36.36,0,0,0,.1.3.28.28,0,0,0,.16,0,.86.86,0,0,0,.61-.21,2.09,2.09,0,0,0,.41-.52,5.92,5.92,0,0,0,.8-2.35.48.48,0,0,0-.06-.39.38.38,0,0,0-.32-.1c-.59.06-.9.81-1.14,1.26A4.23,4.23,0,0,0,141.3,108.53Z"/><path class="cls-6" d="M131.6,130.89a17.88,17.88,0,0,0,7.07-2.88,21.15,21.15,0,0,0,2.37-1.84,6.53,6.53,0,0,0,1.82-2,2.88,2.88,0,0,0-.35-2.92c-1.51-2-3.51-1-5,.43-1.11,1-2,2.25-3.18,3.2-3,2.49-6.46,3.53-10,5A11.7,11.7,0,0,0,131.6,130.89Z"/><path class="cls-8" d="M133.28,126.31c.68-.47,1.35-1,2-1.48s1.12-.93,1.64-1.45a17.3,17.3,0,0,1,1.29-1.28c.34-.28,1.05-.88,1.52-.62a.59.59,0,0,1,.25.59,1.45,1.45,0,0,1-.27.61,10.52,10.52,0,0,1-2.61,2.5c-2.2,1.57-4.8,3.27-7.59,3.32.35,0,.95-.47,1.26-.64C131.62,127.39,132.46,126.87,133.28,126.31Z"/><path class="cls-5" d="M137,123.5l-.07.09c-.08.1-.48.72-.11.65a1.56,1.56,0,0,0,.41-.15,3.26,3.26,0,0,0,1.21-1.18c.1-.16.39-.54.08-.63s-.65.34-.83.51A7.71,7.71,0,0,0,137,123.5Z"/><path class="cls-6" d="M3.12,62.32a18,18,0,0,1-1.78-8c0-1.58,0-3.5,1-4.81a2.63,2.63,0,0,1,4.28.35c1.36,2,0,4.62-.16,6.76-.27,3.91.88,7.3,1.76,11.05A11.66,11.66,0,0,1,3.12,62.32Z"/><path class="cls-8" d="M2.71,56.81a13.21,13.21,0,0,1-.3-1.76c-.13-1.2-.27-3.07.4-4.13s2.14-1.2,2.44.28c.47,2.32-.2,4.71-.11,7.07A22.82,22.82,0,0,0,5.74,62c.25,1.13.6,2.26.9,3.38a26.78,26.78,0,0,1-3.11-6A19.89,19.89,0,0,1,2.71,56.81Z"/><path class="cls-5" d="M3,53.8c.1.21.26.38.44.08a4.3,4.3,0,0,0,.55-2.05c0-.3,0-1.15-.55-1s-.61,1.1-.64,1.45a3.89,3.89,0,0,0,.14,1.4A.52.52,0,0,0,3,53.8Z"/><path class="cls-6" d="M24.14,12.81C23,13.92,22,15.08,20.86,16.22a58.86,58.86,0,0,0-6,7.08,54.49,54.49,0,0,0-4.08,6.91c-.6,1.2-1.15,2.42-1.66,3.66-.33.82-1.32,2.45-1.23,3.33-.56-5.6,2-11,5-15.8A50.9,50.9,0,0,1,23.06,9.29c.58-.49,1.37-1,2-.64a1.53,1.53,0,0,1,.7,1.28c.14,1.49-.7,1.93-1.63,2.86Z"/><path class="cls-8" d="M13.49,21.12l.44-.6c1-1.31,2-2.63,2.95-3.94a23.06,23.06,0,0,1,1.7-2.11,21.82,21.82,0,0,1,2.24-2.16c.37-.29.79-.79,1.27-.9a.56.56,0,0,1,.67.71,1.75,1.75,0,0,1-.45.76c-2,2.39-4.15,4.7-6.08,7.14q-1.48,1.88-2.94,3.77c-1,1.26-1.92,2.56-2.86,3.85l0-.08a19.45,19.45,0,0,1,1.1-3.28A22.9,22.9,0,0,1,13.49,21.12Z"/></g></g></svg>