<svg xmlns="http://www.w3.org/2000/svg" viewBox="0 0 170.55 114.06"><defs><style>.cls-1{fill:#edc894;}.cls-2{fill:#b30000;}.cls-3{fill:#f2ac49;}.cls-4{fill:#fff5e6;}.cls-5{fill:#b35300;}.cls-6{fill:#333;}.cls-7{fill:#fff;}</style></defs><g id="Layer_2" data-name="Layer 2"><g id="Layer"><path class="cls-1" d="M109.43,71.23a24.43,24.43,0,0,0,7.74-1.86,9.26,9.26,0,0,0,4.22-4.17,22.77,22.77,0,0,0,1.7-6.18,42.45,42.45,0,0,0-.3-15.89c-7.11,8-16.45,13.71-25.32,19.76a13.21,13.21,0,0,0-2.74,2.59c-.63.76-1.93,1.44-2,2.54s1,1.65,2,2a29.84,29.84,0,0,0,9.64,1.38A49.81,49.81,0,0,0,109.43,71.23Z"/><path class="cls-1" d="M170.52,28.29a2.26,2.26,0,0,1-.75,1.13c-.12.11-.24.22-.37.32a19.11,19.11,0,0,1-4.2,2.54,30.59,30.59,0,0,1-3.57,1.32c-9.27,2.82-19.2,2.07-28.84,1.14a7.11,7.11,0,0,1-4-1.92c-2.43-2-3.71-5.9-4.8-8.79A43.57,43.57,0,0,1,121,10.46a33.79,33.79,0,0,1,.42-7.17c0-.22.07-.45.1-.69A2.76,2.76,0,0,1,122.84.19c1.32-.62,3.3.41,4.48,1.06a17.27,17.27,0,0,1,5.31,4.53c2.55,3.25,4.18,7.1,5.94,10.83s4.47,2.18,7.73,2.32c1.33.05,2.65.16,4,.32a47.32,47.32,0,0,1,15.18,4.49C166.73,24.38,171,26.37,170.52,28.29Z"/><path class="cls-2" d="M126.18,22.18a8,8,0,0,1,.67-1.38,18.1,18.1,0,0,0,.78,7.27c.16-1,.31-1.95.47-2.92a9,9,0,0,0,.14,2.2,12.42,12.42,0,0,1,.51-2.48,6.53,6.53,0,0,0,.42,2.91,28.46,28.46,0,0,0,1.49-3.56,5,5,0,0,0-.26,1.55l-.05,1.93a19.72,19.72,0,0,1,2.34-2.23,13,13,0,0,0-.45,1.59,8.18,8.18,0,0,1-.26,1.27,38.84,38.84,0,0,0,3.42-2.72A12.38,12.38,0,0,1,133,28.87l3.51-2.14a10.59,10.59,0,0,1-2.91,2.51,37.09,37.09,0,0,0,9.06-.25,40.72,40.72,0,0,1-8.24,1.9A28.36,28.36,0,0,0,141,32.74a2.18,2.18,0,0,1-.8.23,32.8,32.8,0,0,1-6.49.44l1.76.81a24.15,24.15,0,0,0-3.29-.35A6.77,6.77,0,0,1,129,33a6.8,6.8,0,0,1-2.22-3,10.88,10.88,0,0,1-1.16-4.17A8.83,8.83,0,0,1,126.18,22.18Z"/><path class="cls-2" d="M170.52,28.29a2.26,2.26,0,0,1-.75,1.13,13.23,13.23,0,0,0-11.68-5c-1.86.23-3.8.85-5.55.18-1.4-.54-2.4-1.82-3.73-2.52a6.92,6.92,0,0,0-6.58.59c-1.26.76-2.53,1.82-4,1.64-1.69-.22-2.69-2.06-2.9-3.75-.15-1.32,0-2.79-.79-3.88-1-1.43-3.14-1.62-4.31-2.92-1.53-1.71-.76-4.4-1.2-6.65A6.09,6.09,0,0,0,126,3a5.94,5.94,0,0,0-4.44-.37A2.76,2.76,0,0,1,122.84.19c1.32-.62,3.3.41,4.48,1.06a17.27,17.27,0,0,1,5.31,4.53c2.55,3.25,4.18,7.1,5.94,10.83s4.47,2.18,7.73,2.32c1.33.05,2.65.16,4,.32a47.32,47.32,0,0,1,15.18,4.49C166.73,24.38,171,26.37,170.52,28.29Z"/><path class="cls-1" d="M79.17,93.7a44.68,44.68,0,0,1-9.36-1.9c-1.44-.45-2.81-1-4.21-1.59a8.3,8.3,0,0,1-3.28-1.73c-.23-.24-1.49-2.16-1.61-2.16l8.24.29a49.77,49.77,0,0,0,7.82-.13,28.36,28.36,0,0,0,4-.81c1.08-.29,2.26-1,3.39-.85a18.8,18.8,0,0,1,7.91,2.52,15,15,0,0,1,3.09,2.58c.91,1.09,1.25,2.2-.5,2.67a34.72,34.72,0,0,1-4.06.82,47.94,47.94,0,0,1-5.53.47c-1,0-2,0-3,0S80.13,93.79,79.17,93.7Z"/><path class="cls-1" d="M81.07,46.15c-5.08.52-10,2.16-14.8,3.86-9.82,3.48-19.75,7.4-27.6,14.24a49.5,49.5,0,0,1-6.19,5.14c-1.64,1-4.24,2.17-5.32.14A24.14,24.14,0,0,1,25,63.28c-.07-.32-.14-.65-.2-1A13.72,13.72,0,0,1,25.6,54a13.35,13.35,0,0,1,6-5.81,30.82,30.82,0,0,1,8-2.64,91.2,91.2,0,0,1,37.48-.28C78.41,45.5,79.74,45.81,81.07,46.15Z"/><path class="cls-2" d="M28,59.23a36.25,36.25,0,0,0,.4,6.58,26.53,26.53,0,0,1,1.11-5.58A30.31,30.31,0,0,0,29.68,65a47.44,47.44,0,0,1,1.6-6.76,17.15,17.15,0,0,0,.38,5,17.1,17.1,0,0,1,1.48-5,8.88,8.88,0,0,0,.27,4,13.9,13.9,0,0,1,2.43-5.68,11.28,11.28,0,0,0,.37,4.17,18,18,0,0,1,2-5.18,22.38,22.38,0,0,0,0,4,13,13,0,0,1,2.56-5.21,8.46,8.46,0,0,0-.15,3.36A25,25,0,0,1,43.16,53a8.93,8.93,0,0,0-.22,3.34,13.85,13.85,0,0,1,2.62-5,13.15,13.15,0,0,0-.35,3.91A16.68,16.68,0,0,1,48,50.33a11.15,11.15,0,0,0-.53,3.76,16,16,0,0,1,1.86-3.69A12.33,12.33,0,0,0,49,53.3a13.37,13.37,0,0,1,2.68-4.48c-.16,1-.32,2.11-.49,3.16a19.2,19.2,0,0,1,2.74-4.42,9.68,9.68,0,0,0-.6,3.73,9.47,9.47,0,0,1,2.22-3.78,7.42,7.42,0,0,0-.47,2.88,8.25,8.25,0,0,1,1.82-2.7L56.5,50a6.48,6.48,0,0,1,2.06-2.63,10.72,10.72,0,0,0-.29,2.12A14.49,14.49,0,0,1,60,47.06c0,.63,0,1.25,0,1.88a14.52,14.52,0,0,1,2.25-3,13,13,0,0,1-.55,2.46,14.89,14.89,0,0,1,2.62-3.24,12.15,12.15,0,0,0-.77,2.51l1.81-2.38c-.13.61-.26,1.22-.38,1.83l1.78-2c-.14.54-.27,1.09-.41,1.63l1.34-1.39c-.07.36-.13.72-.2,1.08l1.61-1.36a1.39,1.39,0,0,1-.65,1.32A4.63,4.63,0,0,1,67,47c-6.14,1.65-11.55,5.23-17.08,8.36-3.2,1.81-6.47,3.49-9.6,5.41-3.31,2-6.45,4.32-9.7,6.46-.56.37-3.17,2.53-3.68,1.87-.23-.3,0-1.11,0-1.43a13.38,13.38,0,0,0,.07-2A17,17,0,0,1,28,59.23Z"/><path class="cls-2" d="M77.06,45.23a34.29,34.29,0,0,1-8.57.82c-6.66-.22-13.6-2.37-19.82,0-4,1.54-7.14,4.8-11.21,6-2.81.84-6,.7-8.41,2.33C25.77,56.61,25.92,60,25,63.28c-.07-.32-.14-.65-.2-1A13.72,13.72,0,0,1,25.6,54a13.35,13.35,0,0,1,6-5.81,30.82,30.82,0,0,1,8-2.64A91.2,91.2,0,0,1,77.06,45.23Z"/><path class="cls-1" d="M133.6,30.92a2.56,2.56,0,0,1-.26,1,12.83,12.83,0,0,1-1.26,2c-1,1.37-2.24,2.74-3.15,4a155.89,155.89,0,0,1-10,12.09c-6.86,7.56-14.44,14.65-21.88,21.5A165.75,165.75,0,0,1,68.11,92.7,191,191,0,0,1,36,107.9l-1.25.44-1.14.37-.44.15h0l-.68.21a109.56,109.56,0,0,1-15.36,3.75c-3,.5-6,.86-9,1.07a29,29,0,0,1-3.61.15,3.68,3.68,0,0,1-.77-.1h0a1.12,1.12,0,0,1-.55-.36.41.41,0,0,1-.1-.17c-.17-.34-.47-1-.25-1.06-.57.06-1.28.25-1.77-.14A1,1,0,0,1,.75,112a3,3,0,0,1-.47-1.1,8.24,8.24,0,0,1-.26-2.8c0-.41.07-.82.12-1.22a41.1,41.1,0,0,1,.77-4.7A50.34,50.34,0,0,1,5,90.89a61.28,61.28,0,0,1,3.75-6.48c4.33-6.54,10.78-12,16.87-16.86.47-.36.93-.73,1.4-1.08,9.66-7.39,20.62-12.92,31.93-17.31,5.69-2.2,11.53-3.95,17.26-6q9.59-3.45,19.28-6.57c6.27-2,12.84-3.63,19.27-5.19q4.33-1.07,8.7-2c.64-.14,2-.45,3.52-.65,2.19-.31,4.72-.4,5.92.55A1.85,1.85,0,0,1,133.6,30.92Z"/><path class="cls-3" d="M132.88,29.27c-8.37,2.24-16.7,4.65-24.93,7.38-8,2.66-16.33,5.39-23.85,9.17A217.23,217.23,0,0,0,61.85,58.75,223,223,0,0,0,40.58,74.93c-5.73,4.89-11.27,10-16.73,15.23C17.44,96.28,11,102.53,5.48,109.51A21.06,21.06,0,0,0,3,113.31a.54.54,0,0,0,0,.11c-.17-.34-.47-1-.25-1.06-.57.06-1.28.25-1.77-.14A1,1,0,0,1,.75,112a3,3,0,0,1-.47-1.1,8.24,8.24,0,0,1-.26-2.8c0-.41.07-.82.12-1.22a41.1,41.1,0,0,1,.77-4.7A50.34,50.34,0,0,1,5,90.89a61.28,61.28,0,0,1,3.75-6.48c4.33-6.54,10.78-12,16.87-16.86.47-.36.93-.73,1.4-1.08,9.66-7.39,20.62-12.92,31.93-17.31,5.69-2.2,11.53-3.95,17.26-6q9.59-3.45,19.28-6.57c6.27-2,12.84-3.63,19.27-5.19q4.33-1.07,8.7-2c.64-.14,2-.45,3.52-.65C129.15,28.41,131.68,28.32,132.88,29.27Z"/><path class="cls-2" d="M127,28.72c-2,.6-4,1.2-6,1.78-5.39,1.6-10.78,3.18-16.16,4.79-8.39,2.51-16.75,5.13-25,8.09-7.81,2.81-15.55,5.48-23,9.08-5.56,2.68-11,5.67-16.22,8.88-4.07,2.48-7.79,5.35-11.6,8.19A92.91,92.91,0,0,0,18.28,79,81.84,81.84,0,0,0,5.16,96.86c-1.82,3.26-3.49,6.63-5,10a41.1,41.1,0,0,1,.77-4.7A50.34,50.34,0,0,1,5,90.89a61.28,61.28,0,0,1,3.75-6.48c4.33-6.54,10.78-12,16.87-16.86.47-.36.93-.73,1.4-1.08,9.66-7.39,20.62-12.92,31.93-17.31,5.69-2.2,11.53-3.95,17.26-6q9.59-3.45,19.28-6.57c6.27-2,12.84-3.63,19.27-5.19q4.33-1.07,8.7-2C124.08,29.23,125.43,28.92,127,28.72Z"/><path class="cls-4" d="M132.08,33.9c-1,1.37-2.24,2.74-3.15,4a155.89,155.89,0,0,1-10,12.09c-6.86,7.56-14.44,14.65-21.88,21.5A165.75,165.75,0,0,1,68.11,92.7,191,191,0,0,1,36,107.9l-1.25.44-1.61.53a32.35,32.35,0,0,0,.64-7.63c-.1-3.41,1.16-4.72,3.36-7.33a66.64,66.64,0,0,1,6.92-7A145.09,145.09,0,0,1,60,75,580.28,580.28,0,0,1,132.08,33.9Z"/><path class="cls-2" d="M34,107.3q-.16.72-.39,1.41l-.44.15A20.2,20.2,0,0,0,31,95.48a24.11,24.11,0,0,0-4.25-5.25C22.28,86,16.3,82.88,10.18,83.51a23,23,0,0,1,18.76,5.12,17.09,17.09,0,0,1,4.86,8.12A20.4,20.4,0,0,1,34,107.3Z"/><path class="cls-2" d="M51.57,77.38a48.09,48.09,0,0,1,4-3A7.65,7.65,0,0,1,58.83,73a1.32,1.32,0,0,1,1,.2,1.41,1.41,0,0,1,.27,1.41,13.21,13.21,0,0,1-1.72,3.52,25,25,0,0,0-2.62,6.37A6.54,6.54,0,0,1,55,86.62c-.68.95-2,1.12-3.06,1.25a20.26,20.26,0,0,0-4.66,1,9.78,9.78,0,0,1-2.58.75c-1.11.09-2.12-.38-1.94-1.65a3.55,3.55,0,0,1,.45-1.17,25.78,25.78,0,0,1,4.33-5.61A46.18,46.18,0,0,1,51.57,77.38Z"/><path class="cls-5" d="M16,96.69a6.24,6.24,0,0,1-6.7.92c-1.87-1.08-1.9-3.24-.07-4.82a6.24,6.24,0,0,1,6.7-.92C17.76,93,17.8,95.11,16,96.69Z"/><path class="cls-6" d="M13.19,96.73a3,3,0,0,1-3.23.44c-.9-.52-.92-1.56,0-2.32a3,3,0,0,1,3.22-.44C14.05,94.93,14.07,96,13.19,96.73Z"/><path class="cls-7" d="M13.31,94.31a2,2,0,0,1-2.12.29c-.59-.34-.6-1,0-1.52a2,2,0,0,1,2.12-.29C13.88,93.13,13.89,93.81,13.31,94.31Z"/><path class="cls-2" d="M10.61,104.13a13,13,0,0,0-1.37,1.19c-.42.41-.82.83-1.21,1.26a25.06,25.06,0,0,0-3.08,4,12.76,12.76,0,0,0-1.06,2.28A4.52,4.52,0,0,0,3.63,114a1.12,1.12,0,0,1-.55-.36c-.08-.08-.63-1.2-.35-1.23-.57.06-1.28.25-1.77-.14A1,1,0,0,1,.75,112a4.14,4.14,0,0,0,1.67-.28,6.9,6.9,0,0,0,2.68-2.18,24.84,24.84,0,0,1,2.49-2.83C8.57,105.83,9.54,104.93,10.61,104.13Z"/><path class="cls-2" d="M43.48,68.4a1.48,1.48,0,0,1-1.57-2.5,1.48,1.48,0,0,1,1.57,2.5Z"/><path class="cls-2" d="M106.29,40.37a1.48,1.48,0,1,1,.46-2A1.47,1.47,0,0,1,106.29,40.37Z"/><path class="cls-2" d="M70,54.31a1.48,1.48,0,0,1-1.57-2.5A1.48,1.48,0,0,1,70,54.31Z"/><path class="cls-2" d="M35.05,87.87a1.48,1.48,0,1,1,.46-2A1.48,1.48,0,0,1,35.05,87.87Z"/><path class="cls-2" d="M87.76,45a1.48,1.48,0,1,1,.46-2A1.47,1.47,0,0,1,87.76,45Z"/><path class="cls-2" d="M32.85,80.36a1.49,1.49,0,0,1-2-.47,1.48,1.48,0,0,1,2.5-1.57A1.49,1.49,0,0,1,32.85,80.36Z"/><path class="cls-4" d="M37.08,70.37a.72.72,0,1,1,.22-1A.72.72,0,0,1,37.08,70.37Z"/><path class="cls-4" d="M24.88,78.76a.72.72,0,0,1-.77-1.22.72.72,0,0,1,1,.23A.72.72,0,0,1,24.88,78.76Z"/><path class="cls-4" d="M57.55,58.52a.73.73,0,0,1-1-.22.72.72,0,0,1,.23-1,.73.73,0,0,1,1,.22A.72.72,0,0,1,57.55,58.52Z"/><path class="cls-4" d="M49.91,71a.72.72,0,0,1-.49-.89.71.71,0,1,1,.49.89Z"/><path class="cls-4" d="M93,45a.73.73,0,0,1-1-.23.72.72,0,0,1,.23-1,.71.71,0,0,1,1,.23A.72.72,0,0,1,93,45Z"/><path class="cls-4" d="M110.54,35.51a.72.72,0,0,1-1-.23.71.71,0,1,1,1,.23Z"/><path class="cls-4" d="M71.2,57.62A.72.72,0,0,1,71,59a.73.73,0,0,1-.59-.83A.72.72,0,0,1,71.2,57.62Z"/><path class="cls-4" d="M78,46.94a.72.72,0,1,1-.83.59A.71.71,0,0,1,78,46.94Z"/><path class="cls-4" d="M120.93,32.76a.72.72,0,0,1-.25,1.41.7.7,0,0,1-.58-.82A.71.71,0,0,1,120.93,32.76Z"/><path class="cls-4" d="M47.89,59.85a.72.72,0,0,1-.76-1.22.72.72,0,0,1,.76,1.22Z"/></g></g></svg>