<svg xmlns="http://www.w3.org/2000/svg" viewBox="0 0 166.79 110.91"><defs><style>.cls-1{isolation:isolate;}.cls-2{fill:#fc5439;}.cls-3{fill:#ff7670;}.cls-11,.cls-3,.cls-7{mix-blend-mode:screen;}.cls-4,.cls-7{fill:#e63a33;}.cls-5{fill:#fb8d71;}.cls-6{fill:#b30000;}.cls-8{fill:#ff725d;}.cls-9{fill:#333;}.cls-10{fill:#fff;}.cls-11{fill:#f0453e;}</style></defs><g class="cls-1"><g id="Layer_2" data-name="Layer 2"><g id="Layer"><path class="cls-2" d="M51.24,23.77a2.53,2.53,0,0,0-.55,1.33c-.14,2.73,3,0,3.67-.55A52.63,52.63,0,0,0,65.23,11.68a1.45,1.45,0,0,0,.27-1.34,1,1,0,0,0-1-.43,2.72,2.72,0,0,0-1.06.53,30,30,0,0,0-3.39,3,75.57,75.57,0,0,0-5.44,6C53.44,20.86,52.32,22.31,51.24,23.77Z"/><path class="cls-3" d="M62.39,13a25.08,25.08,0,0,1-3.66,4.56c-1.38,1.36-2.68,2.82-4.16,4.1-.41.36-.84.7-1.29,1a.27.27,0,0,1-.17.08c-.5,0,.3-1.17.4-1.33a37.27,37.27,0,0,1,3.39-4.24c1.21-1.37,2.51-2.7,3.76-4.05a13,13,0,0,1,1.12-1.11,1.1,1.1,0,0,1,.68-.33.38.38,0,0,1,.27.1.33.33,0,0,1,.08.24,1.11,1.11,0,0,1-.22.62Z"/><path class="cls-4" d="M79.13,22a8.58,8.58,0,0,0-1-1.73A38.67,38.67,0,0,0,65.74,10.1a2.34,2.34,0,0,0-1.24-.38,1.32,1.32,0,0,0-1.16.93c-.29,1,1.32,2.64,1.93,3.4a26.18,26.18,0,0,0,3.21,3.28,50.17,50.17,0,0,0,7.72,5.28,5.81,5.81,0,0,0,2.31.93C79.56,23.64,79.49,22.84,79.13,22Z"/><path class="cls-3" d="M65.22,10.32a2.62,2.62,0,0,1,.75.28,33.32,33.32,0,0,1,5.41,3.65,28.46,28.46,0,0,1,3.33,2.87c.34.36,2.2,2.54,1.23,3-.46.2-1.35-.5-1.72-.73A17.48,17.48,0,0,1,72.46,18q-2.1-1.76-4.1-3.63c-.66-.61-1.31-1.24-2-1.87C66.2,12.3,64.07,10.13,65.22,10.32Z"/><path class="cls-4" d="M37.74,14.42c4.33.42,7.8,2.47,11.11,5.15a13.33,13.33,0,0,1,3,3,4.05,4.05,0,0,1,.84,2.55c-.23,1.37-1.61,1.08-2.49.55a25.86,25.86,0,0,1-4.91-4.07,26.71,26.71,0,0,0-4.72-4,25.55,25.55,0,0,0-7.11-2.91A12.6,12.6,0,0,1,37.74,14.42Z"/><path class="cls-3" d="M39.12,16a28.22,28.22,0,0,1,8,4.46,9.91,9.91,0,0,0,2.3,1.63c.32.13.76.18.92-.12s-.06-.57-.27-.79a20,20,0,0,0-8-5.12,12.22,12.22,0,0,0-5.45-1Z"/><path class="cls-4" d="M23.34,17.58c4.28-.73,8.17.34,12.06,2.06A13.19,13.19,0,0,1,39,21.74,4.06,4.06,0,0,1,40.52,24c.14,1.38-1.27,1.46-2.25,1.18a25.81,25.81,0,0,1-5.81-2.64,26.12,26.12,0,0,0-5.6-2.59,25.42,25.42,0,0,0-7.62-1A12.64,12.64,0,0,1,23.34,17.58Z"/><path class="cls-3" d="M26.37,18.57a28.71,28.71,0,0,1,8.72,2.85,9.9,9.9,0,0,0,2.57,1.16c.33.07.78,0,.88-.29s-.18-.55-.42-.73a20,20,0,0,0-8.87-3.48,12.1,12.1,0,0,0-5.55,0C24.6,18.27,25.48,18.41,26.37,18.57Z"/><path class="cls-2" d="M39.16,22.76a1.76,1.76,0,0,0-1,1.31,1.45,1.45,0,0,0,.13.85c.26.48.86.36,1.31.3a12.69,12.69,0,0,0,2.18-.56,52.43,52.43,0,0,0,14.92-7.82c.38-.28.8-.66.76-1.13a1,1,0,0,0-.79-.78,2.6,2.6,0,0,0-1.17.08,29.54,29.54,0,0,0-4.27,1.48A75.55,75.55,0,0,0,43.9,20C42.3,20.9,40.72,21.81,39.16,22.76Z"/><path class="cls-3" d="M52.09,17.63A24.75,24.75,0,0,1,47,20.5c-1.79.75-3.54,1.62-5.39,2.25-.52.18-1,.34-1.58.48a.23.23,0,0,1-.18,0c-.48-.16.7-1,.86-1.08a36.47,36.47,0,0,1,4.72-2.67c1.64-.82,3.34-1.58,5-2.36a13.31,13.31,0,0,1,1.46-.62,1.14,1.14,0,0,1,.75-.05.32.32,0,0,1,.2.45,1.15,1.15,0,0,1-.44.49Z"/><path class="cls-4" d="M72.33,22.69a8.49,8.49,0,0,0-1.45-1.4A38.84,38.84,0,0,0,56.3,14.71a2.5,2.5,0,0,0-1.3-.05,1.31,1.31,0,0,0-.87,1.2c0,1.1,2,2.21,2.75,2.78a24.93,24.93,0,0,0,4,2.33A49.89,49.89,0,0,0,69.67,24a5.82,5.82,0,0,0,2.47.3C73.19,24.16,72.91,23.41,72.33,22.69Z"/><path class="cls-3" d="M56.79,15.25a2.68,2.68,0,0,1,.8.07,33.79,33.79,0,0,1,6.16,2.14,28.86,28.86,0,0,1,4,1.91c.43.27,2.78,1.89,2,2.55-.4.33-1.44-.12-1.85-.26a18.36,18.36,0,0,1-2-.84q-2.49-1.16-4.9-2.45c-.8-.43-1.58-.87-2.36-1.31C58.25,16.91,55.64,15.36,56.79,15.25Z"/><path class="cls-2" d="M40,34.07a2.49,2.49,0,0,0-.52,1.34c-.07,2.73,3,0,3.66-.65A52.12,52.12,0,0,0,53.71,21.61,1.47,1.47,0,0,0,54,20.27a1,1,0,0,0-1-.4,2.56,2.56,0,0,0-1,.55,31,31,0,0,0-3.32,3.07,73.5,73.5,0,0,0-5.27,6.16C42.17,31.1,41.08,32.57,40,34.07Z"/><path class="cls-3" d="M51,22.82a25.12,25.12,0,0,1-3.64,4.57c-1.38,1.37-2.68,2.83-4.15,4.12-.41.36-.84.7-1.28,1a.3.3,0,0,1-.17.08c-.51,0,.29-1.17.39-1.33a36.24,36.24,0,0,1,3.37-4.24c1.21-1.38,2.5-2.72,3.75-4.07a13.15,13.15,0,0,1,1.12-1.12,1.13,1.13,0,0,1,.67-.33.38.38,0,0,1,.27.1.34.34,0,0,1,.09.24,1.13,1.13,0,0,1-.23.62Z"/><path class="cls-4" d="M24.47,30.3c4.19-1.14,8.17-.45,12.21.88a13.37,13.37,0,0,1,3.82,1.75A3.94,3.94,0,0,1,42.19,35c.28,1.36-1.12,1.57-2.13,1.39a26,26,0,0,1-6-2.06,26.27,26.27,0,0,0-5.82-2,25.29,25.29,0,0,0-7.67-.2A12.47,12.47,0,0,1,24.47,30.3Z"/><path class="cls-3" d="M27.54,31a28.61,28.61,0,0,1,8.89,2.22,9.52,9.52,0,0,0,2.65,1c.34.05.78,0,.85-.35s-.21-.54-.46-.7a20.18,20.18,0,0,0-9.1-2.85,12.12,12.12,0,0,0-5.52.43Z"/><path class="cls-4" d="M69.72,28.2a9,9,0,0,0-1.42-1.43A38.77,38.77,0,0,0,53.84,19.9a2.47,2.47,0,0,0-1.29-.07,1.3,1.3,0,0,0-.9,1.18c0,1.1,1.92,2.25,2.7,2.83a25.28,25.28,0,0,0,3.9,2.41A52,52,0,0,0,67,29.5a5.77,5.77,0,0,0,2.46.34C70.54,29.68,70.27,28.93,69.72,28.2Z"/><path class="cls-3" d="M53.13,20.2a2.74,2.74,0,0,1,.8.07,33.28,33.28,0,0,1,6.19,2.05,28.77,28.77,0,0,1,4,1.85c.44.26,2.81,1.85,2,2.52-.39.33-1.43-.1-1.86-.23a20.07,20.07,0,0,1-2.06-.82c-1.66-.75-3.31-1.54-4.93-2.38-.8-.41-1.59-.84-2.38-1.27C54.61,21.84,52,20.33,53.13,20.2Z"/><path class="cls-2" d="M66.27,36.7a12,12,0,0,1-7.11,7,12.47,12.47,0,0,1-2,.6,4,4,0,0,0,1-1.4,14.63,14.63,0,0,1-7.49,3.7,6.79,6.79,0,0,0,1.5-1.18,8.68,8.68,0,0,1-2,.39l-.21,0a4.45,4.45,0,0,1-1.54.16,14.1,14.1,0,0,1-3.59-.47,2.82,2.82,0,0,1-1.11-.83A18.67,18.67,0,0,1,42,42.06c-.77-1.22-1.51-2.39-2.33-3.56-.19-.27-3.06-3-3.27-2.45a17.54,17.54,0,0,1,3.43-5.83,9.24,9.24,0,0,1,8.76-2.37A3.43,3.43,0,0,0,47,27.34c2.44-1.35,5.49-.95,8.09.05a7.78,7.78,0,0,1-1.19-.81,14,14,0,0,1,6.86.5,9.85,9.85,0,0,1,5.1,3.82,6.39,6.39,0,0,1,.81,1.76A6.93,6.93,0,0,1,66.27,36.7Z"/><path class="cls-5" d="M51.83,32.27a22.44,22.44,0,0,0,6.75-.54,1.38,1.38,0,0,0,1-.69c.22-.58-.34-1.15-.88-1.46-2.66-1.56-5.95-1.47-9-1.22-.91.07-4.78.8-3.67,2.51.49.76,1.92,1,2.73,1.12A19.81,19.81,0,0,0,51.83,32.27Z"/><path class="cls-6" d="M61,36.9a19.16,19.16,0,0,1-1.88,6.76,12.47,12.47,0,0,1-2,.6,4,4,0,0,0,1-1.4,14.63,14.63,0,0,1-7.49,3.7,6.79,6.79,0,0,0,1.5-1.18,8.68,8.68,0,0,1-2,.39l-.21,0a4.45,4.45,0,0,1-1.54.16,14.1,14.1,0,0,1-3.59-.47,2.82,2.82,0,0,1-1.11-.83c-.22-2.53.22-5.12-.35-7.6-.24-1-1.78-4.25,0-4.68,1.41-.35,3.26,2,4,3a8.42,8.42,0,0,1,1.71,4.68,9.6,9.6,0,0,0,2-.89,7.79,7.79,0,0,1-.54,2.44C54.38,41.54,57.85,39.18,61,36.9Z"/><path class="cls-2" d="M47.78,42a36.88,36.88,0,0,1-3.61,15.24c-.22.48-.45,1-.65,1.45-.07.2-.14.4-.2.61-.27.92-.31,1.89-.53,2.83a7.54,7.54,0,0,1-3.26,4.56,3.39,3.39,0,0,0-1,.76,3,3,0,0,0-.42,1.66,24.09,24.09,0,0,1-4.29,12.06A23.81,23.81,0,0,1,29.47,86a7.65,7.65,0,0,1-1,.7c-1.22.72-2.94,1.34-2.76-.6a.29.29,0,0,1,0-.09,9.2,9.2,0,0,1,.9-3c.93-2,2.33-3.88,3.18-5.94a12.83,12.83,0,0,0,.83-6.88,2.82,2.82,0,0,0-1.41-2.37c-.28,4.49-.76,9.39-3.92,12.59a6,6,0,0,0-1.16,1.36A4.17,4.17,0,0,0,24,84.27c0,.17.06.35.09.51s.08.35.12.52a9,9,0,0,0,1.59,3.45,8.2,8.2,0,0,0,.55.68.23.23,0,0,1,.07.13c0,.1-.13.15-.24.16-2,.2-4.15-1.12-5.65-2.33a12.68,12.68,0,0,1-3.62-4.77c-1.52-3.45-1.71-7.35-1.64-11.12,0-.32,0-.64,0-1A42.23,42.23,0,0,1,16.68,60.4a54.53,54.53,0,0,1,16-25.95,16.35,16.35,0,0,1,4.69-3.12,7.38,7.38,0,0,1,5.52-.13,7.45,7.45,0,0,1,3.93,4.63A20.45,20.45,0,0,1,47.78,42Z"/><path class="cls-6" d="M43.52,58.71c-.07.2-.14.4-.2.61-.27.92-.31,1.89-.53,2.83a7.54,7.54,0,0,1-3.26,4.56,3.39,3.39,0,0,0-1,.76,3,3,0,0,0-.42,1.66,24.09,24.09,0,0,1-4.29,12.06A23.81,23.81,0,0,1,29.47,86a7.65,7.65,0,0,1-1,.7c-1.22.72-2.94,1.34-2.76-.6a.29.29,0,0,1,0-.09,9.2,9.2,0,0,1,.9-3,27.61,27.61,0,0,0,4.15-4.08,23.21,23.21,0,0,0,5-11,2.52,2.52,0,0,1,.3-1,2.34,2.34,0,0,1,.83-.66,17.74,17.74,0,0,0,2.64-1.94,13.59,13.59,0,0,0,3.52-4.64A4.87,4.87,0,0,1,43.52,58.71Z"/><path class="cls-6" d="M26.33,89.43a.23.23,0,0,1,.07.13c0,.1-.13.15-.24.16-2,.2-4.15-1.12-5.65-2.33a12.68,12.68,0,0,1-3.62-4.77c-1.52-3.45-1.71-7.35-1.64-11.12,0-.32,0-.64,0-1a37.58,37.58,0,0,0,2.78,7.55,19.34,19.34,0,0,0,3.81,5.5,11.89,11.89,0,0,0,2.33,1.72A9.07,9.07,0,0,0,26.33,89.43Z"/><path class="cls-5" d="M28.61,40.69c-.75,1.06-1.46,2.16-2.13,3.27a70.32,70.32,0,0,0-5.79,11.7A53.43,53.43,0,0,0,18.1,67.54a6.69,6.69,0,0,0,0,2.6A2.51,2.51,0,0,0,19.79,72a2.57,2.57,0,0,0,2.35-.86,8.27,8.27,0,0,0,1.34-2.23,14.34,14.34,0,0,1,2.83-4.3A6,6,0,0,1,31,62.77c1.38.16,2.67.95,4.07.91,2.09-.06,3.65-1.9,4.8-3.66a36.24,36.24,0,0,0,6.06-15.55,15.54,15.54,0,0,0-.27-5.81c-.73-2.68-3-5.56-6-5.82s-6.35,2.58-8.25,4.5A27.16,27.16,0,0,0,28.61,40.69Z"/><path class="cls-6" d="M24.62,66.72A82,82,0,0,0,6.21,76.31,77.59,77.59,0,0,0,0,81.09c9.58-6.61,19.91-12.62,31.35-14.73,2.83-.52,5.65-1.09,8.54-1.5,1-.14,4-.56,4.52-1.58.85-1.77-2.48-.89-3.06-.8q-2.68.38-5.36,1a80.42,80.42,0,0,0-10.46,3Z"/><path class="cls-6" d="M166.32,17.52a3.9,3.9,0,0,1-.38.33,11.29,11.29,0,0,1-4.33,1.81c-5.47,1.26-11.2.78-16.68-.38a21.51,21.51,0,0,1-5-1.56,9.36,9.36,0,0,1-3.95-3.39c.1.16,1.41.13,1.64.15.6,0,1.2,0,1.8.09,1.06.07,2.15.29,3.21.41,2.37.28,4.75.54,7.12.79,5.19.54,10.46,1,15.59.07.39-.07.8-.29,1.16,0a1,1,0,0,1,.31,1A1.6,1.6,0,0,1,166.32,17.52Z"/><path class="cls-4" d="M166.71,16.46a.71.71,0,0,1-.08.3c-.43.87-1.35,1.06-2.22,1.26a37.42,37.42,0,0,1-11.38.55,33.17,33.17,0,0,1-6.74-1.11A14.94,14.94,0,0,1,141.42,15c-.56-.42-.9-1-1.44-1.43l-.08-.07A29.52,29.52,0,0,0,137.21,12a10.53,10.53,0,0,1-2.29-1.37c-.58-.64-.71-2.14-.85-2.95a13,13,0,0,1-.15-3.47,5.21,5.21,0,0,1,1-2.8A3.81,3.81,0,0,1,137.56,0a4.78,4.78,0,0,1,1,0,5.44,5.44,0,0,1,2.09.62,11.64,11.64,0,0,1,4.17,4.64,7.09,7.09,0,0,0,1.75,2.29c1.19.87,2.8.88,4.09,1.59a19.58,19.58,0,0,1,2.19,1.68c3.52,2.68,8.67,1.9,12.54,4.06a3.81,3.81,0,0,1,1.06.79A.94.94,0,0,1,166.71,16.46Z"/><path class="cls-7" d="M166.71,16.46a45.26,45.26,0,0,1-8-.1,30.25,30.25,0,0,1-8.56-1.63A30.08,30.08,0,0,1,146.65,13c.44.24,1.35-.07,1.77-.24s1.19-.39,1.16-.89a9,9,0,0,0,1.61,1.33,13.73,13.73,0,0,0,4.64,1.4,53.29,53.29,0,0,0,10.62,1.07A.94.94,0,0,1,166.71,16.46Z"/><path class="cls-5" d="M142.45,11.51c-.1-.23-.85-.55-1.07-.7-.37-.25-.73-.52-1.09-.79a5,5,0,0,1-1.43-1.31,14.88,14.88,0,0,1-1.47-5.14A9.57,9.57,0,0,1,137.56,0a4.78,4.78,0,0,1,1,0A53.85,53.85,0,0,0,142.45,11.51Z"/><path class="cls-8" d="M143.15,16.44a3.6,3.6,0,0,1-2.06,1.23,7.77,7.77,0,0,1-3.26-.44c-.61,1.46-.44,3.67-2,4.6a3,3,0,0,1-3.13-.26c.26.16-1.85,2.72-2.08,2.94a5.27,5.27,0,0,1-3.44,1.42c-.26,0-2.66.13-2.4-.52a7.23,7.23,0,0,1-7.8,4.32c-.82,2.37-3.68,3.51-6.18,3.23a2.23,2.23,0,0,0-1,0,2.09,2.09,0,0,0-.79.72,6.78,6.78,0,0,1-7.19,2.05A4.51,4.51,0,0,1,98,38.91a4.34,4.34,0,0,1-3.79-1.6c-.56-.86-.39-1.88-1.11-2.71C92,33.31,89.9,33,88.46,32.15A13.87,13.87,0,0,1,83,27.29c-3.9-6.77,3.41-10.84,8.3-13.75A58.57,58.57,0,0,1,142.11,9a5.62,5.62,0,0,1,1.56.8C145.49,11.29,144.81,14.62,143.15,16.44Z"/><path class="cls-2" d="M98.81,70.85a17.19,17.19,0,0,1-3.49,5.79c.36-.43-3.39-1.67-3.71-1.71-1.43-.17-2.81-.25-4.25-.35s-2.81-.41-4.25-.49l-.62,1.15a11.6,11.6,0,0,1-2.58-5.88c0-.21-.06-.41-.09-.63A27.48,27.48,0,0,1,80,62a5.05,5.05,0,0,0-1.22,2.79A21.72,21.72,0,0,1,82.3,52.35c.85-1.3,2.36-3.89,4-4.05,1.2-.12,2.77.72,4,1.6h0A12.86,12.86,0,0,1,91.64,51a14.21,14.21,0,0,1,3.71,5.8,9.78,9.78,0,0,1-1.29-.66c2.13,1.81,3.91,4.3,3.9,7.1A3.53,3.53,0,0,0,96.73,62,9.23,9.23,0,0,1,98.81,70.85Z"/><path class="cls-5" d="M83.26,60.81a4.32,4.32,0,0,0,2.33,3.62,4.52,4.52,0,0,0,4.31-.16c3.07-1.95,1.55-6.66,0-9.09a4.41,4.41,0,0,0-2.34-2.24A2.45,2.45,0,0,0,85,54,11.35,11.35,0,0,0,83.26,60.81Z"/><path class="cls-6" d="M98.81,70.85a17.19,17.19,0,0,1-3.49,5.79c.36-.43-3.39-1.67-3.71-1.71-1.43-.17-2.81-.25-4.25-.35s-2.81-.41-4.25-.49l-.62,1.15a11.6,11.6,0,0,1-2.58-5.88c0-.21-.06-.41-.09-.63a4.74,4.74,0,0,1,2.27-1.87,20.93,20.93,0,0,1,6-1.41,9.91,9.91,0,0,1,6.8,1.86,8.36,8.36,0,0,0-1.1-5.84l1.79.5a26.73,26.73,0,0,0-3.06-7.39,2.23,2.23,0,0,1,.9.33,14.62,14.62,0,0,0-3.09-5A12.86,12.86,0,0,1,91.64,51a14.21,14.21,0,0,1,3.71,5.8,9.78,9.78,0,0,1-1.29-.66c2.13,1.81,3.91,4.3,3.9,7.1A3.53,3.53,0,0,0,96.73,62,9.23,9.23,0,0,1,98.81,70.85Z"/><path class="cls-2" d="M98.72,40.72c-3.34,5.69-9.87,9.93-15.6,12.85a140.61,140.61,0,0,1-21.89,8.94c-.55.16-1.11.35-1.68.54l-1.41.45a30.1,30.1,0,0,1-3.87,1,13.7,13.7,0,0,1-4.37.18,6.72,6.72,0,0,1-1.5-.37c-7.17-2.71,1.67-16.52,3.85-20.18a72,72,0,0,1,9.23-12.29c.69-.73,1.39-1.44,2.12-2.13a41.79,41.79,0,0,1,14.76-9.53,18.78,18.78,0,0,1,17.32,2.7A14.13,14.13,0,0,1,98.8,26c.23.31.43.63.63,1C101.8,31.17,101.17,36.58,98.72,40.72Z"/><path class="cls-5" d="M72.83,30.51a3.28,3.28,0,0,1,.31.2,7.73,7.73,0,0,1,2.26,2.84c.36.72.62,2.36,1.3,2.78a1.64,1.64,0,0,0,.93.17,9.11,9.11,0,0,0,3.12-.77A25.19,25.19,0,0,0,85,33.24,48.76,48.76,0,0,0,89.38,30a9.16,9.16,0,0,0,2.33-2.75c1.06-2.11-.27-4.52-2.16-5.64-2.82-1.68-6.18-1.61-9.29-.91a24.25,24.25,0,0,0-8.74,3.82,11.69,11.69,0,0,0-2.59,2.57c-.71,1-1.6,2.12.13,2.32A9.11,9.11,0,0,1,72.83,30.51Z"/><path class="cls-6" d="M98.72,40.72c-3.34,5.69-9.87,9.93-15.6,12.85a140.61,140.61,0,0,1-21.89,8.94c-.55.16-1.11.35-1.68.54l-1.41.45a30.1,30.1,0,0,1-3.87,1,13.7,13.7,0,0,1-4.37.18,6.72,6.72,0,0,1-1.5-.37A95.7,95.7,0,0,0,62,60.56,102.11,102.11,0,0,0,76.7,53.45c5.32-3,10.6-6.26,14.8-10.7a29.62,29.62,0,0,0,3.75-4.83,21.58,21.58,0,0,0,3.53-10c0-.59,0-1.26,0-1.94.23.31.43.63.63,1C101.8,31.17,101.17,36.58,98.72,40.72Z"/><path class="cls-6" d="M74.7,40.47a21.06,21.06,0,0,1-3,9.66A38.92,38.92,0,0,1,59.55,63.05l-1.4.45a30.68,30.68,0,0,1-3.88,1,12.94,12.94,0,0,1-3.57,0c-10-1.37,0-17,2.4-21a72.58,72.58,0,0,1,9.42-12.53l.28-.1a10.06,10.06,0,0,1,5.57-.4,7.08,7.08,0,0,1,4.93,3.56A13.3,13.3,0,0,1,74.7,40.47Z"/><path class="cls-2" d="M73.42,41.08a20.64,20.64,0,0,1-2.93,9.47,38.4,38.4,0,0,1-12.34,13,19.44,19.44,0,0,1-8.25,1.18c-9.78-1.35,0-16.67,2.35-20.55a71.53,71.53,0,0,1,9.23-12.29l.27-.09a9.88,9.88,0,0,1,5.47-.39,6.93,6.93,0,0,1,4.83,3.48A13,13,0,0,1,73.42,41.08Z"/><path class="cls-2" d="M44.53,58.93a17.75,17.75,0,0,0-3.07,3.18,3.63,3.63,0,0,0-.05,4.15c1.06,1.24,3.11,1.13,4.47.23a10.94,10.94,0,0,0,3-3.79A12,12,0,0,1,50.83,60a5.41,5.41,0,0,1,2.77-1.17,11.94,11.94,0,0,0,2.84-.71c.76-.36,1.83-1.25,1.74-2.21s-1.4-1-2.09-.91a33.44,33.44,0,0,1-3.61,0,2.41,2.41,0,0,1-1-.22c-.89-.51-.53-1.48-.75-2.33a1.41,1.41,0,0,0-1.42-1.1,1.67,1.67,0,0,0-1.19,1c-.55,1.11-.59,2.32-1.21,3.42A13,13,0,0,1,44.53,58.93Z"/><path class="cls-2" d="M151.36,11.86a2.41,2.41,0,0,1-.16.42A4.78,4.78,0,0,1,150,13.89a12.88,12.88,0,0,1-4.35,2.21c-1.22.43-2.42.89-3.61,1.38-.74.3-2,.67-2.75.1a2.94,2.94,0,0,1-.57-1.34c-.15-.52-.29-1.06-.46-1.59a13.79,13.79,0,0,0-1.49-3.24c-.2-.32-.41-.62-.63-.93A15.87,15.87,0,0,0,135,9.15c-.69-.72-1.46-1.36-2.16-2.09-.25-.26-.64-.57-.69-1-.14-1.17,3.13-.31,3.64-.2,1.7.34,3.34,1,5,1.37.51.12,1,.23,1.56.33a25.64,25.64,0,0,0,4,.46,14.28,14.28,0,0,1,2.53.16,3.27,3.27,0,0,1,2.12,1.26A2.88,2.88,0,0,1,151.36,11.86Z"/><path class="cls-6" d="M151.2,12.28A4.78,4.78,0,0,1,150,13.89a12.88,12.88,0,0,1-4.35,2.21c-1.22.43-2.42.89-3.61,1.38-.74.3-2,.67-2.75.1a2.94,2.94,0,0,1-.57-1.34c-.15-.52-.29-1.06-.46-1.59a13.79,13.79,0,0,0-1.49-3.24,12,12,0,0,1,2,.64,20.73,20.73,0,0,0,3.48.66c1.32.14,2.64.17,4,.18A13.31,13.31,0,0,0,151.2,12.28Z"/><path class="cls-2" d="M137.4,20.42a3.88,3.88,0,0,1-1.13,1.41,2.87,2.87,0,0,1-1.72.45,2.64,2.64,0,0,1-1-.1c-.52-.21-.65-.8-.79-1.29a26.14,26.14,0,0,0-3.34-7.47c-.45-.69-.92-1.36-1.43-2a41.29,41.29,0,0,0-3.41-3.7c-.5-.5-1-1-1.51-1.46-.33-.28-1-.8-.75-1.31.34-.73,1.84-.77,2.5-.82a6.53,6.53,0,0,1,3.92.92,17.68,17.68,0,0,1,2.59,2.05,24.14,24.14,0,0,1,3.45,4.16c.23.35.45.71.67,1.07A17.45,17.45,0,0,1,137.16,16a9.68,9.68,0,0,1,.43,2.38A4.33,4.33,0,0,1,137.4,20.42Z"/><path class="cls-6" d="M137.4,20.42a3.88,3.88,0,0,1-1.13,1.41,2.87,2.87,0,0,1-1.72.45,2.64,2.64,0,0,1-1-.1c-.52-.21-.65-.8-.79-1.29a26.14,26.14,0,0,0-3.34-7.47,1.22,1.22,0,0,0,.4.15,5.29,5.29,0,0,0,3.08-.67,5.83,5.83,0,0,0,1.88-1.65c.23.35.45.71.67,1.07A17.45,17.45,0,0,1,137.16,16a9.68,9.68,0,0,1,.43,2.38A4.33,4.33,0,0,1,137.4,20.42Z"/><path class="cls-2" d="M106,37.07c-1.49.08-3-1.44-3.5-2.7a19,19,0,0,1-.83-2.91,18,18,0,0,0-2.06-5,14.42,14.42,0,0,0-3.11-3.68,28.14,28.14,0,0,0-2.6-1.88,36,36,0,0,0-5.43-3.17A4.12,4.12,0,0,1,87,16.91c-1.29-1.42,1.22-3.12,2.49-3.21a9,9,0,0,1,4.78,1.36,29,29,0,0,1,9.5,8.34c.1.15.21.28.29.42a33,33,0,0,1,4.7,9.43A3.05,3.05,0,0,1,106,37.07Z"/><path class="cls-6" d="M106,37.07c-1.49.08-3-1.44-3.5-2.7a19,19,0,0,1-.83-2.91,18,18,0,0,0-2.06-5h.19a5.71,5.71,0,0,0,2.61-.72,4.58,4.58,0,0,0,1.7-1.92,33,33,0,0,1,4.7,9.43A3.05,3.05,0,0,1,106,37.07Z"/><path class="cls-2" d="M114.55,34.21c-1,.33-3.43.08-4.16-.79a3.17,3.17,0,0,1-.36-1.26,30.74,30.74,0,0,0-2-5.22A25.72,25.72,0,0,0,105.72,23a26.59,26.59,0,0,0-5.41-5.6,24.81,24.81,0,0,0-6-3.45,3.36,3.36,0,0,1-1.18-.67c-1-1,.72-2.28,1.56-2.64a6.54,6.54,0,0,1,2.59-.47,12.17,12.17,0,0,1,5.57,1.37,22.68,22.68,0,0,1,7.08,6.18c.68.84,1.33,1.68,2,2.54a36.41,36.41,0,0,1,3.61,6.07C116.86,29.29,117.93,33.1,114.55,34.21Z"/><path class="cls-6" d="M114.55,34.21c-1,.33-3.43.08-4.16-.79a3.17,3.17,0,0,1-.36-1.26,30.74,30.74,0,0,0-2-5.22A25.72,25.72,0,0,0,105.72,23a8.69,8.69,0,0,0,3.79-.56,5.1,5.1,0,0,0,2.12-1.81c.08-.12.16-.24.23-.37a36.41,36.41,0,0,1,3.61,6.07C116.86,29.29,117.93,33.1,114.55,34.21Z"/><path class="cls-2" d="M122.63,30.42c-1,.33-3.43.08-4.16-.79-.27-.33-.25-.86-.37-1.26a30.7,30.7,0,0,0-2-5.22,25.89,25.89,0,0,0-2.06-3.52,26.44,26.44,0,0,0-5.69-6,25.19,25.19,0,0,0-6-3.45,3.29,3.29,0,0,1-1.18-.67c-.82-.83,1.21-1.6,1.73-1.81a12.54,12.54,0,0,1,4.37-.9,4.81,4.81,0,0,1,1.64.15,13.11,13.11,0,0,1,2,.82A22.79,22.79,0,0,1,118,13.93c.79,1,1.53,1.93,2.23,2.93a36,36,0,0,1,3.33,5.68C124.94,25.5,126,29.31,122.63,30.42Z"/><path class="cls-6" d="M122.63,30.42c-1,.33-3.43.08-4.16-.79-.27-.33-.25-.86-.37-1.26a30.7,30.7,0,0,0-2-5.22,25.89,25.89,0,0,0-2.06-3.52,6,6,0,0,0,4.06-.86,6.55,6.55,0,0,0,2.08-1.91,36,36,0,0,1,3.33,5.68C124.94,25.5,126,29.31,122.63,30.42Z"/><path class="cls-2" d="M130,26.23c-1,.33-3.43.08-4.16-.79-.27-.33-.25-.86-.36-1.26a31.17,31.17,0,0,0-2-5.21A25.73,25.73,0,0,0,122,16.24a26.44,26.44,0,0,0-9.1-8.74c-.5-.29-1-.56-1.52-.81-.28-.14-1.29-.38-1-.86a.93.93,0,0,1,.42-.27,12.77,12.77,0,0,1,6.32-.86,11.08,11.08,0,0,1,3.64,1.12,14.11,14.11,0,0,1,4.57,3.92,50.13,50.13,0,0,1,3.07,4.17,36.11,36.11,0,0,1,2.48,4.44C132.27,21.31,133.34,25.13,130,26.23Z"/><path class="cls-6" d="M130,26.23c-1,.33-3.43.08-4.16-.79-.27-.33-.25-.86-.36-1.26a31.17,31.17,0,0,0-2-5.21A25.73,25.73,0,0,0,122,16.24a7.94,7.94,0,0,0,3.69-.29l.15,0a5.52,5.52,0,0,0,2.6-2,36.11,36.11,0,0,1,2.48,4.44C132.27,21.31,133.34,25.13,130,26.23Z"/><path class="cls-5" d="M94.3,15.06a26.57,26.57,0,0,1,3.63,2.36c-1.9.77-3.77,1.6-5.64,2.45a27.62,27.62,0,0,0-3.84-2.13l-.33-.14a22.25,22.25,0,0,1,4.24-2.67l.83-.42A10.41,10.41,0,0,1,94.3,15.06Z"/><path class="cls-5" d="M102.83,11.54a17.31,17.31,0,0,1,3.94,2.8c-1.61.47-3.21,1-4.79,1.53q-1.26.44-2.49.93A24.94,24.94,0,0,0,94.33,14c1.77-.83,3.59-1.55,5.41-2.26l1.9-.7C102,11.16,102.43,11.34,102.83,11.54Z"/><path class="cls-5" d="M116.31,12c-2.57.55-5.13,1.14-7.66,1.83l-.26-.2a26,26,0,0,0-5.25-3.13,75.19,75.19,0,0,1,8.57-2.29A20.89,20.89,0,0,1,116.31,12Z"/><path class="cls-5" d="M125.33,9.74l.39.5c-1.91.29-3.82.63-5.72,1a6.66,6.66,0,0,0-1.85.3,25.06,25.06,0,0,0-4.7-3.68,77.21,77.21,0,0,1,8.84-1h.08A16.68,16.68,0,0,1,125.33,9.74Z"/><path class="cls-5" d="M131.32,7.09a23.86,23.86,0,0,1,2.14,2.35c-2.21.1-4.42.33-6.62.64-.72-.83-1.49-1.61-2.27-2.37l-1-1a71.23,71.23,0,0,1,7.45.1Z"/><path class="cls-5" d="M151.41,11.69h0c-3-.57-5.93-1.39-8.93-1.84a43.06,43.06,0,0,0-7.26-.47,2.19,2.19,0,0,0-.21-.23c-.69-.72-1.46-1.36-2.16-2.09L132.79,7c.77.06,1.53.14,2.29.24a114.89,114.89,0,0,1,16.39,3.49A2.81,2.81,0,0,1,151.41,11.69Z"/><path class="cls-2" d="M97.45,76.4a17.58,17.58,0,0,1-2.77,5.26,57.54,57.54,0,0,1-25.52,19.48,46.1,46.1,0,0,1-11.48,2.68,37.61,37.61,0,0,1-7.86.27,19.18,19.18,0,0,1-4-.82A13.3,13.3,0,0,1,40.46,100c-1.42-1.45-3-3.57-3-5.67,0-.12,0-.26.15-.27a.25.25,0,0,1,.14.06A10.17,10.17,0,0,0,43.38,96,4.43,4.43,0,0,0,46,95.6a6,6,0,0,0,1.3-1.36c3-3.65,8.12-4.66,12.79-5.44a3,3,0,0,0-2.64-1.23,13.63,13.63,0,0,0-7.13,1.6c-3.08,1.66-5.6,4.56-9,5.25-2.75.55-.87-3.12-.28-4A25.67,25.67,0,0,1,57.75,79.6,3.1,3.1,0,0,0,59.44,79a3.43,3.43,0,0,0,.7-1.11A8,8,0,0,1,64.57,74c1-.33,2-.47,2.92-.85A14.84,14.84,0,0,0,69.56,72a38.86,38.86,0,0,1,15.59-5.38,21.58,21.58,0,0,1,6.59.36,9.19,9.19,0,0,1,3,1.26l.34.24a6.45,6.45,0,0,1,1.71,1.82,2,2,0,0,1,.19.31A7.76,7.76,0,0,1,97.45,76.4Z"/><path class="cls-6" d="M97.45,76.4a17.58,17.58,0,0,1-2.77,5.26,57.54,57.54,0,0,1-25.52,19.48,46.1,46.1,0,0,1-11.48,2.68,37.61,37.61,0,0,1-7.86.27,62,62,0,0,0,36-15.32,32.43,32.43,0,0,0,7.38-9,19.16,19.16,0,0,0,1.55-11.54l.34.24a6.45,6.45,0,0,1,1.71,1.82,2,2,0,0,1,.19.31A7.76,7.76,0,0,1,97.45,76.4Z"/><path class="cls-5" d="M52.94,83.17a12.85,12.85,0,0,0-5.37,2c-1.06.77-2.2,1.63-2.3,3.07a.93.93,0,0,0,.16.67.89.89,0,0,0,.81.2,9.59,9.59,0,0,0,2.77-1A21.1,21.1,0,0,1,56.89,86c1.45-.08,3.17.18,3.87,1.45s-.17,3.11-1.46,4A25.22,25.22,0,0,1,55,93.19c-1.21.53-2.63,1.55-2.84,3s2.36,2.2,3.53,2.36a13.66,13.66,0,0,0,4.13-.2,49.2,49.2,0,0,0,15.39-5.23,38.22,38.22,0,0,0,5.13-3.29C84.35,86.71,88,83,90,78.29a9.62,9.62,0,0,0,.68-5.9c-.43-1.81-2.7-3.23-4.45-3.42a14.15,14.15,0,0,0-5.69.74c-3.63,1.18-6.89,3.34-10.43,4.79-1.86.76-3.87,1.22-5.68,2.06-1.62.76-2.43,2.57-3.73,3.81C58.69,82.3,55.69,82.67,52.94,83.17Z"/><path class="cls-4" d="M107.49,56.68a9.19,9.19,0,0,0-1-1.75A38.89,38.89,0,0,0,94.37,44.49a2.5,2.5,0,0,0-1.23-.41A1.32,1.32,0,0,0,92,45c-.31,1,1.26,2.66,1.86,3.44A24.8,24.8,0,0,0,97,51.78a50.46,50.46,0,0,0,7.61,5.45,5.63,5.63,0,0,0,2.28,1C107.9,58.33,107.84,57.53,107.49,56.68Z"/><path class="cls-3" d="M104.69,54.3a2.52,2.52,0,0,0-.41-.69A34.11,34.11,0,0,0,99.7,49a30.15,30.15,0,0,0-3.43-2.75c-.42-.28-2.9-1.7-3.14-.67-.12.49.73,1.23,1,1.55a17.78,17.78,0,0,0,1.64,1.49q2.11,1.76,4.32,3.37c.73.54,1.46,1.06,2.2,1.57C102.56,53.69,105.08,55.39,104.69,54.3Z"/><path class="cls-2" d="M107.32,76.16a2.44,2.44,0,0,0,.6,1.3c1.92,2,2-2.16,2.07-3.08a52.52,52.52,0,0,0-2.15-16.71c-.14-.45-.35-1-.8-1.1a1,1,0,0,0-1,.47,2.6,2.6,0,0,0-.33,1.13,29.64,29.64,0,0,0-.09,4.52,75.19,75.19,0,0,0,.77,8.07C106.65,72.57,107,74.37,107.32,76.16Z"/><path class="cls-3" d="M108.5,72.42a.35.35,0,0,0,0,.08c.38.49.8.11.9-.39a14.79,14.79,0,0,0,.06-3.19,31.92,31.92,0,0,0-1.17-8.07c-.18-.62-.42-2.63-1.32-2.69-1.2-.09.53,9,.54,9.45.15.89.3,1.79.44,2.69A5.49,5.49,0,0,0,108.5,72.42Z"/><path class="cls-4" d="M119.94,90c-.66-4.3-2.9-7.66-5.76-10.81A13.25,13.25,0,0,0,111,76.38a4.06,4.06,0,0,0-2.6-.7c-1.36.3-1,1.67-.41,2.51a25.74,25.74,0,0,0,4.34,4.69,26.8,26.8,0,0,1,4.22,4.49,25.6,25.6,0,0,1,3.3,6.94A12.6,12.6,0,0,0,119.94,90Z"/><path class="cls-3" d="M109.28,78.16c1,1.71,2.88,2.63,4.46,3.81a23,23,0,0,1,4.73,5.11,1.24,1.24,0,0,0-.19-.58,34.14,34.14,0,0,0-7.08-9.41c-.46-.43-1.28-1.16-2-.75S109,77.69,109.28,78.16Z"/><path class="cls-4" d="M113.12,49.77a8.57,8.57,0,0,0-1.29-1.54A38.73,38.73,0,0,0,98,40.13,2.49,2.49,0,0,0,96.75,40a1.3,1.3,0,0,0-1,1.1c-.13,1.09,1.71,2.4,2.44,3.05a25.11,25.11,0,0,0,3.68,2.74,51.89,51.89,0,0,0,8.46,4,5.74,5.74,0,0,0,2.42.55C113.82,51.32,113.62,50.54,113.12,49.77Z"/><path class="cls-3" d="M110.9,48a2.71,2.71,0,0,0-.52-.6A33.16,33.16,0,0,0,105,43.68a28.72,28.72,0,0,0-3.86-2.08c-.47-.2-3.17-1.15-3.22-.1,0,.52.94,1.09,1.3,1.35A17.34,17.34,0,0,0,101.13,44q2.4,1.33,4.86,2.53c.81.39,1.62.78,2.44,1.15C108.7,47.82,111.49,49,110.9,48Z"/><path class="cls-2" d="M116.44,69a2.45,2.45,0,0,0,.83,1.17c2.24,1.58,1.63-2.49,1.49-3.4a52.46,52.46,0,0,0-5.12-16.05c-.22-.42-.51-.89-1-.94a1,1,0,0,0-.91.64,2.58,2.58,0,0,0-.11,1.17,29.52,29.52,0,0,0,.72,4.47,72.88,72.88,0,0,0,2.21,7.8Q115.45,66.41,116.44,69Z"/><path class="cls-3" d="M117,66.5l.07.07c.45.43.8,0,.83-.51a14.79,14.79,0,0,0-.4-3.17,31.47,31.47,0,0,0-2.32-7.81c-.27-.59-.8-2.54-1.7-2.48-1.2.09,1.82,8.83,1.91,9.28.27.86.54,1.73.82,2.6A5.47,5.47,0,0,0,117,66.5Z"/><path class="cls-4" d="M131.34,80.29c-1.42-4.11-4.22-7-7.6-9.6a13.07,13.07,0,0,0-3.59-2.18,4.1,4.1,0,0,0-2.69-.22c-1.28.54-.66,1.82.05,2.54a25.37,25.37,0,0,0,5.11,3.83,27,27,0,0,1,5,3.67,25.42,25.42,0,0,1,4.49,6.23A12.86,12.86,0,0,0,131.34,80.29Z"/><path class="cls-3" d="M118.42,70.5c1.35,1.44,3.4,1.91,5.21,2.69a22.91,22.91,0,0,1,5.77,3.9,1.27,1.27,0,0,0-.31-.52A34.05,34.05,0,0,0,120,69c-.54-.31-1.51-.83-2.08-.28S118.06,70.11,118.42,70.5Z"/><path class="cls-4" d="M117.79,41.64a9.15,9.15,0,0,0-1.64-1.17,38.92,38.92,0,0,0-15.38-4.4,2.55,2.55,0,0,0-1.29.15,1.29,1.29,0,0,0-.69,1.32c.15,1.08,2.26,1.89,3.12,2.34a26.16,26.16,0,0,0,4.25,1.74,51.39,51.39,0,0,0,9.19,1.75,5.8,5.8,0,0,0,2.49-.06C118.85,43,118.46,42.27,117.79,41.64Z"/><path class="cls-3" d="M114.53,40.76a2.46,2.46,0,0,0-.64-.47,33.47,33.47,0,0,0-6-2.5,29.51,29.51,0,0,0-4.23-1.19c-.5-.09-3.33-.43-3.16.61.09.5,1.16.85,1.56,1a17.39,17.39,0,0,0,2.1.73q2.63.78,5.29,1.42c.87.21,1.75.4,2.63.59C112.34,41,115.32,41.61,114.53,40.76Z"/><path class="cls-2" d="M125.79,59.4a2.49,2.49,0,0,0,1.1.93c2.56,1,1-2.82.59-3.67a52.44,52.44,0,0,0-9-14.26c-.32-.36-.72-.74-1.19-.66a1,1,0,0,0-.72.84,2.44,2.44,0,0,0,.18,1.16,28.8,28.8,0,0,0,1.81,4.15,73,73,0,0,0,4.08,7Q124.2,57.19,125.79,59.4Z"/><path class="cls-3" d="M125.7,56.25l.08,0c.55.28.77-.23.65-.73a15.14,15.14,0,0,0-1.28-2.92,31.72,31.72,0,0,0-4.44-6.84c-.43-.49-1.49-2.21-2.33-1.89-1.12.42,4.25,7.94,4.46,8.35l1.52,2.26A5.4,5.4,0,0,0,125.7,56.25Z"/><path class="cls-4" d="M143,66.65c-2.39-3.62-5.83-5.73-9.75-7.4a13.53,13.53,0,0,0-4-1.21,4.07,4.07,0,0,0-2.66.46c-1.1.84-.19,1.92.69,2.45a26,26,0,0,0,5.9,2.43,26.69,26.69,0,0,1,5.71,2.31,25.09,25.09,0,0,1,5.9,4.92A12.62,12.62,0,0,0,143,66.65Z"/><path class="cls-3" d="M128.5,60.47c1.62,1.12,3.73,1.15,5.66,1.54a23.14,23.14,0,0,1,6.46,2.59,1.23,1.23,0,0,0-.41-.44,34.23,34.23,0,0,0-10.44-5.48c-.6-.19-1.65-.5-2.09.16S128.06,60.16,128.5,60.47Z"/><path class="cls-6" d="M46.61,84.51a82.06,82.06,0,0,0,6.91,19.58c1.17,2.33,2.46,4.61,3.86,6.82-5.2-10.42-9.7-21.49-10.18-33.12-.12-2.87-.28-5.74-.29-8.66,0-1,0-4.06-.93-4.69-1.63-1.1-1.22,2.33-1.22,2.91,0,1.81.06,3.63.18,5.44a81.66,81.66,0,0,0,1.47,10.78C46.47,83.88,46.54,84.2,46.61,84.51Z"/><circle class="cls-9" cx="62.65" cy="51.77" r="2"/><circle class="cls-10" cx="62.02" cy="50.76" r="0.46"/><path class="cls-6" d="M61.36,50.44a1.85,1.85,0,0,1,1.24-.51,2.94,2.94,0,0,1,.88.1,1.31,1.31,0,0,1,.56.26,3,3,0,0,0-1.58-1,3,3,0,0,1-.51-.15c-.14-.07-.15-.2-.18-.36a.45.45,0,0,0-.45-.36.83.83,0,0,0-.43.13,2,2,0,0,0-.66.61,3.66,3.66,0,0,0-.44,1,3.18,3.18,0,0,0-.11,1.53.31.31,0,0,0,.15.24.52.52,0,0,0,.17,0c.35,0,.49.47.67.71a3,3,0,0,0,.71.66,1.64,1.64,0,0,1-.37-.59,2.16,2.16,0,0,1-.2-.7,2,2,0,0,1,.36-1.36A1,1,0,0,1,61.36,50.44Z"/><circle class="cls-9" cx="52.86" cy="45.59" r="2"/><circle class="cls-10" cx="51.85" cy="44.82" r="0.52"/><path class="cls-6" d="M52.15,43.86a.23.23,0,0,1,0-.21.26.26,0,0,1,.1-.11.64.64,0,0,1,.39-.07,3.71,3.71,0,0,1,1.43.31,2.22,2.22,0,0,1,.77.55,2.56,2.56,0,0,1,.46.9,1.67,1.67,0,0,0,.22.49c.29.35.58.06.9-.06a.29.29,0,0,1,.27,0c.15.08.14.28.12.43a4.42,4.42,0,0,1-1.11,2.38,1.17,1.17,0,0,1-.59.36.58.58,0,0,1-.58-.19c-.15-.17-.16-.4-.39-.51a1,1,0,0,0-.46,0A2.6,2.6,0,0,1,53,48a.82.82,0,0,1-.59-.37.07.07,0,0,1,0-.09s0,0,.08,0c.66,0,.84-1,.84-1.49a2.83,2.83,0,0,0-1.05-2Z"/><path class="cls-11" d="M61.67,35.61A62.44,62.44,0,0,1,80.8,22.2c2-.87,4.13-1.54,6.15-2.37-3.82-.76-8.21,1.11-11.62,2.76a36.44,36.44,0,0,0-4.76,2.77,81.21,81.21,0,0,0-7.37,5.82,35.33,35.33,0,0,0-3.51,3.91,49.15,49.15,0,0,0-3.19,4.15,22.89,22.89,0,0,0-1.38,2.27c-.17.31-1.09,2.18,0,1.56.28-.16.59-.78.79-1s.6-.75.9-1.11c.62-.77,1.27-1.52,1.93-2.26C59.71,37.63,60.67,36.61,61.67,35.61Z"/></g></g></g></svg>