<svg xmlns="http://www.w3.org/2000/svg" viewBox="0 0 111.86 83.89"><defs><style>.cls-1{fill:#f6b39f;}.cls-2{fill:#fc5439;}.cls-3{fill:#9e0e00;}.cls-4{fill:#333;}.cls-5{fill:#b30000;}.cls-6{fill:#ffd0cc;}.cls-7{fill:#ff6354;}.cls-8{fill:#fff;}</style></defs><g id="Layer_2" data-name="Layer 2"><g id="Layer"><path class="cls-1" d="M28.32,45.44c-.34.07-3.77.5-3.06,1.39.22.29.86.23,1.17.22A16.08,16.08,0,0,0,29,46.6c1.67-.35,3.32-.81,5-1.27,1.24-.35,2.45-.8,3.69-1.13a17.34,17.34,0,0,0,3.79-1.11,3.08,3.08,0,0,0,1.06-.83A1.47,1.47,0,0,0,42.79,41a1.51,1.51,0,0,0-1.39-1,3.11,3.11,0,0,0-1.71.53,6.51,6.51,0,0,0-1.32,1,6.64,6.64,0,0,1-2.08,1.53c-.77.33-1.55.62-2.36.89A53.81,53.81,0,0,1,28.32,45.44Z"/><path class="cls-2" d="M17.92,54.49a3.23,3.23,0,0,0-.73,1.2,5.89,5.89,0,0,0,1.65-1.3l4.28-4.33a26.64,26.64,0,0,0,3-3c.15-.21.29-.49.15-.71a.47.47,0,0,0-.46-.19,1.24,1.24,0,0,0-.48.19,15.23,15.23,0,0,0-3.73,3.74C20.35,51.53,19.15,53,17.92,54.49Z"/><path class="cls-1" d="M17.32,56.06a4.09,4.09,0,0,0,.42-.58c0-.07.16-.52.18-.53a5.65,5.65,0,0,0-1.4.92,4.78,4.78,0,0,0-.55.63,3.53,3.53,0,0,0-.24.34c0,.07-.11.26-.17.3a3.88,3.88,0,0,0,.87-.75A5.43,5.43,0,0,0,16,57.61C16.44,57.11,16.89,56.6,17.32,56.06Z"/><path class="cls-1" d="M43.19,35.34c-.35,0-3.76-.55-3.33.5.14.34.76.46,1.07.53a14.88,14.88,0,0,0,2.59.28c1.71.12,3.41.13,5.12.14,1.29,0,2.58-.1,3.86-.08a16.84,16.84,0,0,0,4,0,3.11,3.11,0,0,0,1.25-.5,1.36,1.36,0,0,0-.45-2.48,3.21,3.21,0,0,0-1.79,0,7.06,7.06,0,0,0-1.54.61,6.52,6.52,0,0,1-2.42.9c-.84.11-1.66.18-2.51.21A51,51,0,0,1,43.19,35.34Z"/><path class="cls-2" d="M30.7,41.2a3.13,3.13,0,0,0-1,.95,5.66,5.66,0,0,0,1.94-.8l5.3-3a26.4,26.4,0,0,0,3.71-2.09c.19-.16.4-.4.33-.64a.46.46,0,0,0-.38-.31,1.16,1.16,0,0,0-.52,0,15.05,15.05,0,0,0-4.61,2.57C33.85,39,32.29,40.12,30.7,41.2Z"/><path class="cls-1" d="M29.69,42.54a6.17,6.17,0,0,0,.57-.44c.06-.06.29-.46.32-.46a5.62,5.62,0,0,0-1.6.5,5.3,5.3,0,0,0-.71.45,2.69,2.69,0,0,0-.32.27c-.06,0-.17.22-.25.24a3.55,3.55,0,0,0,1-.49,5.62,5.62,0,0,0-.76,1C28.56,43.31,29.14,42.94,29.69,42.54Z"/><path class="cls-1" d="M44.8,30.48c-.33-.11-3.48-1.52-3.34-.4,0,.37.62.64.89.79a14.12,14.12,0,0,0,2.43,1c1.61.57,3.26,1,4.9,1.49,1.24.35,2.51.59,3.74,1a17.44,17.44,0,0,0,3.81,1,3.17,3.17,0,0,0,1.34-.15,1.48,1.48,0,0,0,.91-1,1.51,1.51,0,0,0-.68-1.56,3.15,3.15,0,0,0-1.73-.44,7.67,7.67,0,0,0-1.66.18,6.4,6.4,0,0,1-2.57.23c-.83-.12-1.65-.27-2.47-.47A48.78,48.78,0,0,1,44.8,30.48Z"/><path class="cls-2" d="M31.22,32.81a3.36,3.36,0,0,0-1.26.65,5.54,5.54,0,0,0,2.09-.26L38,31.72a26.13,26.13,0,0,0,4.12-1c.23-.1.5-.27.5-.53a.5.5,0,0,0-.29-.4,1.5,1.5,0,0,0-.52-.09,15.35,15.35,0,0,0-5.13,1.27C34.83,31.55,33,32.2,31.22,32.81Z"/><path class="cls-1" d="M29.88,33.85a6.54,6.54,0,0,0,.66-.28c.08,0,.41-.36.44-.36a5.58,5.58,0,0,0-1.68.06,5.65,5.65,0,0,0-.8.24c-.13.06-.26.11-.38.18s-.23.16-.3.16A3.62,3.62,0,0,0,29,33.66a5.68,5.68,0,0,0-1,.81C28.59,34.29,29.24,34.08,29.88,33.85Z"/><path class="cls-1" d="M31.36,39.36c-.35,0-3.76-.55-3.33.5.14.34.76.45,1.06.52a16.17,16.17,0,0,0,2.6.29c1.71.12,3.41.12,5.12.13,1.29,0,2.58-.1,3.86-.07a18,18,0,0,0,3.95,0,3.27,3.27,0,0,0,1.25-.51,1.35,1.35,0,0,0-.45-2.47,3.12,3.12,0,0,0-1.79,0,7.38,7.38,0,0,0-1.55.62,6.59,6.59,0,0,1-2.41.9c-.84.1-1.66.17-2.51.2A53.42,53.42,0,0,1,31.36,39.36Z"/><path class="cls-2" d="M18.87,45.21a3.24,3.24,0,0,0-1,.95,5.66,5.66,0,0,0,1.94-.8l5.3-3a25.74,25.74,0,0,0,3.7-2.09c.2-.16.41-.39.34-.64a.46.46,0,0,0-.38-.31,1.32,1.32,0,0,0-.52.05A15.08,15.08,0,0,0,23.61,42C22,43,20.46,44.13,18.87,45.21Z"/><path class="cls-1" d="M17.86,46.56a4.9,4.9,0,0,0,.57-.45c.06,0,.29-.45.32-.46a6,6,0,0,0-1.6.5,5.3,5.3,0,0,0-.71.45l-.32.27c-.06.06-.17.22-.25.24a3.52,3.52,0,0,0,1-.48,5.31,5.31,0,0,0-.76,1C16.73,47.33,17.3,47,17.86,46.56Z"/><path class="cls-1" d="M53.39,64.16c-.08.34-1.1,3.64,0,3.37.35-.09.56-.69.68-1A15.68,15.68,0,0,0,54.73,64c.37-1.66.63-3.35.89-5,.2-1.27.29-2.56.5-3.83a17.65,17.65,0,0,0,.56-3.9,3.13,3.13,0,0,0-.32-1.32,1.53,1.53,0,0,0-1-.79,1.5,1.5,0,0,0-1.46.87,3.06,3.06,0,0,0-.23,1.77A7,7,0,0,0,54,53.41a6.46,6.46,0,0,1,.53,2.51c0,.85-.07,1.68-.17,2.52A52.53,52.53,0,0,1,53.39,64.16Z"/><path class="cls-2" d="M57.33,77.37a3.25,3.25,0,0,0,.78,1.17,5.46,5.46,0,0,0-.5-2c-.72-1.9-1.45-3.79-2.17-5.69a26,26,0,0,0-1.52-4c-.13-.22-.33-.46-.58-.43a.47.47,0,0,0-.37.34,1.29,1.29,0,0,0,0,.52,15.12,15.12,0,0,0,1.86,4.94C55.64,73.94,56.5,75.65,57.33,77.37Z"/><path class="cls-1" d="M58.51,78.57a5.54,5.54,0,0,0-.36-.62c0-.07-.4-.36-.41-.39A6.25,6.25,0,0,0,58,79.22a5.23,5.23,0,0,0,.35.76,3.1,3.1,0,0,0,.21.36c0,.07.19.21.2.28a3.86,3.86,0,0,0-.32-1.1,5.72,5.72,0,0,0,.92.92C59.1,79.81,58.82,79.18,58.51,78.57Z"/><path class="cls-1" d="M59,61.56c0,.35-.42,3.78.62,3.31.33-.15.42-.78.49-1.09a16.08,16.08,0,0,0,.18-2.6c.06-1.71,0-3.42,0-5.12,0-1.28-.19-2.57-.22-3.86a17.33,17.33,0,0,0-.17-3.94A3.19,3.19,0,0,0,59.31,47a1.36,1.36,0,0,0-2.46.54,3.18,3.18,0,0,0,.1,1.78,7.72,7.72,0,0,0,.67,1.53,6.48,6.48,0,0,1,1,2.38c.14.83.24,1.65.3,2.5A53.46,53.46,0,0,1,59,61.56Z"/><path class="cls-2" d="M65.31,73.82a3.26,3.26,0,0,0,1,1,5.59,5.59,0,0,0-.87-1.91l-3.18-5.19A25.66,25.66,0,0,0,60,64.1c-.16-.2-.4-.4-.65-.32a.49.49,0,0,0-.3.4,1.46,1.46,0,0,0,.07.51,15.11,15.11,0,0,0,2.75,4.52C63,70.75,64.18,72.28,65.31,73.82Z"/><path class="cls-1" d="M66.7,74.78a4.92,4.92,0,0,0-.47-.54c0-.06-.47-.28-.47-.31a5.83,5.83,0,0,0,.56,1.58,6.45,6.45,0,0,0,.47.69c.09.11.19.21.28.31s.23.17.25.24a3.64,3.64,0,0,0-.52-1,5.69,5.69,0,0,0,1.08.73C67.51,75.88,67.11,75.33,66.7,74.78Z"/><path class="cls-1" d="M67.11,56.76c.15.32,1.4,3.53,2.09,2.63.23-.29,0-.89-.07-1.18a15.89,15.89,0,0,0-1-2.39c-.75-1.54-1.6-3-2.45-4.51-.63-1.11-1.37-2.18-2-3.3a16.93,16.93,0,0,0-2-3.41,3.18,3.18,0,0,0-1.06-.83,1.36,1.36,0,0,0-1.92,1.62,3.12,3.12,0,0,0,.93,1.54,7.18,7.18,0,0,0,1.3,1,6.6,6.6,0,0,1,2,1.64c.51.67,1,1.36,1.43,2.08A52.29,52.29,0,0,1,67.11,56.76Z"/><path class="cls-2" d="M78.41,64.65a3.32,3.32,0,0,0,1.35.42,6,6,0,0,0-1.66-1.28l-5.25-3.1a24.48,24.48,0,0,0-3.65-2.16.68.68,0,0,0-.73,0,.48.48,0,0,0-.08.49,1.07,1.07,0,0,0,.31.42,14.88,14.88,0,0,0,4.53,2.71C75,63,76.69,63.82,78.41,64.65Z"/><path class="cls-1" d="M80.09,64.85a5.52,5.52,0,0,0-.67-.27c-.07,0-.54,0-.56,0a5.74,5.74,0,0,0,1.23,1.13,5.34,5.34,0,0,0,.75.39l.39.14c.08,0,.28,0,.33.1a3.46,3.46,0,0,0-.94-.66,5.18,5.18,0,0,0,1.3.14Q81,65.29,80.09,64.85Z"/><path class="cls-1" d="M69.54,54.8c.08.34.53,3.76,1.42,3.05.29-.23.22-.86.21-1.17a17.08,17.08,0,0,0-.46-2.57c-.37-1.67-.84-3.31-1.31-5-.36-1.24-.82-2.45-1.16-3.69a17.33,17.33,0,0,0-1.14-3.78,3,3,0,0,0-.84-1A1.35,1.35,0,0,0,64,41.76a3.07,3.07,0,0,0,.53,1.7,7.32,7.32,0,0,0,1,1.32,6.47,6.47,0,0,1,1.54,2.06A23.91,23.91,0,0,1,68,49.2,50.83,50.83,0,0,1,69.54,54.8Z"/><path class="cls-2" d="M81.89,58.71a3.32,3.32,0,0,0,1.4-.17,5.76,5.76,0,0,0-2.05-.49l-6-.66A25.12,25.12,0,0,0,71,56.92c-.26,0-.57.08-.65.32a.48.48,0,0,0,.13.48,1.18,1.18,0,0,0,.45.26,15,15,0,0,0,5.25.6C78.06,58.64,80,58.66,81.89,58.71Z"/><path class="cls-1" d="M83.5,58.21a3.47,3.47,0,0,0-.72,0c-.08,0-.51.19-.53.18a5.62,5.62,0,0,0,1.59.53,5.92,5.92,0,0,0,.84,0l.42,0c.08,0,.27-.08.34,0a3.71,3.71,0,0,0-1.13-.22,5.6,5.6,0,0,0,1.24-.4C84.86,58.24,84.18,58.21,83.5,58.21Z"/><path class="cls-3" d="M93.9,1.91c.1-.18.21-.36.32-.53A3.18,3.18,0,0,1,95.47.16c1.14-.54,1.74.38,2.1,1.35a20.93,20.93,0,0,1,1.3,6.71c0,.71-.2,1.53-.12,2.23-.07-.65-.86-1-1.51-.94a6.47,6.47,0,0,0-3.2,1.2c-.25.16-.57.33-.83.19C92,10.26,92.26,8,92.37,7A13.56,13.56,0,0,1,93.9,1.91Z"/><path class="cls-2" d="M97.33,4.18a5.19,5.19,0,0,1,.57-1.3c.37-.55,1-1.71,1.75-1.82.51-.07.95.37,1.24.8A7.32,7.32,0,0,1,102,6.77a8.76,8.76,0,0,1-2.11,4.63,5.47,5.47,0,0,1-2.55-2.61A6.25,6.25,0,0,1,97,6.11,7.46,7.46,0,0,1,97.33,4.18Z"/><path class="cls-3" d="M104.29,5.72a9,9,0,0,1,6.07,1,1.31,1.31,0,0,1,.51.45c.3.52-.14,1.15-.58,1.55a12.36,12.36,0,0,1-8.46,2.85,5.16,5.16,0,0,1-2-.32c-1.34-.57-1.95-2.24-.66-3.16A13,13,0,0,1,104.29,5.72Z"/><path class="cls-2" d="M92.6,13.93q3.27.12,6.53.19c3.78.1,7.67.18,11.22-1.14.74-.27,1.58-.81,1.5-1.59a1.73,1.73,0,0,0-.87-1.15,13.48,13.48,0,0,0-4.67-1.91A24.24,24.24,0,0,0,90,9.9a3.56,3.56,0,0,0-1.6,1.28C87.05,13.58,91.28,13.88,92.6,13.93Z"/><circle class="cls-4" cx="26.94" cy="50.09" r="1.19"/><path class="cls-5" d="M27.94,49.17c.44.27.68.85,1.13,1.18s.8.53,1.19.81a1.48,1.48,0,0,1,.56.63.64.64,0,0,1-.16.76.66.66,0,0,1-.53.08c-.89-.17-1.45-1-2.38-1.17-.36-.05-.91-.05-1.18-.31a1.2,1.2,0,0,1-.22-1.08,1.68,1.68,0,0,1,.37-.8A.91.91,0,0,1,27.94,49.17Z"/><path class="cls-1" d="M24.46,60.65c.13-.17,1-1,.49-1.13a.53.53,0,0,0-.42.08,6.35,6.35,0,0,0-1.82,1.76A39,39,0,0,1,14,69.3c-1,.64-2,1.09-3,1.64a13.84,13.84,0,0,1-3.4,1.34,9.91,9.91,0,0,1-5,.16A2.62,2.62,0,0,1,.7,70.82,3.62,3.62,0,0,1,.8,68c1.1-2.77,3.76-4.52,6-6.44a18.84,18.84,0,0,0,5.23-6.51l0-.05a12.13,12.13,0,0,0,.59-1.66,9.68,9.68,0,0,0,.24-4.44,6.17,6.17,0,0,0-2.48-3.67A5,5,0,0,1,12.14,48a8.46,8.46,0,0,1,.16,3.17,14.58,14.58,0,0,1-2.38,6.18,20.79,20.79,0,0,1-4.38,4.69c-.34.28-.69.55-1,.81a13.14,13.14,0,0,0-3.35,3.27A7,7,0,0,0,0,69.39a4.63,4.63,0,0,0,.3,2c.56,1.43,2.18,1.88,3.57,2a13.28,13.28,0,0,0,5.59-1,24.18,24.18,0,0,0,5.45-2.73,36.74,36.74,0,0,0,7.94-7.15C23.41,62,23.94,61.33,24.46,60.65Z"/><path class="cls-1" d="M88.63,9A46.35,46.35,0,0,1,95.15,7.1a18.26,18.26,0,0,1,4.69-.67c1.61.1,1,1.44.44,2.44-1,1.68-2.58,2.9-3.94,4.25-3.55,3.51-5.67,8.18-8.47,12.31A43.57,43.57,0,0,1,55.81,44.16c-1,.08-2.22.05-2.84-.77a3.7,3.7,0,0,1-.53-1.59,11.62,11.62,0,0,0-2.75-5.5c-.32-.36-.67-.7-1-1.07s-.28-.74,0-1.24A12.6,12.6,0,0,1,51,30.87a9.17,9.17,0,0,1,1.46-1c.83-.53,1.55-1.21,2.33-1.8s1.7-1.29,2.55-1.92c.69-.51,1.38-1,2.08-1.5A142.23,142.23,0,0,1,77.56,13.75,105.87,105.87,0,0,1,88.63,9Z"/><path class="cls-5" d="M100.31,9.23c-.36.68-.76,1.33-1.16,2a45.24,45.24,0,0,1-2.66,4,10.36,10.36,0,0,1-3,2.82,2.08,2.08,0,0,1-.72.3,1,1,0,0,1-.46-.05.69.69,0,0,1-.27-.17,1.1,1.1,0,0,1-.24-.42,7.2,7.2,0,0,1-.46-1.11c-.05-.24,0-.5,0-.76A4.55,4.55,0,0,0,90.59,14,7.71,7.71,0,0,0,89,12.51a5,5,0,0,0-1.45-.88,7.42,7.42,0,0,1-1.24-.38,1,1,0,0,1-.5-1c.1-.34.53-.47.82-.6,1-.44,2-.8,3-1.16a29.74,29.74,0,0,1,9.26-2.2,3.69,3.69,0,0,1,.94.06,2.36,2.36,0,0,1,.69.24.77.77,0,0,1,.31.36,1.08,1.08,0,0,1,.12.5A3.46,3.46,0,0,1,100.31,9.23Z"/><path class="cls-6" d="M95.28,7.74c-1.19.24-2.28.94-3.49,1-.47,0-.93,0-1.4,0A2.49,2.49,0,0,0,89,9c-.31.18-.06.5.17.62a2,2,0,0,0,.47.15,6,6,0,0,1,2.23,1.05,5.85,5.85,0,0,1,.47.4c.11.11.25.33.4.39.33.15.62-.18.67-.47s.06-.53.37-.67a1.17,1.17,0,0,0,.45-.25c.21-.22.14-.59.29-.85.28-.5,1-.41,1.39-.74a.65.65,0,0,0,.17-.72C96,7.63,95.52,7.7,95.28,7.74Z"/><path class="cls-3" d="M100.31,9.23c-.36.68-.76,1.33-1.16,2a45.24,45.24,0,0,1-2.66,4,10.36,10.36,0,0,1-3,2.82,2.08,2.08,0,0,1-.72.3,1,1,0,0,1-.46-.05,4.54,4.54,0,0,1-.09-.51,1.65,1.65,0,0,1,.41-1.46,3.76,3.76,0,0,1,1-.55,9.84,9.84,0,0,0,2.67-2,23,23,0,0,0,2.55-3.36,29.08,29.08,0,0,0,2-3.31.64.64,0,0,1,.08.19C101.13,7.93,100.6,8.68,100.31,9.23Z"/><path class="cls-2" d="M92.54,20.34c-.29,1.12-.72,2.95-2,3.42a1.26,1.26,0,0,1-1.68-.43c-.66-.92-.74-2.72-1.1-3.47a8.17,8.17,0,0,0-2.17-2.58,16.25,16.25,0,0,0-3.22-2.11,4.41,4.41,0,0,1-1.54-1c-.15-.2-.18-.41-.39-.58s-.33-.22-.5-.34-.19-.23-.25-.41a.21.21,0,0,1,0-.11s0-.06.09-.08.37-.16.56-.24c.71-.28,1.43-.63,2.14-1a14.31,14.31,0,0,1,4.83-1.7,4.7,4.7,0,0,1,4.36,1.68A6.77,6.77,0,0,1,92.91,15c0,.4,0,.81,0,1.22A15.07,15.07,0,0,1,92.54,20.34Z"/><path class="cls-5" d="M92.54,20.34c-.29,1.12-.72,2.95-2,3.42a1.26,1.26,0,0,1-1.68-.43c-.13-.86-.11-1.76-.31-2.61-.17-.68-.32-1.38-.51-2.06,0,0,.23.16.24.17l.2.22c.3.32.93.21,1.33.12a3.32,3.32,0,0,0,1.34-.6,4.38,4.38,0,0,0,.54-.51,7.91,7.91,0,0,0,.52-.66,7.48,7.48,0,0,0,.7-1.18A15.07,15.07,0,0,1,92.54,20.34Z"/><path class="cls-6" d="M85.19,10.53a1.34,1.34,0,0,0-.31.22,1.69,1.69,0,0,1-.67.42c-.28.07-.56.08-.84.14s-.64.23-.64.46.72.43.93.5a6.35,6.35,0,0,1,1.47.68A13,13,0,0,1,87,14.81a.83.83,0,0,0,.36.26c.59.18.35-.68.56-.92a.56.56,0,0,1,.51-.15,3.32,3.32,0,0,1,.54.15.48.48,0,0,0,.39,0c.16-.1.17-.33.14-.52a2.39,2.39,0,0,0-.13-.51c0-.14-.1-.31,0-.42a.3.3,0,0,1,.15-.07c.25,0,.49.2.74.21.41,0,.07-.51,0-.7a3.14,3.14,0,0,0-1.78-1.65,4.81,4.81,0,0,0-1.51-.23,8.77,8.77,0,0,0-1,.05A2,2,0,0,0,85.19,10.53Z"/><path class="cls-5" d="M88.44,29a2.45,2.45,0,0,1-1.08,1,2.22,2.22,0,0,1-.89.14,3.57,3.57,0,0,1-2.16-.8,3.17,3.17,0,0,1-.48-.49,4.34,4.34,0,0,1-.93-2.1A8.87,8.87,0,0,0,82.37,25a9.93,9.93,0,0,0-3.73-4.36c-1.36-.87-3.1-1.51-3.9-3a2.52,2.52,0,0,1-.3-2,3.24,3.24,0,0,1,1.5-1.33,23.64,23.64,0,0,1,3-1.49,7.61,7.61,0,0,1,1.89-.55,6.38,6.38,0,0,1,4.62,1.52A10.15,10.15,0,0,1,89,19.27l0,.09C89.78,22.26,90.15,26.31,88.44,29Z"/><path class="cls-3" d="M88.44,29a2.45,2.45,0,0,1-1.08,1,2.22,2.22,0,0,1-.89.14,3.57,3.57,0,0,1-2.16-.8,9.46,9.46,0,0,1-.1-2.13A24.94,24.94,0,0,0,84,23.51c0-.32-.13-.9.22-1a3.59,3.59,0,0,1,.66,0,4.5,4.5,0,0,0,.64-.11,5.11,5.11,0,0,0,2.29-1.25A5.29,5.29,0,0,0,89,19.27l0,.09C89.78,22.26,90.15,26.31,88.44,29Z"/><path class="cls-2" d="M83.87,33.08a5.17,5.17,0,0,1-3.73,2.37,2.66,2.66,0,0,1-1.45-.22c-1-.51-.81-1.34-.9-2.29,0-.19-.05-.38-.08-.56A10,10,0,0,0,77,30a11.59,11.59,0,0,0-2.86-4c-1.57-1.38-3.54-2.2-5.29-3.32a4.52,4.52,0,0,1-1.61-1.52,2.16,2.16,0,0,1-.27-1.05.83.83,0,0,1,.51-.87c.74-.47,1.48-.93,2.24-1.38,1-.59,2-1.15,3-1.7l.08,0c.49-.27,1-.59,1.52-.82a2.71,2.71,0,0,1,1.47-.05,9.1,9.1,0,0,1,3.65,1.27,12.28,12.28,0,0,1,2.93,2.78,16.24,16.24,0,0,1,2,3.15A10.06,10.06,0,0,1,85,24.34a15.79,15.79,0,0,1,.29,2.28A10.4,10.4,0,0,1,83.87,33.08Z"/><path class="cls-5" d="M83.87,33.08a5.17,5.17,0,0,1-3.73,2.37,2.66,2.66,0,0,1-1.45-.22c-1-.51-.81-1.34-.9-2.29,0-.19-.05-.38-.08-.56.13-.64.4-1.27.53-1.91a6.68,6.68,0,0,0,.09-1.73,11.29,11.29,0,0,0-.23-1.84c-.07-.32-.34-.68-.28-1s.52-.09.82-.05a5.24,5.24,0,0,0,3-.44l0,0a5.32,5.32,0,0,0,2.48-2.5c.06-.13.12-.26.17-.4A10.06,10.06,0,0,1,85,24.34a15.79,15.79,0,0,1,.29,2.28A10.4,10.4,0,0,1,83.87,33.08Z"/><path class="cls-5" d="M79.53,33.19a7.46,7.46,0,0,1-1.14,3.93,5.25,5.25,0,0,1-3.2,2.37,5.88,5.88,0,0,1-1.57.07,2.78,2.78,0,0,1-1.17-.27,3.12,3.12,0,0,1-.93-.95,1.12,1.12,0,0,1-.2-.86,4.91,4.91,0,0,0-.68-2.18l-.27-.51C68.65,31.58,66,29,63.29,26.56A6.32,6.32,0,0,1,62,25.08c-.32-.57-.7-1.39-.31-2a2,2,0,0,1,.49-.52,22,22,0,0,1,2.41-1.67l1-.6a11.35,11.35,0,0,1,1.56-.86,7,7,0,0,1,5.58.46,12.2,12.2,0,0,1,5.43,5.59c0,.08.07.15.1.22A15.45,15.45,0,0,1,79.53,33.19Z"/><path class="cls-3" d="M79.53,33.19a7.46,7.46,0,0,1-1.14,3.93,5.25,5.25,0,0,1-3.2,2.37,5.88,5.88,0,0,1-1.57.07,2.78,2.78,0,0,1-1.17-.27,3.12,3.12,0,0,1-.93-.95,1.12,1.12,0,0,1-.2-.86,4.91,4.91,0,0,0-.68-2.18c.06-.29.11-.59.15-.88a12.42,12.42,0,0,0,.1-2.79c0-.49-.51-1.88,0-2.18.21-.13.64-.06.88-.08a7.5,7.5,0,0,0,1.14-.18,8.52,8.52,0,0,0,2.23-.86,10,10,0,0,0,2.13-1.53,5.73,5.73,0,0,0,1-1.11A15.45,15.45,0,0,1,79.53,33.19Z"/><path class="cls-2" d="M72.76,37.78a5.31,5.31,0,0,1-1.16,3.15,5.35,5.35,0,0,1-1.92,1.21,5.29,5.29,0,0,1-2.8.37c-.77-.14-2-.71-2.18-1.59-.08-.48,0-1-.12-1.49a8.16,8.16,0,0,0-.6-1.58h0A12.16,12.16,0,0,0,62.13,35c-1.53-1.71-3.58-2.83-5.45-4.16-1.12-.8-1.83-1.8-1.22-3.19a3.42,3.42,0,0,1,1.07-1.14l1.9-1.62a8,8,0,0,1,3.85-2.19,5.92,5.92,0,0,1,4,1.16,13.64,13.64,0,0,1,4.63,5.53,19.9,19.9,0,0,1,1.43,4.12A14.39,14.39,0,0,1,72.76,37.78Z"/><path class="cls-5" d="M72.76,37.78a5.31,5.31,0,0,1-1.16,3.15,5.35,5.35,0,0,1-1.92,1.21,5.29,5.29,0,0,1-2.8.37c-.77-.14-2-.71-2.18-1.59-.08-.48,0-1-.12-1.49a8.16,8.16,0,0,0-.6-1.58h0c0-.41,0-.82,0-1.24,0-.87-.25-1.71-.35-2.57a5.38,5.38,0,0,1,.23-1.17A8.45,8.45,0,0,0,68.8,31.5a7.4,7.4,0,0,0,1.14-.86,3.94,3.94,0,0,0,.79-.89,2.11,2.11,0,0,0,.18-.33,19.9,19.9,0,0,1,1.43,4.12A14.39,14.39,0,0,1,72.76,37.78Z"/><path class="cls-7" d="M66.1,41.41a3.06,3.06,0,0,1-1.37,2.65,3.64,3.64,0,0,1-2.25.37,6.94,6.94,0,0,1-1.72-.51l-.48-.21a5,5,0,0,1-1.93-1.41c-.46-.62-.38-1.41-.69-2.11a7.6,7.6,0,0,0-2.24-2.71,15.86,15.86,0,0,1-2.05-1.78,5.59,5.59,0,0,1-1.22-2.83,9.41,9.41,0,0,1-.08-1.68,1.59,1.59,0,0,1,.5-1.2c.59-.67,1.21-1.31,1.85-1.93a2.62,2.62,0,0,1,2-1,5.1,5.1,0,0,1,1.64.29,8,8,0,0,1,2.21,1.24,13.72,13.72,0,0,1,3.61,4.19,15.45,15.45,0,0,1,.75,1.53A19.32,19.32,0,0,1,66.1,41.41Z"/><path class="cls-2" d="M66.1,41.41a3.06,3.06,0,0,1-1.37,2.65,3.64,3.64,0,0,1-2.25.37,6.94,6.94,0,0,1-1.72-.51c.09-.89.42-1.76.43-2.66a6.59,6.59,0,0,0-.36-1.91c-.21-.68-.45-1.36-.71-2-.13-.33-.26-.67-.4-1a4.25,4.25,0,0,1-.45-1c-.05-.6.87-.41,1.29-.47a4.69,4.69,0,0,0,1.78-.63,4.75,4.75,0,0,0,1.54-1.45,15.45,15.45,0,0,1,.75,1.53A19.32,19.32,0,0,1,66.1,41.41Z"/><path class="cls-6" d="M53.93,29.64a.39.39,0,0,1,.1-.08c.24-.16.62-.08.67-.45a2.06,2.06,0,0,0,0-.35c0-.34.45-.52.79-.5a3,3,0,0,0,1,0c-.25-.69.66-.72,1.07-.63a3.59,3.59,0,0,1,1.69.86c.48.44,1.49,1.73,1.07,2.45a.29.29,0,0,1-.25.12c-.5,0-.63-.36-.94-.62-.12-.1-1-.44-1-.17s.1.61.23.89.17.7-.1.85a.7.7,0,0,1-.32.06l-1.08.06c.21.26-.06.68-.39.74a1.37,1.37,0,0,1-.93-.32,4.11,4.11,0,0,1-1.77-2.13A.83.83,0,0,1,53.93,29.64Z"/><path class="cls-6" d="M65.91,21.29l.1-.07c.22-.15.59-.07.63-.42a1.67,1.67,0,0,0,0-.32c0-.33.42-.49.74-.48a3,3,0,0,0,1,.05c-.23-.65.62-.68,1-.6a3.43,3.43,0,0,1,1.58.82c.45.41,1.4,1.62,1,2.29a.28.28,0,0,1-.23.12c-.47,0-.59-.34-.88-.59-.11-.09-.91-.41-1-.15a1.17,1.17,0,0,0,.22.83c.12.27.16.66-.1.8a.58.58,0,0,1-.29.06l-1,.05c.19.25-.06.64-.37.7a1.3,1.3,0,0,1-.87-.3,3.83,3.83,0,0,1-1.66-2A.8.8,0,0,1,65.91,21.29Z"/><path class="cls-6" d="M59.26,25.92a.61.61,0,0,1,.17-.07c.4-.1.9.13,1.16-.18a.55.55,0,0,0,.11-.36c0-.36-.24-.73-.13-1.08a.77.77,0,0,1,.7-.49,2.29,2.29,0,0,1,.89.15.58.58,0,0,1,.48-.48,1.44,1.44,0,0,1,.71.07,3.83,3.83,0,0,1,1.9,1.58c.27.36,1,1.38.2,1.62a.82.82,0,0,1-.27,0,2.4,2.4,0,0,1-.77-.29c-.23-.13-.52-.29-.71-.11s.29.84,0,1.18a.42.42,0,0,1-.43.14,4,4,0,0,1-.45-.15.4.4,0,0,0-.46.09c-.09.15,0,.34,0,.52a.58.58,0,0,1-.49.53,1.36,1.36,0,0,1-.77-.11,4.12,4.12,0,0,1-1.38-.86c-.28-.27-.87-.72-.85-1.15A.67.67,0,0,1,59.26,25.92Z"/><path class="cls-6" d="M72.2,17.69h.14a.23.23,0,0,0,.14,0c.07,0,.09-.14.13-.2a.58.58,0,0,1,.41-.22,1.46,1.46,0,0,0,.46-.1.49.49,0,0,0,.27-.37,3.53,3.53,0,0,0,0-.46c0-.26.18-.37.43-.38s.46.2.67.11a2.1,2.1,0,0,0,.3-.22,1.2,1.2,0,0,1,.77-.15,2.57,2.57,0,0,1,1.88,1.23.78.78,0,0,1,.09.82.71.71,0,0,1-.57.24,2.76,2.76,0,0,0-.64,0c-.3.08-.37.36-.37.64s.22.54.06.76a.37.37,0,0,1-.4.13c-.25,0-.53-.32-.79-.19a1.49,1.49,0,0,0-.34.28,1.7,1.7,0,0,1-1.31.25,3.64,3.64,0,0,1-1.65-.64c-.35-.26-1-.81-.75-1.32a.62.62,0,0,1,.56-.26Z"/><path class="cls-1" d="M29.64,60.09c.19-.11,1.1-.94,1.25-.41a.53.53,0,0,1-.12.41,6.57,6.57,0,0,1-2,1.7,41.1,41.1,0,0,0-9.12,8.1c-.76.92-1.31,1.91-2,2.87A13.14,13.14,0,0,0,16,76.06a9.31,9.31,0,0,0-.55,5,2.68,2.68,0,0,0,1.6,2,4.16,4.16,0,0,0,3,.08c3-.9,5.11-3.44,7.33-5.59a20.35,20.35,0,0,1,7.34-4.77l0,0a14.48,14.48,0,0,1,1.83-.48,11.07,11.07,0,0,1,4.76.07,6.49,6.49,0,0,1,3.74,2.72,5.4,5.4,0,0,0-2.81-1.88,9.66,9.66,0,0,0-3.38-.37,16.49,16.49,0,0,0-6.79,1.95,22.26,22.26,0,0,0-5.33,4.05c-.33.33-.63.65-.94,1A13.7,13.7,0,0,1,22.07,83a7.81,7.81,0,0,1-3.55.93,5.33,5.33,0,0,1-2.17-.44c-1.48-.66-1.85-2.3-1.93-3.7a12.39,12.39,0,0,1,1.44-5.51A23.74,23.74,0,0,1,19.17,69a38.61,38.61,0,0,1,8.22-7.43C28.13,61.05,28.88,60.56,29.64,60.09Z"/><path class="cls-2" d="M61.17,46.12a24.55,24.55,0,0,1-3.53,5.93,20.27,20.27,0,0,1-11.41,6.73c-.21,0-.42.08-.63.11-.44.08-.88.13-1.32.18-1.73.18-3.47.2-5.2.22a25.73,25.73,0,0,0-5.27.22,12.37,12.37,0,0,0-4.39,1.9,10.45,10.45,0,0,1-1.13.74,3,3,0,0,1-.58.26l-.32.12a.36.36,0,0,1-.14,0c-.51,0,0-1,.11-1.19.2-.52.4-1,.59-1.54a2,2,0,0,0,.19-.79.7.7,0,0,0-.41-.65,1.06,1.06,0,0,0-.92.3l-2.58,2c-.14.11-.7.52-.79.15,0-.19.19-.44.28-.59.4-.7.83-1.4,1.25-2.09.29-.47.57-1,.9-1.41C27,55.26,28,53.74,29,52.25c.53-.76,1.16-1.46,1.64-2.24a36.34,36.34,0,0,1,3.16-4.33c.63-.74,1.28-1.48,1.93-2.21A74.84,74.84,0,0,1,46,34.28c1.87-1.44,3.86-2.64,5.77-4,.72-.51,1.22-.84,1.62.1a7.34,7.34,0,0,0,1.55,2.75c1.21,1.13,3,1.42,4.55,1.93a5.92,5.92,0,0,1,2.64,1.49,4.06,4.06,0,0,1,.36.46,5.39,5.39,0,0,1,.85,2.63C63.53,42.33,62.22,43.9,61.17,46.12Z"/><path class="cls-7" d="M55,37.34a8.52,8.52,0,0,1-1.62,3,21.93,21.93,0,0,1-3.54,3.4q-2,1.63-4.19,3.13c-2.37,1.66-4.9,3.27-7.75,3.76a6.09,6.09,0,0,1-3-.12,2.3,2.3,0,0,1-1.51-1.3A2.91,2.91,0,0,1,34,46.8a30.77,30.77,0,0,1,5.62-6.43c2.17-2,4.33-3.95,6.66-5.71a15.06,15.06,0,0,1,3.3-2,5.13,5.13,0,0,1,3.7-.38,3.76,3.76,0,0,1,1.95,3.38A6.14,6.14,0,0,1,55,37.34Z"/><path class="cls-5" d="M61.17,46.12a24.55,24.55,0,0,1-3.53,5.93,20.27,20.27,0,0,1-11.41,6.73c-.21,0-.42.08-.63.11-.44.08-.88.13-1.32.18-1.73.18-3.47.2-5.2.22a25.73,25.73,0,0,0-5.27.22,12.37,12.37,0,0,0-4.39,1.9,10.45,10.45,0,0,1-1.13.74,3,3,0,0,1-.58.26l-.32.12c.51-.42,1.06-.8,1.61-1.17a16.37,16.37,0,0,1,5.48-2.8,20,20,0,0,0,2-.43c.77-.25,1.4-.86,2.18-1.05A7.83,7.83,0,0,0,41,55.89a22.65,22.65,0,0,1,3.43-2.07c.85-.34,1.77-.51,2.6-.9a7.73,7.73,0,0,0,3.18-3.13c.45-.72.94-1.56,1.77-1.72.42-.08.86,0,1.28,0,.71-.15,1.15-.83,1.49-1.47a23.88,23.88,0,0,0,2.55-7.62c.28-1.77.68-3.41,2.18-3.86a5.92,5.92,0,0,1,2.64,1.49,4.06,4.06,0,0,1,.36.46,5.39,5.39,0,0,1,.85,2.63C63.53,42.33,62.22,43.9,61.17,46.12Z"/><circle class="cls-4" cx="36.48" cy="55.69" r="1.19"/><path class="cls-5" d="M34.26,54.8c-.17-.18-.29-.53.05-.61a1,1,0,0,1,.53.1,1.18,1.18,0,0,0,.56.06,5.8,5.8,0,0,1,.94-.05,1.52,1.52,0,0,1,.55.16.73.73,0,0,1,.34.31.88.88,0,0,0-.61-.14,1.39,1.39,0,0,0-.53.18,1.18,1.18,0,0,0-.57.82,1.23,1.23,0,0,0,.34,1,1.09,1.09,0,0,1-.53-.51c-.13-.2-.19-.43-.3-.63a1.5,1.5,0,0,0-.46-.51A3.55,3.55,0,0,1,34.26,54.8Z"/><circle class="cls-8" cx="36.9" cy="55.27" r="0.36"/><path class="cls-6" d="M38.09,44.82c0-.3-.16-.65,0-.92a.58.58,0,0,1,.56-.31c.24,0,.49.16.69,0a1.37,1.37,0,0,0,.22-.2.6.6,0,0,1,.63-.1A3.13,3.13,0,0,0,40,42.08a.66.66,0,0,1-.06-.43c.1-.26.48-.23.75-.14a11.28,11.28,0,0,1,1.37.51.77.77,0,0,1,.83-.65,1.48,1.48,0,0,0,.55.06.48.48,0,0,0,.29-.55,1.74,1.74,0,0,0-.28-.64,1.47,1.47,0,0,1-.28-.69.52.52,0,0,1,.38-.55c.15,0,.31,0,.44,0,.36-.15.11-.89.49-1a1,1,0,0,1,.25,0,.59.59,0,0,0,.59-.68,2.73,2.73,0,0,0-.28-.6.46.46,0,0,1,.09-.58c.28-.16.61.21.93.2s.48-.28.74-.39c.47-.18,1,.25,1.52.15a.35.35,0,0,0,.24-.14.61.61,0,0,0,0-.18,9.53,9.53,0,0,0-.13-1c0-.1,0-.21.11-.24a.17.17,0,0,1,.1,0l.28,0a.23.23,0,0,0,.14,0,.18.18,0,0,0,0-.2,1.14,1.14,0,0,0-.1-.19.44.44,0,0,1,0-.3.16.16,0,0,1,0-.09.2.2,0,0,1,.16,0,.92.92,0,0,0,.36.1.1.1,0,0,0,.07,0,.15.15,0,0,0,0-.07c0-.17-.18-.32-.13-.5A.42.42,0,0,1,50,33a2.32,2.32,0,0,1,.58.13,5.46,5.46,0,0,1,2.1,1.32A.81.81,0,0,1,53,35a.26.26,0,0,1-.25.26,1.35,1.35,0,0,1-.56-.09.76.76,0,0,0-1,.44c0,.21.09.42-.14.53s-.37.12-.41.41a1.12,1.12,0,0,0,.08.51c.1.35,1.06,2.1,0,2a.84.84,0,0,1-.4-.17,4.51,4.51,0,0,0-2.5-.94.42.42,0,0,0-.37.18.49.49,0,0,0,0,.24v.89l-.67,0a3.73,3.73,0,0,0,.64,1.37,1.7,1.7,0,0,1,.29,1.44.2.2,0,0,1-.1.12.3.3,0,0,1-.16,0,15.63,15.63,0,0,1-1.49-.55c-.31-.13-1-.3-1.18.08a3.76,3.76,0,0,0,.43,1.35,5.2,5.2,0,0,1-2.48,0c.1.28.21.55.31.83a9.68,9.68,0,0,0-2,.23c-.18,0-.39.11-.42.28a.62.62,0,0,0,.15.42,3.14,3.14,0,0,1,.52,1.44c0,.15,0,.35-.16.39a.36.36,0,0,1-.24-.06L39.27,46c-.2-.1-.46-.19-.62-.05s.1.66.07,1-.71.65-1.09.58-1-.71-1.26-1.19C35.73,45.08,37.18,44.83,38.09,44.82Z"/><path class="cls-6" d="M85,14.86a2.38,2.38,0,0,1,.25.56c.1.38,0,.69-.43.69s-.92-.14-1.1.24c-.06.12,0,.26-.09.38a.57.57,0,0,1-.46.31c-.19,0-.39,0-.58,0a.81.81,0,0,0-.49.19c-.11.11-.08.23-.16.37-.32.59-.93-.28-1.11-.52a4.82,4.82,0,0,0-2.6-1.71L78,15.35a5.34,5.34,0,0,1-.81-.21c-.18-.06-.46-.17-.43-.4a.37.37,0,0,1,.22-.29,1,1,0,0,1,.38-.08l.54,0a1.11,1.11,0,0,0,.48,0,.52.52,0,0,0,.35-.31c0-.19,0-.36.13-.53a1,1,0,0,1,.52-.19c.32,0,.38-.17.54-.4a1,1,0,0,1,.72-.29,3.76,3.76,0,0,1,2,.36,7.23,7.23,0,0,1,1.71,1.2A3.42,3.42,0,0,1,85,14.86Z"/></g></g></svg>